OptimisticAI_Morph.ufo
<glyph name="dollar" format="2">
  <advance width="1170"/>
  <unicode hex="0024"/>
  <outline>
    <contour>
      <point x="514" y="-19" type="line"/>
      <point x="301" y="1"/>
      <point x="57" y="208"/>
      <point x="33" y="392" type="qcurve"/>
      <point x="263" y="392" type="line"/>
      <point x="287" y="198"/>
      <point x="514" y="168" type="qcurve"/>
      <point x="514" y="623" type="line"/>
      <point x="454" y="636" type="line" smooth="yes"/>
      <point x="275" y="674"/>
      <point x="77" y="878"/>
      <point x="77" y="1020" type="qcurve" smooth="yes"/>
      <point x="77" y="1188"/>
      <point x="314" y="1404"/>
      <point x="514" y="1420" type="qcurve"/>
      <point x="514" y="1624" type="line"/>
      <point x="673" y="1624" type="line"/>
      <point x="673" y="1419" type="line"/>
      <point x="1067" y="1382"/>
      <point x="1137" y="1018" type="qcurve"/>
      <point x="907" y="1018" type="line"/>
      <point x="864" y="1202"/>
      <point x="673" y="1233" type="qcurve"/>
      <point x="673" y="797" type="line"/>
      <point x="739" y="784" type="line" smooth="yes"/>
      <point x="926" y="745"/>
      <point x="1133" y="536"/>
      <point x="1133" y="388" type="qcurve" smooth="yes"/>
      <point x="1133" y="208"/>
      <point x="889" y="-8"/>
      <point x="673" y="-21" type="qcurve"/>
      <point x="673" y="-224" type="line"/>
      <point x="514" y="-224" type="line"/>
    </contour>
    <contour>
      <point x="673" y="165" type="line"/>
      <point x="788" y="175"/>
      <point x="910" y="281"/>
      <point x="910" y="371" type="qcurve" smooth="yes"/>
      <point x="910" y="538"/>
      <point x="680" y="588" type="qcurve" smooth="yes"/>
      <point x="673" y="589" type="line"/>
    </contour>
    <contour>
      <point x="514" y="1235" type="line"/>
      <point x="415" y="1221"/>
      <point x="301" y="1114"/>
      <point x="301" y="1034" type="qcurve" smooth="yes"/>
      <point x="301" y="877"/>
      <point x="514" y="830" type="qcurve"/>
    </contour>
  </outline>
</glyph>
<glyph name="zero" format="2">
  <advance width="1214"/>
  <unicode hex="0030"/>
  <outline>
    <contour>
      <point x="73" y="1040"/>
      <point x="356" y="1423"/>
      <point x="607" y="1423" type="qcurve" smooth="yes"/>
      <point x="774" y="1423"/>
      <point x="1013" y="1250"/>
      <point x="1141" y="927"/>
      <point x="1141" y="474"/>
      <point x="1013" y="150"/>
      <point x="774" y="-23"/>
      <point x="607" y="-23" type="qcurve" smooth="yes"/>
      <point x="356" y="-23"/>
      <point x="73" y="360"/>
    </contour>
    <contour>
      <point x="301" y="965"/>
      <point x="301" y="435"/>
      <point x="458" y="163"/>
      <point x="756" y="163"/>
      <point x="912" y="435"/>
      <point x="912" y="965"/>
      <point x="756" y="1237"/>
      <point x="458" y="1237"/>
    </contour>
  </outline>
</glyph>
<glyph name="four" format="2">
  <advance width="1178"/>
  <unicode hex="0034"/>
  <outline>
    <contour>
      <point x="722" y="328" type="line"/>
      <point x="49" y="328" type="line"/>
      <point x="49" y="506" type="line"/>
      <point x="676" y="1400" type="line"/>
      <point x="941" y="1400" type="line"/>
      <point x="941" y="512" type="line"/>
      <point x="1153" y="512" type="line"/>
      <point x="1153" y="328" type="line"/>
      <point x="941" y="328" type="line"/>
      <point x="941" y="0" type="line"/>
      <point x="722" y="0" type="line"/>
    </contour>
    <contour>
      <point x="722" y="1150" type="line"/>
      <point x="275" y="512" type="line"/>
      <point x="722" y="512" type="line"/>
    </contour>
  </outline>
</glyph>
<glyph name="equal" format="2">
  <advance width="1170"/>
  <unicode hex="003D"/>
  <outline>
    <contour>
      <point x="86" y="554" type="line"/>
      <point x="1084" y="554" type="line"/>
      <point x="1084" y="369" type="line"/>
      <point x="86" y="369" type="line"/>
    </contour>
    <contour>
      <point x="86" y="1035" type="line"/>
      <point x="1084" y="1035" type="line"/>
      <point x="1084" y="850" type="line"/>
      <point x="86" y="850" type="line"/>
    </contour>
  </outline>
</glyph>
<glyph name="A" format="2">
  <advance width="1320"/>
  <unicode hex="0041"/>
  <outline>
    <contour>
      <point x="130.82477339455158" y="3.637978807091713e-12" type="curve"/>
      <point x="118.73883739455164" y="3.637978807091713e-12"/>
      <point x="106.44196139455175" y="2.0156260000039765"/>
      <point x="94.38727339455158" y="6.242188000003807" type="curve" smooth="yes"/>
      <point x="37.066961394551754" y="26.367188000003807"/>
      <point x="6.918525394551807" y="89.14843800000381"/>
      <point x="27.043525394551807" y="146.46875000000364" type="curve" smooth="yes"/>
      <point x="416.1372733945516" y="1254.6953120000035" type="line" smooth="yes"/>
      <point x="453.5435253945518" y="1361.2265640000041"/>
      <point x="554.5357113945518" y="1432.8046880000038"/>
      <point x="667.4419613945518" y="1432.8046880000038" type="curve" smooth="yes"/>
      <point x="779.9419613945515" y="1432.8046880000038"/>
      <point x="880.8091493945517" y="1361.5859380000038"/>
      <point x="918.4419613945515" y="1255.5703120000035" type="curve" smooth="yes"/>
      <point x="918.5591493945517" y="1255.2500000000036"/>
      <point x="918.6685253945516" y="1254.9296880000038"/>
      <point x="918.7857113945515" y="1254.6015640000041" type="curve" smooth="yes"/>
      <point x="1129.7622733945518" y="642.3046880000038" type="line" smooth="yes"/>
      <point x="1150.7622733945518" y="582.8671880000038"/>
      <point x="1153.6060253945516" y="525.9921880000038"/>
      <point x="1138.7310253945516" y="476.78125000000364" type="curve"/>
      <point x="1185.6138373945519" y="438.21875000000364"/>
      <point x="1221.4107113945515" y="383.94531200000347"/>
      <point x="1246.6607113945515" y="313.60156400000415" type="curve" smooth="yes"/>
      <point x="1310.7935253945516" y="150.21875000000364" type="line" smooth="yes"/>
      <point x="1332.9966493945517" y="93.67187600000398"/>
      <point x="1305.1450873945519" y="29.835938000003807"/>
      <point x="1248.5982113945515" y="7.6406260000039765" type="curve" smooth="yes"/>
      <point x="1192.0513373945519" y="-14.562499999996362"/>
      <point x="1128.2153993945517" y="13.289064000004146"/>
      <point x="1106.0200873945519" y="69.83593800000381" type="curve" smooth="yes"/>
      <point x="1041.2544613945515" y="234.81250000000364" type="line" smooth="yes"/>
      <point x="1040.8169613945515" y="235.93750000000364"/>
      <point x="1040.3950873945519" y="237.06250000000364"/>
      <point x="1039.9888373945519" y="238.20312600000398" type="curve" smooth="yes"/>
      <point x="1027.2388373945519" y="274.1171880000038"/>
      <point x="1012.4732113945515" y="297.59375000000364"/>
      <point x="994.8560253945516" y="309.96875000000364" type="curve" smooth="yes"/>
      <point x="977.1607113945515" y="322.3984380000038"/>
      <point x="949.8325873945519" y="328.4921880000038"/>
      <point x="911.2935253945516" y="328.60156400000415" type="curve" smooth="yes"/>
      <point x="587.7075873945516" y="328.60156400000415" type="line" smooth="yes"/>
      <point x="526.9732113945518" y="328.60156400000415"/>
      <point x="477.73883739455164" y="377.82031200000347"/>
      <point x="477.7153993945517" y="438.5546880000038" type="curve" smooth="yes"/>
      <point x="477.69196139455175" y="499.28906400000415"/>
      <point x="526.8950873945516" y="548.546876000004"/>
      <point x="587.6294613945518" y="548.5937500000036" type="curve" smooth="yes"/>
      <point x="590.0747733945516" y="548.5937500000036"/>
      <point x="805.1216493945517" y="548.7734380000038"/>
      <point x="882.9575873945519" y="548.5937500000036" type="curve" smooth="yes"/>
      <point x="883.0825873945519" y="548.5937500000036"/>
      <point x="916.2153993945517" y="548.1640640000041"/>
      <point x="931.5435253945516" y="537.8203120000035" type="curve"/>
      <point x="930.7622733945518" y="542.6796880000038"/>
      <point x="925.1685253945516" y="561.0234380000038"/>
      <point x="922.2622733945518" y="569.2265640000041" type="curve" smooth="yes"/>
      <point x="922.1450873945519" y="569.546876000004"/>
      <point x="922.0357113945515" y="569.8671880000038"/>
      <point x="921.9263373945519" y="570.1875000000036" type="curve" smooth="yes"/>
      <point x="711.0122733945516" y="1182.296876000004" type="line" smooth="yes"/>
      <point x="704.3716493945517" y="1200.5703120000035"/>
      <point x="686.9028993945517" y="1212.8125000000036"/>
      <point x="667.4419613945518" y="1212.8125000000036" type="curve" smooth="yes"/>
      <point x="647.7935253945518" y="1212.8125000000036"/>
      <point x="630.2153993945517" y="1200.359376000004"/>
      <point x="623.7075873945516" y="1181.8203120000035" type="curve" smooth="yes"/>
      <point x="234.61383739455164" y="73.59375000000364" type="line" smooth="yes"/>
      <point x="218.72321139455175" y="28.328126000003977"/>
      <point x="176.22321139455175" y="0.007812000003468711"/>
    </contour>
  </outline>
</glyph>
<glyph name="B" format="2">
  <advance width="1257"/>
  <unicode hex="0042"/>
  <outline>
    <contour>
      <point x="333.9921879999997" y="229.9921859999995" type="line" smooth="yes"/>
      <point x="333.9921879999997" y="224.46875"/>
      <point x="338.46875199999977" y="219.9921859999995"/>
      <point x="343.9921879999997" y="219.9921859999995" type="curve" smooth="yes"/>
      <point x="825.1171879999997" y="219.9921859999995" type="line" smooth="yes"/>
      <point x="934.976564" y="219.9921859999995"/>
      <point x="985.007814" y="324.57812399999966"/>
      <point x="985.007814" y="421.75" type="curve" smooth="yes"/>
      <point x="985.007814" y="469.7421859999995"/>
      <point x="968.4296879999997" y="509.625"/>
      <point x="934.320314" y="543.6796859999995" type="curve" smooth="yes"/>
      <point x="882.0468759999999" y="595.875"/>
      <point x="801.6093759999999" y="619.9843739999997"/>
      <point x="758.6718759999999" y="621.1171859999995" type="curve"/>
      <point x="544.3906259999999" y="620.7343739999997" type="line" smooth="yes"/>
      <point x="541.914064" y="620.7265619999998"/>
      <point x="539.757814" y="620.7265619999998"/>
      <point x="537.9609379999997" y="620.71875" type="curve"/>
      <point x="537.757814" y="620.71875" type="line" smooth="yes"/>
      <point x="537.7031259999999" y="620.71875"/>
      <point x="537.625" y="620.71875"/>
      <point x="537.5546879999997" y="620.71875" type="curve" smooth="yes"/>
      <point x="476.38281400000005" y="620.71875"/>
      <point x="426.84375199999977" y="670.6718739999997"/>
      <point x="427.57031400000005" y="732.0546859999995" type="curve" smooth="yes"/>
      <point x="428.28906400000005" y="792.4765619999998"/>
      <point x="478.5781259999999" y="840.6093739999997"/>
      <point x="539.0" y="840.71875" type="curve" smooth="yes"/>
      <point x="544.3593759999999" y="840.7265619999998" type="line" smooth="yes"/>
      <point x="555.4921879999997" y="840.75"/>
      <point x="573.0" y="840.7890619999998"/>
      <point x="594.070314" y="840.8281239999997" type="curve" smooth="yes"/>
      <point x="640.4375" y="840.9296859999995"/>
      <point x="704.0312519999998" y="841.0703119999998"/>
      <point x="755.039064" y="841.1484380000002" type="curve" smooth="yes"/>
      <point x="756.820314" y="841.1484380000002"/>
      <point x="758.6718759999999" y="841.1406239999997"/>
      <point x="760.5" y="841.1171859999995" type="curve" smooth="yes"/>
      <point x="781.632814" y="841.1484380000002" type="line" smooth="yes"/>
      <point x="818.5312519999998" y="841.1484380000002"/>
      <point x="846.2656259999999" y="869.5625"/>
      <point x="863.0781259999999" y="893.3984380000002" type="curve" smooth="yes"/>
      <point x="891.257814" y="933.3593739999997"/>
      <point x="908.0781259999999" y="988.1796859999995"/>
      <point x="908.0781259999999" y="1040.0468739999997" type="curve" smooth="yes"/>
      <point x="908.0781259999999" y="1108.8125"/>
      <point x="839.5937519999998" y="1212.7890619999998"/>
      <point x="736.3593759999999" y="1212.7890619999998" type="curve" smooth="yes"/>
      <point x="343.9921879999997" y="1212.7890619999998" type="line" smooth="yes"/>
      <point x="338.46875199999977" y="1212.7890619999998"/>
      <point x="333.9921879999997" y="1208.3046859999995"/>
      <point x="333.9921879999997" y="1202.7890619999998" type="curve" smooth="yes"/>
    </contour>
    <contour>
      <point x="825.1171879999997" y="0.0" type="curve" smooth="yes"/>
      <point x="224.0" y="0.0" type="line" smooth="yes"/>
      <point x="163.25" y="0.0"/>
      <point x="114.0" y="49.25"/>
      <point x="114.0" y="110.0" type="curve" smooth="yes"/>
      <point x="114.0" y="1322.78125" type="line" smooth="yes"/>
      <point x="114.0" y="1383.53125"/>
      <point x="163.25" y="1432.78125"/>
      <point x="224.0" y="1432.78125" type="curve" smooth="yes"/>
      <point x="736.3593759999999" y="1432.78125" type="line" smooth="yes"/>
      <point x="843.789064" y="1432.78125"/>
      <point x="944.75" y="1386.8359380000002"/>
      <point x="1020.632814" y="1303.4140619999998" type="curve" smooth="yes"/>
      <point x="1088.914064" y="1228.34375"/>
      <point x="1128.070314" y="1132.3515619999998"/>
      <point x="1128.070314" y="1040.0468739999997" type="curve" smooth="yes"/>
      <point x="1128.070314" y="943.0625"/>
      <point x="1103.4609379999997" y="813.71875"/>
      <point x="1007.6875" y="749.8671859999995" type="curve"/>
      <point x="1129.3984379999997" y="694.0078119999998"/>
      <point x="1205.0" y="528.0859380000002"/>
      <point x="1205.0" y="421.75" type="curve" smooth="yes"/>
      <point x="1205.0" y="310.92187399999966"/>
      <point x="1169.664064" y="207.59375"/>
      <point x="1105.5" y="130.78906199999983" type="curve" smooth="yes"/>
      <point x="1035.039064" y="46.44531199999983"/>
      <point x="935.4687519999998" y="0.0"/>
    </contour>
  </outline>
</glyph>
<glyph name="C" format="2">
  <advance width="1396"/>
  <unicode hex="0043"/>
  <outline>
    <contour>
      <point x="734.96875" y="-23.0" type="curve" smooth="yes"/>
      <point x="629.09375" y="-23.0"/>
      <point x="532.53125" y="-5.3125"/>
      <point x="447.97656199999983" y="29.5625" type="curve" smooth="yes"/>
      <point x="362.41406199999983" y="64.85156199999983"/>
      <point x="289.09375" y="117.59375"/>
      <point x="230.05468800000017" y="186.3125" type="curve" smooth="yes"/>
      <point x="173.1875" y="252.50781199999983"/>
      <point x="129.96875" y="333.1875"/>
      <point x="101.60156199999983" y="426.11718800000017" type="curve" smooth="yes"/>
      <point x="74.65625" y="514.3671880000002"/>
      <point x="61.0" y="614.25"/>
      <point x="61.0" y="722.9765619999998" type="curve" smooth="yes"/>
      <point x="61.0" y="953.8984380000002"/>
      <point x="119.28906199999983" y="1136.6015619999998"/>
      <point x="234.25781199999983" y="1266.0078119999998" type="curve" smooth="yes"/>
      <point x="293.57031199999983" y="1332.78125"/>
      <point x="367.15625" y="1383.78125"/>
      <point x="452.96093800000017" y="1417.6015619999998" type="curve" smooth="yes"/>
      <point x="536.0468760000003" y="1450.34375"/>
      <point x="630.9296880000002" y="1466.9453119999998"/>
      <point x="734.96875" y="1466.9453119999998" type="curve" smooth="yes"/>
      <point x="874.6093760000003" y="1466.9453119999998"/>
      <point x="996.6015619999998" y="1437.2656239999997"/>
      <point x="1097.5781239999997" y="1378.7343760000003" type="curve" smooth="yes"/>
      <point x="1200.875" y="1318.84375"/>
      <point x="1280.0546880000002" y="1230.4609380000002"/>
      <point x="1332.90625" y="1116.0234380000002" type="curve" smooth="yes"/>
      <point x="1358.3828119999998" y="1060.875"/>
      <point x="1334.3203119999998" y="995.5156239999997"/>
      <point x="1279.1718760000003" y="970.0468760000003" type="curve" smooth="yes"/>
      <point x="1224.0234380000002" y="944.5703119999998"/>
      <point x="1158.6640619999998" y="968.6328119999998"/>
      <point x="1133.1875" y="1023.78125" type="curve" smooth="yes"/>
      <point x="1099.6953119999998" y="1096.2890619999998"/>
      <point x="1050.59375" y="1151.6796880000002"/>
      <point x="987.2421880000002" y="1188.40625" type="curve" smooth="yes"/>
      <point x="920.2265619999998" y="1227.2578119999998"/>
      <point x="835.3515619999998" y="1246.9531239999997"/>
      <point x="734.96875" y="1246.9531239999997" type="curve" smooth="yes"/>
      <point x="586.75" y="1246.9531239999997"/>
      <point x="473.61718800000017" y="1204.2109380000002"/>
      <point x="398.71875" y="1119.90625" type="curve" smooth="yes"/>
      <point x="320.60156199999983" y="1031.9609380000002"/>
      <point x="280.98437600000034" y="898.4218760000003"/>
      <point x="280.98437600000034" y="722.9765619999998" type="curve" smooth="yes"/>
      <point x="280.98437600000034" y="636.03125"/>
      <point x="291.42187600000034" y="557.7734380000002"/>
      <point x="312.00781199999983" y="490.35156199999983" type="curve" smooth="yes"/>
      <point x="331.4375" y="426.69531199999983"/>
      <point x="360.00781199999983" y="372.64062399999966"/>
      <point x="396.92187600000034" y="329.67187600000034" type="curve" smooth="yes"/>
      <point x="472.55468800000017" y="241.63281199999983"/>
      <point x="586.2890619999998" y="196.99218800000017"/>
      <point x="734.96875" y="196.99218800000017" type="curve" smooth="yes"/>
      <point x="840.7656239999997" y="196.99218800000017"/>
      <point x="929.4375" y="219.70312399999966"/>
      <point x="998.5078119999998" y="264.49218800000017" type="curve" smooth="yes"/>
      <point x="1063.3828119999998" y="306.55468800000017"/>
      <point x="1112.4843760000003" y="369.44531199999983"/>
      <point x="1144.4531239999997" y="451.40625" type="curve" smooth="yes"/>
      <point x="1166.5234380000002" y="508.0"/>
      <point x="1230.2968760000003" y="535.9921880000002"/>
      <point x="1286.8984380000002" y="513.9218760000003" type="curve" smooth="yes"/>
      <point x="1343.4921880000002" y="491.84375"/>
      <point x="1371.4843760000003" y="428.07031199999983"/>
      <point x="1349.40625" y="371.46875" type="curve" smooth="yes"/>
      <point x="1250.2031239999997" y="117.09375"/>
      <point x="1031.9921880000002" y="-23.0"/>
    </contour>
  </outline>
</glyph>
<glyph name="D" format="2">
  <advance width="1380"/>
  <unicode hex="0044"/>
  <outline>
    <contour>
      <point x="333.99218800000017" y="229.9921859999995" type="line" smooth="yes"/>
      <point x="333.99218800000017" y="224.46875"/>
      <point x="338.46875" y="219.9921859999995"/>
      <point x="343.99218800000017" y="219.9921859999995" type="curve" smooth="yes"/>
      <point x="614.4140619999998" y="219.9921859999995" type="line" smooth="yes"/>
      <point x="764.1015619999998" y="219.9921859999995"/>
      <point x="878.3906239999997" y="262.6796859999995"/>
      <point x="954.125" y="346.85937399999966" type="curve" smooth="yes"/>
      <point x="990.5234359999995" y="387.32812399999966"/>
      <point x="1018.6796880000002" y="438.1796859999995"/>
      <point x="1037.8046880000002" y="498.01562399999966" type="curve" smooth="yes"/>
      <point x="1058.1093739999997" y="561.5078119999998"/>
      <point x="1068.3984359999995" y="635.2968739999997"/>
      <point x="1068.3984359999995" y="717.34375" type="curve" smooth="yes"/>
      <point x="1068.3984359999995" y="882.6796859999995"/>
      <point x="1029.3593739999997" y="1008.4843739999997"/>
      <point x="952.3593739999997" y="1091.25" type="curve" smooth="yes"/>
      <point x="877.34375" y="1171.8984380000002"/>
      <point x="763.6406239999997" y="1212.7890619999998"/>
      <point x="614.4140619999998" y="1212.7890619999998" type="curve" smooth="yes"/>
      <point x="343.99218800000017" y="1212.7890619999998" type="line" smooth="yes"/>
      <point x="338.46875" y="1212.7890619999998"/>
      <point x="333.99218800000017" y="1208.3046859999995"/>
      <point x="333.99218800000017" y="1202.7890619999998" type="curve" smooth="yes"/>
    </contour>
    <contour>
      <point x="614.4140619999998" y="0.0" type="curve" smooth="yes"/>
      <point x="223.99218800000017" y="0.0" type="line" smooth="yes"/>
      <point x="163.25" y="0.0"/>
      <point x="114.0" y="49.25"/>
      <point x="114.0" y="110.0" type="curve" smooth="yes"/>
      <point x="114.0" y="1322.78125" type="line" smooth="yes"/>
      <point x="114.0" y="1383.53125"/>
      <point x="163.25" y="1432.78125"/>
      <point x="223.99218800000017" y="1432.78125" type="curve" smooth="yes"/>
      <point x="614.4140619999998" y="1432.78125" type="line" smooth="yes"/>
      <point x="717.875" y="1432.78125"/>
      <point x="812.21875" y="1417.0078119999998"/>
      <point x="894.8359359999995" y="1385.9140619999998" type="curve" smooth="yes"/>
      <point x="980.46875" y="1353.6875"/>
      <point x="1054.0156239999997" y="1304.9609380000002"/>
      <point x="1113.4375" y="1241.0859380000002" type="curve" smooth="yes"/>
      <point x="1172.1093739999997" y="1178.0156239999997"/>
      <point x="1216.7265619999998" y="1100.3906239999997"/>
      <point x="1246.0390619999998" y="1010.3828119999998" type="curve" smooth="yes"/>
      <point x="1274.1406239999997" y="924.1171859999995"/>
      <point x="1288.3906239999997" y="825.5234380000002"/>
      <point x="1288.3906239999997" y="717.34375" type="curve" smooth="yes"/>
      <point x="1288.3906239999997" y="612.53125"/>
      <point x="1274.5781239999997" y="516.2031239999997"/>
      <point x="1247.3515619999998" y="431.03125" type="curve" smooth="yes"/>
      <point x="1218.6796880000002" y="341.32812399999966"/>
      <point x="1175.0468739999997" y="263.50781199999983"/>
      <point x="1117.6718739999997" y="199.72656199999983" type="curve" smooth="yes"/>
      <point x="1058.5156239999997" y="133.96093800000017"/>
      <point x="985.2031239999997" y="83.55468599999949"/>
      <point x="899.78125" y="49.90625" type="curve" smooth="yes"/>
      <point x="815.6953119999998" y="16.79687399999966"/>
      <point x="719.6875" y="0.0"/>
    </contour>
  </outline>
</glyph>
<glyph name="E" format="2">
  <advance width="1138"/>
  <unicode hex="0045"/>
  <outline>
    <contour>
      <point x="945.9453120000071" y="0.0" type="curve" smooth="yes"/>
      <point x="224.00000000000728" y="0.0" type="line" smooth="yes"/>
      <point x="163.25000000000728" y="0.0"/>
      <point x="114.00000000000728" y="49.25"/>
      <point x="114.00000000000728" y="110.0" type="curve" smooth="yes"/>
      <point x="114.00000000000728" y="556.5156239999997" type="line" smooth="yes"/>
      <point x="114.00000000000728" y="622.46875"/>
      <point x="142.0937480000066" y="701.6640619999998"/>
      <point x="196.27343600000677" y="731.8203119999998" type="curve"/>
      <point x="136.39062400000694" y="767.2421859999995"/>
      <point x="114.00000000000728" y="843.0156239999997"/>
      <point x="114.00000000000728" y="907.3984380000002" type="curve" smooth="yes"/>
      <point x="114.00000000000728" y="1322.78125" type="line" smooth="yes"/>
      <point x="114.00000000000728" y="1383.53125"/>
      <point x="163.25000000000728" y="1432.78125"/>
      <point x="224.00000000000728" y="1432.78125" type="curve" smooth="yes"/>
      <point x="921.4921860000068" y="1432.78125" type="line" smooth="yes"/>
      <point x="981.9453120000071" y="1432.78125"/>
      <point x="1032.3359360000068" y="1384.6875"/>
      <point x="1033.1250000000073" y="1324.2421859999995" type="curve" smooth="yes"/>
      <point x="1033.921874000007" y="1262.8203119999998"/>
      <point x="984.3750000000073" y="1212.7890619999998"/>
      <point x="923.1406240000069" y="1212.7890619999998" type="curve" smooth="yes"/>
      <point x="333.99218600000677" y="1212.7890619999998" type="line"/>
      <point x="333.99218600000677" y="915.8984380000002" type="line" smooth="yes"/>
      <point x="333.99218600000677" y="906.25"/>
      <point x="335.33593600000677" y="896.6093739999997"/>
      <point x="338.49218600000677" y="887.5" type="curve" smooth="yes"/>
      <point x="347.7812480000066" y="860.6796859999995"/>
      <point x="369.05468600000677" y="842.9531239999997"/>
      <point x="400.98437400000694" y="843.4921859999995" type="curve" smooth="yes"/>
      <point x="805.8046860000068" y="843.4921859999995" type="line" smooth="yes"/>
      <point x="865.8984360000068" y="843.4921859999995"/>
      <point x="916.1171860000068" y="795.96875"/>
      <point x="917.4062480000066" y="735.8906239999997" type="curve" smooth="yes"/>
      <point x="918.7187480000066" y="674.71875"/>
      <point x="869.9687480000066" y="624.375"/>
      <point x="808.9921860000068" y="623.5156239999997" type="curve" smooth="yes"/>
      <point x="806.8515620000071" y="623.4843739999997"/>
      <point x="592.1250000000073" y="620.46875"/>
      <point x="401.04687400000694" y="620.4140619999998" type="curve"/>
      <point x="367.5312480000066" y="620.8359380000002"/>
      <point x="346.2500000000073" y="601.8593739999997"/>
      <point x="337.5312480000066" y="573.2421859999995" type="curve" smooth="yes"/>
      <point x="335.0390620000071" y="565.0703119999998"/>
      <point x="333.99218600000677" y="556.53125"/>
      <point x="333.99218600000677" y="547.9921859999995" type="curve" smooth="yes"/>
      <point x="333.99218600000677" y="219.9921859999995" type="line"/>
      <point x="944.3046860000068" y="219.9921859999995" type="line" smooth="yes"/>
      <point x="1004.7578120000071" y="219.9921859999995"/>
      <point x="1055.1484360000068" y="171.90625"/>
      <point x="1055.9375000000073" y="111.46093800000017" type="curve" smooth="yes"/>
      <point x="1056.734374000007" y="50.03906199999983"/>
      <point x="1007.1875000000073" y="0.0"/>
    </contour>
  </outline>
</glyph>
<glyph name="F" format="2">
  <advance width="1098"/>
  <unicode hex="0046"/>
  <outline>
    <contour>
      <point x="921.4921880000002" y="1432.7734380000002" type="curve" smooth="yes"/>
      <point x="224.0" y="1432.7734380000002" type="line" smooth="yes"/>
      <point x="163.25" y="1432.7734380000002"/>
      <point x="114.0" y="1383.53125"/>
      <point x="114.0" y="1322.78125" type="curve" smooth="yes"/>
      <point x="114.0" y="907.3984380000002" type="line" smooth="yes"/>
      <point x="114.0" y="843.0156239999997"/>
      <point x="136.39062600000034" y="767.2421859999995"/>
      <point x="196.26562600000034" y="731.8203119999998" type="curve"/>
      <point x="142.09375" y="701.6640619999998"/>
      <point x="114.0" y="622.46875"/>
      <point x="114.0" y="556.5156239999997" type="curve" smooth="yes"/>
      <point x="114.0" y="110.0" type="line" smooth="yes"/>
      <point x="114.0" y="49.25"/>
      <point x="163.25" y="0.0"/>
      <point x="224.0" y="0.0" type="curve" smooth="yes"/>
      <point x="284.75" y="0.0"/>
      <point x="333.99218800000017" y="49.25"/>
      <point x="333.99218800000017" y="110.0" type="curve" smooth="yes"/>
      <point x="333.99218800000017" y="547.9921859999995" type="line" smooth="yes"/>
      <point x="333.99218800000017" y="556.53125"/>
      <point x="335.03906199999983" y="565.0703119999998"/>
      <point x="337.53125" y="573.2421859999995" type="curve" smooth="yes"/>
      <point x="346.25" y="601.8593739999997"/>
      <point x="367.53125" y="620.8359380000002"/>
      <point x="401.03906199999983" y="620.4140619999998" type="curve" smooth="yes"/>
      <point x="592.125" y="620.4765619999998"/>
      <point x="806.84375" y="623.4843739999997"/>
      <point x="808.9921880000002" y="623.5156239999997" type="curve" smooth="yes"/>
      <point x="869.96875" y="624.375"/>
      <point x="918.71875" y="674.71875"/>
      <point x="917.40625" y="735.8906239999997" type="curve" smooth="yes"/>
      <point x="916.1171880000002" y="795.96875"/>
      <point x="865.8984380000002" y="843.4921859999995"/>
      <point x="805.8046880000002" y="843.4921859999995" type="curve" smooth="yes"/>
      <point x="400.98437600000034" y="843.4921859999995" type="line"/>
      <point x="369.05468800000017" y="842.9531239999997"/>
      <point x="347.78125" y="860.6796859999995"/>
      <point x="338.49218800000017" y="887.4921859999995" type="curve" smooth="yes"/>
      <point x="335.33593800000017" y="896.6093739999997"/>
      <point x="333.99218800000017" y="906.25"/>
      <point x="333.99218800000017" y="915.8906239999997" type="curve" smooth="yes"/>
      <point x="333.99218800000017" y="1202.7890619999998" type="line" smooth="yes"/>
      <point x="333.99218800000017" y="1208.3046859999995"/>
      <point x="338.46875" y="1212.78125"/>
      <point x="343.99218800000017" y="1212.78125" type="curve" smooth="yes"/>
      <point x="923.1328140000005" y="1212.78125" type="line" smooth="yes"/>
      <point x="984.3671880000002" y="1212.78125"/>
      <point x="1033.9218760000003" y="1262.8281239999997"/>
      <point x="1033.1171880000002" y="1324.2421859999995" type="curve" smooth="yes"/>
      <point x="1032.3359380000002" y="1384.6875"/>
      <point x="981.9453140000005" y="1432.7734380000002"/>
    </contour>
  </outline>
</glyph>
<glyph name="G" format="2">
  <advance width="1399"/>
  <unicode hex="0047"/>
  <outline>
    <contour>
      <point x="1132.4921859999995" y="580.0468760000003" type="line"/>
      <point x="1132.5156239999997" y="580.0468760000003" type="line"/>
    </contour>
    <contour>
      <point x="734.9765619999998" y="-23.0" type="curve" smooth="yes"/>
      <point x="629.1015619999998" y="-23.0"/>
      <point x="532.5390619999998" y="-5.3125"/>
      <point x="447.98437399999966" y="29.5625" type="curve" smooth="yes"/>
      <point x="362.42187399999966" y="64.85156199999983"/>
      <point x="289.10156199999983" y="117.59375"/>
      <point x="230.0625" y="186.3125" type="curve" smooth="yes"/>
      <point x="173.19531199999983" y="252.50781199999983"/>
      <point x="129.97656199999983" y="333.1875"/>
      <point x="101.60937399999966" y="426.11718800000017" type="curve" smooth="yes"/>
      <point x="74.66406199999983" y="514.3671880000002"/>
      <point x="61.0" y="614.25"/>
      <point x="61.0" y="722.9765619999998" type="curve" smooth="yes"/>
      <point x="61.0" y="953.8984380000002"/>
      <point x="119.29687399999966" y="1136.6015619999998"/>
      <point x="234.25781199999983" y="1266.0078119999998" type="curve" smooth="yes"/>
      <point x="293.57812399999966" y="1332.78125"/>
      <point x="367.16406199999983" y="1383.78125"/>
      <point x="452.96875" y="1417.6015619999998" type="curve" smooth="yes"/>
      <point x="536.0546859999995" y="1450.34375"/>
      <point x="630.9375" y="1466.9453119999998"/>
      <point x="734.9765619999998" y="1466.9453119999998" type="curve" smooth="yes"/>
      <point x="875.7031239999997" y="1466.9453119999998"/>
      <point x="990.0625" y="1437.15625"/>
      <point x="1084.59375" y="1375.8671880000002" type="curve" smooth="yes"/>
      <point x="1173.90625" y="1317.9609380000002"/>
      <point x="1243.5703119999998" y="1232.96875"/>
      <point x="1297.5859380000002" y="1116.0234380000002" type="curve" smooth="yes"/>
      <point x="1323.0625" y="1060.875"/>
      <point x="1299.0" y="995.5156239999997"/>
      <point x="1243.8515619999998" y="970.0468760000003" type="curve" smooth="yes"/>
      <point x="1228.9218739999997" y="963.1484380000002"/>
      <point x="1213.2343739999997" y="959.8828119999998"/>
      <point x="1197.7968739999997" y="959.8828119999998" type="curve"/>
      <point x="1156.2265619999998" y="959.875"/>
      <point x="1116.4453119999998" y="983.5625"/>
      <point x="1097.875" y="1023.78125" type="curve" smooth="yes"/>
      <point x="1061.3046859999995" y="1102.9453119999998"/>
      <point x="1019.0546859999995" y="1156.1718760000003"/>
      <point x="964.9140619999998" y="1191.2734380000002" type="curve" smooth="yes"/>
      <point x="907.125" y="1228.7421880000002"/>
      <point x="831.9140619999998" y="1246.9531239999997"/>
      <point x="734.9765619999998" y="1246.9531239999997" type="curve" smooth="yes"/>
      <point x="586.75" y="1246.9531239999997"/>
      <point x="473.625" y="1204.2109380000002"/>
      <point x="398.72656199999983" y="1119.90625" type="curve" smooth="yes"/>
      <point x="320.60937399999966" y="1031.96875"/>
      <point x="280.9921859999995" y="898.4218760000003"/>
      <point x="280.9921859999995" y="722.9765619999998" type="curve" smooth="yes"/>
      <point x="280.9921859999995" y="636.03125"/>
      <point x="291.4296859999995" y="557.7656239999997"/>
      <point x="312.01562399999966" y="490.35156199999983" type="curve" smooth="yes"/>
      <point x="331.44531199999983" y="426.69531199999983"/>
      <point x="360.01562399999966" y="372.64062399999966"/>
      <point x="396.9296859999995" y="329.67187600000034" type="curve" smooth="yes"/>
      <point x="472.5625" y="241.63281199999983"/>
      <point x="586.2968739999997" y="196.99218800000017"/>
      <point x="734.9765619999998" y="196.99218800000017" type="curve" smooth="yes"/>
      <point x="741.2421859999995" y="196.99218800000017"/>
      <point x="748.0625" y="197.21093800000017"/>
      <point x="755.2890619999998" y="197.4375" type="curve" smooth="yes"/>
      <point x="763.6953119999998" y="197.70312399999966"/>
      <point x="772.3828119999998" y="197.97656199999983"/>
      <point x="781.7031239999997" y="197.97656199999983" type="curve" smooth="yes"/>
      <point x="910.0546859999995" y="197.97656199999983"/>
      <point x="996.6953119999998" y="229.33593800000017"/>
      <point x="1046.5781239999997" y="293.83593800000017" type="curve" smooth="yes"/>
      <point x="1092.1718739999997" y="352.79687600000034"/>
      <point x="1114.3359380000002" y="444.91406199999983"/>
      <point x="1114.3359380000002" y="575.4531239999997" type="curve" smooth="yes"/>
      <point x="1114.3359380000002" y="575.5" type="line" smooth="yes"/>
      <point x="1114.3359380000002" y="578.0156239999997"/>
      <point x="1112.2656239999997" y="580.0468760000003"/>
      <point x="1109.75" y="580.0468760000003" type="curve" smooth="yes"/>
      <point x="708.96875" y="580.0468760000003" type="line" smooth="yes"/>
      <point x="647.7343739999997" y="580.0468760000003"/>
      <point x="598.1875" y="630.0859380000002"/>
      <point x="598.9843739999997" y="691.5" type="curve" smooth="yes"/>
      <point x="599.7656239999997" y="751.9531239999997"/>
      <point x="650.15625" y="800.0390619999998"/>
      <point x="710.6093739999997" y="800.0390619999998" type="curve" smooth="yes"/>
      <point x="1132.3515619999998" y="800.0390619999998" type="line" smooth="yes"/>
      <point x="1251.2734380000002" y="800.0390619999998"/>
      <point x="1334.3281239999997" y="707.6875"/>
      <point x="1334.3281239999997" y="575.4531239999997" type="curve" smooth="yes"/>
      <point x="1334.3281239999997" y="394.35156199999983"/>
      <point x="1297.125" y="258.21093800000017"/>
      <point x="1220.6015619999998" y="159.25781199999983" type="curve" smooth="yes"/>
      <point x="1127.5859380000002" y="38.97656199999983"/>
      <point x="979.9140619999998" y="-22.01562399999966"/>
      <point x="781.7031239999997" y="-22.01562399999966" type="curve" smooth="yes"/>
      <point x="775.8593739999997" y="-22.01562399999966"/>
      <point x="769.2421859999995" y="-22.21875"/>
      <point x="762.2421859999995" y="-22.44531199999983" type="curve" smooth="yes"/>
      <point x="754.0234380000002" y="-22.70312399999966"/>
      <point x="744.71875" y="-23.0"/>
    </contour>
  </outline>
</glyph>
<glyph name="H" format="2">
  <advance width="1382"/>
  <unicode hex="0048"/>
  <outline>
    <contour>
      <point x="1156.4140640000005" y="0.0" type="curve" smooth="yes"/>
      <point x="1095.6718760000003" y="0.0"/>
      <point x="1046.4218760000003" y="49.25"/>
      <point x="1046.4218760000003" y="110.0" type="curve" smooth="yes"/>
      <point x="1046.4218760000003" y="501.94531199999983" type="line" smooth="yes"/>
      <point x="1046.4218760000003" y="559.5390619999998"/>
      <point x="999.5625" y="606.3906239999997"/>
      <point x="941.9765640000005" y="606.3906239999997" type="curve" smooth="yes"/>
      <point x="438.42968800000017" y="606.3906239999997" type="line" smooth="yes"/>
      <point x="401.90625" y="606.3906239999997"/>
      <point x="365.78125" y="610.875"/>
      <point x="333.99218800000017" y="643.65625" type="curve"/>
      <point x="333.99218800000017" y="110.0" type="line" smooth="yes"/>
      <point x="333.99218800000017" y="49.25"/>
      <point x="284.74218800000017" y="0.0"/>
      <point x="223.99218800000017" y="0.0" type="curve" smooth="yes"/>
      <point x="163.24218800000017" y="0.0"/>
      <point x="114.0" y="49.25"/>
      <point x="114.0" y="110.0" type="curve" smooth="yes"/>
      <point x="114.0" y="1322.78125" type="line" smooth="yes"/>
      <point x="114.0" y="1383.53125"/>
      <point x="163.24218800000017" y="1432.78125"/>
      <point x="223.99218800000017" y="1432.78125" type="curve" smooth="yes"/>
      <point x="284.74218800000017" y="1432.78125"/>
      <point x="333.99218800000017" y="1383.53125"/>
      <point x="333.99218800000017" y="1322.78125" type="curve" smooth="yes"/>
      <point x="333.99218800000017" y="930.8281239999997" type="line" smooth="yes"/>
      <point x="333.99218800000017" y="873.2421859999995"/>
      <point x="380.84375" y="826.3828119999998"/>
      <point x="438.42968800000017" y="826.3828119999998" type="curve" smooth="yes"/>
      <point x="941.9765640000005" y="826.3828119999998" type="line" smooth="yes"/>
      <point x="978.5" y="826.3828119999998"/>
      <point x="1020.1953119999998" y="822.3593739999997"/>
      <point x="1046.4218760000003" y="789.125" type="curve"/>
      <point x="1046.4218760000003" y="1322.78125" type="line" smooth="yes"/>
      <point x="1046.4218760000003" y="1383.53125"/>
      <point x="1095.6718760000003" y="1432.78125"/>
      <point x="1156.4140640000005" y="1432.78125" type="curve" smooth="yes"/>
      <point x="1217.1640640000005" y="1432.78125"/>
      <point x="1266.4140640000005" y="1383.53125"/>
      <point x="1266.4140640000005" y="1322.78125" type="curve" smooth="yes"/>
      <point x="1266.4140640000005" y="110.0" type="line" smooth="yes"/>
      <point x="1266.4140640000005" y="49.25"/>
      <point x="1217.1640640000005" y="0.0"/>
    </contour>
  </outline>
</glyph>
<glyph name="I" format="2">
  <advance width="452"/>
  <unicode hex="0049"/>
  <outline>
    <contour>
      <point x="224.0" y="0.0" type="curve" smooth="yes"/>
      <point x="163.25" y="0.0"/>
      <point x="114.0" y="49.25"/>
      <point x="114.0" y="110.0" type="curve" smooth="yes"/>
      <point x="114.0" y="1322.78125" type="line" smooth="yes"/>
      <point x="114.0" y="1383.53125"/>
      <point x="163.25" y="1432.78125"/>
      <point x="224.0" y="1432.78125" type="curve" smooth="yes"/>
      <point x="284.75" y="1432.78125"/>
      <point x="333.9921859999995" y="1383.53125"/>
      <point x="333.9921859999995" y="1322.78125" type="curve" smooth="yes"/>
      <point x="333.9921859999995" y="110.0" type="line" smooth="yes"/>
      <point x="333.9921859999995" y="49.25"/>
      <point x="284.75" y="0.0"/>
    </contour>
  </outline>
</glyph>
<glyph name="J" format="2">
  <advance width="1082"/>
  <unicode hex="004A"/>
  <outline>
    <contour>
      <point x="504.60335460545866" y="-23.0" type="curve" smooth="yes"/>
      <point x="380.09554260545883" y="-23.0"/>
      <point x="277.87679260545883" y="9.234373999999661"/>
      <point x="200.7986666054585" y="72.8125" type="curve" smooth="yes"/>
      <point x="123.22054260545883" y="136.8046859999995"/>
      <point x="70.80647860545832" y="232.96874799999932"/>
      <point x="45.01741660545849" y="358.625" type="curve" smooth="yes"/>
      <point x="32.79866660545849" y="418.13281199999983"/>
      <point x="71.13460460545866" y="476.2812479999993"/>
      <point x="130.6424166054585" y="488.5" type="curve" smooth="yes"/>
      <point x="190.150230605459" y="500.70312399999966"/>
      <point x="248.2986666054585" y="462.375"/>
      <point x="260.50960460545866" y="402.8671859999995" type="curve" smooth="yes"/>
      <point x="276.16585460545866" y="326.6171859999995"/>
      <point x="302.4236666054585" y="274.17187399999966"/>
      <point x="340.79085460545866" y="242.5234359999995" type="curve" smooth="yes"/>
      <point x="377.9314786054583" y="211.88281199999983"/>
      <point x="431.5174166054585" y="196.9921859999995"/>
      <point x="504.60335460545866" y="196.9921859999995" type="curve" smooth="yes"/>
      <point x="562.025230605459" y="196.9921859999995"/>
      <point x="644.0955426054588" y="204.0234359999995"/>
      <point x="693.6892926054588" y="264.85156199999983" type="curve" smooth="yes"/>
      <point x="736.1814786054583" y="316.97656199999983"/>
      <point x="757.7283546054587" y="407.72656199999983"/>
      <point x="757.7283546054587" y="534.5859359999995" type="curve" smooth="yes"/>
      <point x="757.7283546054587" y="1328.3593739999997" type="line" smooth="yes"/>
      <point x="757.7283546054587" y="1389.1093739999997"/>
      <point x="806.9783546054587" y="1438.3593739999997"/>
      <point x="867.7283546054587" y="1438.3593739999997" type="curve" smooth="yes"/>
      <point x="928.4705426054588" y="1438.3593739999997"/>
      <point x="977.7205426054588" y="1389.1093739999997"/>
      <point x="977.7205426054588" y="1328.3593739999997" type="curve" smooth="yes"/>
      <point x="977.7205426054588" y="534.5859359999995" type="line" smooth="yes"/>
      <point x="977.7205426054588" y="353.25"/>
      <point x="940.587730605459" y="219.54687399999966"/>
      <point x="864.1971046054587" y="125.84374799999932" type="curve" smooth="yes"/>
      <point x="783.6736666054585" y="27.07812399999966"/>
      <point x="662.6892926054588" y="-23.0"/>
    </contour>
  </outline>
</glyph>
<glyph name="K" format="2">
  <advance width="1219"/>
  <unicode hex="004B"/>
  <outline>
    <contour>
      <point x="223.992188000022" y="0.0" type="curve" smooth="yes"/>
      <point x="212.59375000002183" y="0.0"/>
      <point x="201.054688000022" y="1.7734380000001693"/>
      <point x="189.742188000022" y="5.476564000000508" type="curve" smooth="yes"/>
      <point x="144.148438000022" y="20.39843800000017"/>
      <point x="114.00000000002183" y="63.86718800000017"/>
      <point x="114.00000000002183" y="111.84375200000068" type="curve" smooth="yes"/>
      <point x="114.00000000002183" y="1321.1484380000002" type="line" smooth="yes"/>
      <point x="114.00000000002183" y="1381.6015640000005"/>
      <point x="162.085938000022" y="1431.9843760000003"/>
      <point x="222.53125000002183" y="1432.7734380000002" type="curve" smooth="yes"/>
      <point x="283.95312600002217" y="1433.5703140000005"/>
      <point x="333.992188000022" y="1384.0234380000002"/>
      <point x="333.992188000022" y="1322.7890640000005" type="curve" smooth="yes"/>
      <point x="333.992188000022" y="521.6171880000002" type="line" smooth="yes"/>
      <point x="333.992188000022" y="511.60937600000034"/>
      <point x="347.04687600002217" y="507.80468800000017"/>
      <point x="352.42187600002217" y="516.2421880000002" type="curve" smooth="yes"/>
      <point x="904.023438000022" y="1381.8984380000002" type="line" smooth="yes"/>
      <point x="936.3437500000218" y="1432.6171880000002"/>
      <point x="1003.4062500000218" y="1447.9765640000005"/>
      <point x="1054.5781260000222" y="1416.3828140000005" type="curve" smooth="yes"/>
      <point x="1105.7500000000218" y="1384.7890640000005"/>
      <point x="1122.0625000000218" y="1317.9609380000002"/>
      <point x="1091.2031260000222" y="1266.3437520000007" type="curve" smooth="yes"/>
      <point x="847.6250000000218" y="858.9375" type="line" smooth="yes"/>
      <point x="846.8203140000223" y="857.5937520000007"/>
      <point x="845.992188000022" y="856.2734380000002"/>
      <point x="845.1406260000222" y="854.9765640000005" type="curve" smooth="yes"/>
      <point x="817.8906260000222" y="813.5078140000005"/>
      <point x="804.1328140000223" y="765.3593760000003"/>
      <point x="805.3515620000217" y="715.75" type="curve" smooth="yes"/>
      <point x="806.5781260000222" y="666.1406260000003"/>
      <point x="822.6953140000223" y="618.7343760000003"/>
      <point x="851.960938000022" y="578.6562520000007" type="curve" smooth="yes"/>
      <point x="1146.8125000000218" y="174.86718800000017" type="line" smooth="yes"/>
      <point x="1182.6328140000223" y="125.8125"/>
      <point x="1171.9062500000218" y="56.99218800000017"/>
      <point x="1122.8437500000218" y="21.17187600000034" type="curve" smooth="yes"/>
      <point x="1073.7812500000218" y="-14.656247999999323"/>
      <point x="1004.9687500000218" y="-3.9218739999996615"/>
      <point x="969.1406260000222" y="45.13281400000051" type="curve" smooth="yes"/>
      <point x="674.2968760000222" y="448.92187600000034" type="line" smooth="yes"/>
      <point x="654.6562500000218" y="475.8203140000005"/>
      <point x="640.992188000022" y="505.79687600000034"/>
      <point x="631.2500000000218" y="549.6953140000005" type="curve"/>
      <point x="316.75781400002234" y="50.89062600000034" type="line" smooth="yes"/>
      <point x="296.19531400002234" y="18.61718800000017"/>
      <point x="260.8750000000218" y="0.0"/>
    </contour>
  </outline>
</glyph>
<glyph name="L" format="2">
  <advance width="1096"/>
  <unicode hex="004C"/>
  <outline>
    <contour>
      <point x="333.9921859999995" y="110.0" type="line"/>
      <point x="334.01562399999966" y="110.0" type="line"/>
    </contour>
    <contour>
      <point x="951.2421859999995" y="0.0" type="curve" smooth="yes"/>
      <point x="224.0" y="0.0" type="line" smooth="yes"/>
      <point x="163.25" y="0.0"/>
      <point x="114.0" y="49.25"/>
      <point x="114.0" y="110.0" type="curve" smooth="yes"/>
      <point x="114.0" y="1322.78125" type="line" smooth="yes"/>
      <point x="114.0" y="1383.53125"/>
      <point x="163.25" y="1432.78125"/>
      <point x="223.9921859999995" y="1432.78125" type="curve" smooth="yes"/>
      <point x="284.7421859999995" y="1432.78125"/>
      <point x="333.9921859999995" y="1383.53125"/>
      <point x="333.9921859999995" y="1322.78125" type="curve" smooth="yes"/>
      <point x="333.9921859999995" y="229.9921859999995" type="line" smooth="yes"/>
      <point x="333.9921859999995" y="224.46875"/>
      <point x="338.4687479999993" y="219.9921859999995"/>
      <point x="343.9921859999995" y="219.9921859999995" type="curve" smooth="yes"/>
      <point x="952.8828119999998" y="219.9921859999995" type="line" smooth="yes"/>
      <point x="1014.1171859999995" y="219.9921859999995"/>
      <point x="1063.6718739999997" y="169.96093800000017"/>
      <point x="1062.875" y="108.53906199999983" type="curve" smooth="yes"/>
      <point x="1062.0859359999995" y="48.09375"/>
      <point x="1011.6953119999998" y="0.0"/>
    </contour>
  </outline>
</glyph>
<glyph name="M" format="2">
  <advance width="1655"/>
  <unicode hex="004D"/>
  <outline>
    <contour>
      <point x="1536.492188000022" y="1309.6744235413735" type="curve"/>
      <point x="1535.617188000022" y="1304.3150475413731"/>
      <point x="1534.335938000022" y="1298.9947355413733"/>
      <point x="1532.6406260000222" y="1293.7525475413731" type="curve"/>
      <point x="1534.5781260000222" y="1299.7369235413735"/>
      <point x="1535.7656260000222" y="1305.1587995413738"/>
    </contour>
    <contour>
      <point x="1521.1875000000218" y="1269.2212995413738" type="curve"/>
      <point x="1521.1875000000218" y="1269.2134855413733"/>
      <point x="1521.179688000022" y="1269.2056735413735"/>
      <point x="1521.179688000022" y="1269.1978615413736" type="curve"/>
      <point x="1521.179688000022" y="1269.2056735413735"/>
      <point x="1521.1875000000218" y="1269.2134855413733"/>
    </contour>
    <contour>
      <point x="1521.117188000022" y="1269.0962995413738" type="curve"/>
      <point x="1521.0937500000218" y="1269.0650475413731"/>
      <point x="1521.0781260000222" y="1269.0416115413736"/>
      <point x="1521.054688000022" y="1269.0103615413736" type="curve"/>
      <point x="1521.0781260000222" y="1269.0337995413738"/>
      <point x="1521.0937500000218" y="1269.0650475413731"/>
    </contour>
    <contour>
      <point x="1521.0390620000217" y="1268.9712995413738" type="curve"/>
      <point x="1520.2578140000223" y="1267.7369235413735"/>
      <point x="1519.4453140000223" y="1266.5103615413736"/>
      <point x="1518.617188000022" y="1265.2916115413736" type="curve"/>
      <point x="1518.5625000000218" y="1265.2212995413738" type="line"/>
      <point x="1519.429688000022" y="1266.4712995413738"/>
      <point x="1520.2500000000218" y="1267.7212995413738"/>
    </contour>
    <contour>
      <point x="1426.0390620000217" y="-0.005264458626697888" type="curve" smooth="yes"/>
      <point x="1364.6250000000218" y="-0.8021384586263594"/>
      <point x="1314.585938000022" y="48.7447355413733"/>
      <point x="1314.585938000022" y="109.97911154137364" type="curve" smooth="yes"/>
      <point x="1314.585938000022" y="113.01817354137347"/>
      <point x="1314.5937500000218" y="416.72911154137364"/>
      <point x="1315.0078140000223" y="717.1275475413731" type="curve" smooth="yes"/>
      <point x="1315.117188000022" y="798.0728615413736"/>
      <point x="1315.2500000000218" y="871.5181735413735"/>
      <point x="1315.398438000022" y="937.0962995413738" type="curve" smooth="yes"/>
      <point x="1315.4218760000222" y="946.9322355413733"/>
      <point x="1302.7187500000218" y="950.8697355413733"/>
      <point x="1297.1562500000218" y="942.7681735413735" type="curve" smooth="yes"/>
      <point x="988.585938000022" y="493.3697355413733" type="line"/>
      <point x="955.7031260000222" y="429.26817354137347"/>
      <point x="938.3203140000223" y="342.14317354137347"/>
      <point x="936.8828140000223" y="234.29161154137364" type="curve" smooth="yes"/>
      <point x="936.0781260000222" y="174.1197355413733"/>
      <point x="887.0703140000223" y="125.76036154137364"/>
      <point x="826.898438000022" y="125.76036154137364" type="curve" smooth="yes"/>
      <point x="826.0703140000223" y="125.76036154137364" type="line" smooth="yes"/>
      <point x="765.3203140000223" y="125.76036154137364"/>
      <point x="716.0703140000223" y="175.00254754137313"/>
      <point x="716.0703140000223" y="235.75254754137313" type="curve" smooth="yes"/>
      <point x="716.0703140000223" y="240.5259855413733"/>
      <point x="716.3750000000218" y="245.22911154137364"/>
      <point x="716.9687500000218" y="249.8384855413733" type="curve"/>
      <point x="717.8593760000222" y="327.39317354137347"/>
      <point x="716.429688000022" y="420.3462995413738"/>
      <point x="665.898438000022" y="489.14317354137347" type="curve" smooth="yes"/>
      <point x="665.2656260000222" y="490.01036154137364"/>
      <point x="664.648438000022" y="490.87754754137313"/>
      <point x="664.0390620000217" y="491.76036154137364" type="curve" smooth="yes"/>
      <point x="352.2187500000218" y="943.4244235413735" type="line" smooth="yes"/>
      <point x="346.648438000022" y="951.5025475413731"/>
      <point x="333.992188000022" y="947.5572355413733"/>
      <point x="333.992188000022" y="937.7447355413733" type="curve" smooth="yes"/>
      <point x="333.992188000022" y="111.6197355413733" type="line" smooth="yes"/>
      <point x="333.992188000022" y="51.17442354137347"/>
      <point x="285.9062500000218" y="0.7837995413738099"/>
      <point x="225.460938000022" y="-0.005264458626697888" type="curve" smooth="yes"/>
      <point x="164.03906200002166" y="-0.8021384586263594"/>
      <point x="114.00000000002183" y="48.7447355413733"/>
      <point x="114.00000000002183" y="109.97911154137364" type="curve" smooth="yes"/>
      <point x="114.00000000002183" y="1322.7681735413735" type="line" smooth="yes"/>
      <point x="114.00000000002183" y="1370.9087995413738"/>
      <point x="145.304688000022" y="1413.4556735413735"/>
      <point x="191.26562600002217" y="1427.7837995413738" type="curve" smooth="yes"/>
      <point x="237.22656200002166" y="1442.1041115413736"/>
      <point x="287.16406200002166" y="1424.8775475413731"/>
      <point x="314.51562600002217" y="1385.2603615413736" type="curve" smooth="yes"/>
      <point x="825.7031260000222" y="644.8072355413733" type="line"/>
      <point x="1336.929688000022" y="1389.3306735413735" type="line" smooth="yes"/>
      <point x="1337.2265620000217" y="1389.7759855413733"/>
      <point x="1337.5390620000217" y="1390.2291115413736"/>
      <point x="1337.8515620000217" y="1390.6744235413735" type="curve" smooth="yes"/>
      <point x="1372.5937500000218" y="1440.2525475413731"/>
      <point x="1440.8750000000218" y="1452.4478615413736"/>
      <point x="1490.6250000000218" y="1417.9400475413731" type="curve" smooth="yes"/>
      <point x="1524.4531260000222" y="1394.4712995413738"/>
      <point x="1541.0625000000218" y="1355.4166115413736"/>
      <point x="1537.4531260000222" y="1317.1275475413731" type="curve"/>
      <point x="1535.3515620000217" y="1254.4244235413735"/>
      <point x="1534.5781260000222" y="566.5416115413736"/>
      <point x="1534.5781260000222" y="111.61192354137347" type="curve" smooth="yes"/>
      <point x="1534.5781260000222" y="51.15879954137381"/>
      <point x="1486.492188000022" y="0.7837995413738099"/>
    </contour>
  </outline>
</glyph>
<glyph name="N" format="2">
  <advance width="1382"/>
  <unicode hex="004E"/>
  <outline>
    <contour>
      <point x="1132.4609380000002" y="-0.014743794308742508" type="curve" smooth="yes"/>
      <point x="1098.46875" y="-0.014743794308742508"/>
      <point x="1065.5859380000002" y="15.782132205691596"/>
      <point x="1044.4140619999998" y="44.04775620569126" type="curve" smooth="yes"/>
      <point x="351.99218800000017" y="968.4227562056913" type="line" smooth="yes"/>
      <point x="346.22656199999983" y="976.1180702056918"/>
      <point x="333.99218800000017" y="972.0399442056914"/>
      <point x="333.99218800000017" y="962.4305702056918" type="curve" smooth="yes"/>
      <point x="333.99218800000017" y="111.63369420569143" type="line" smooth="yes"/>
      <point x="333.99218800000017" y="51.180570205691765"/>
      <point x="285.89843800000017" y="0.7899442056914268"/>
      <point x="225.45312399999966" y="0.00869420569142676" type="curve" smooth="yes"/>
      <point x="164.03125" y="-0.7881797943082347"/>
      <point x="114.0" y="48.75869420569143"/>
      <point x="114.0" y="109.99307020569177" type="curve" smooth="yes"/>
      <point x="114.0" y="1322.7743202056918" type="line" smooth="yes"/>
      <point x="114.0" y="1370.1336942056914"/>
      <point x="144.30468800000017" y="1412.1727562056913"/>
      <point x="189.24218800000017" y="1427.1336942056914" type="curve" smooth="yes"/>
      <point x="234.17187600000034" y="1442.0946322056916"/>
      <point x="283.63281199999983" y="1426.6258822056916"/>
      <point x="312.03125" y="1388.7196322056916" type="curve" smooth="yes"/>
      <point x="1004.4453119999998" y="464.3446322056916" type="line" smooth="yes"/>
      <point x="1010.2109380000002" y="456.64932020569177"/>
      <point x="1022.4531239999997" y="460.7274442056914"/>
      <point x="1022.4531239999997" y="470.33682020569177" type="curve" smooth="yes"/>
      <point x="1022.4531239999997" y="1321.1336942056914" type="line" smooth="yes"/>
      <point x="1022.4531239999997" y="1381.5868202056918"/>
      <point x="1070.5390619999998" y="1431.9774442056914"/>
      <point x="1130.9843760000003" y="1432.7586942056914" type="curve" smooth="yes"/>
      <point x="1192.40625" y="1433.5555702056918"/>
      <point x="1242.4453119999998" y="1384.0086942056914"/>
      <point x="1242.4453119999998" y="1322.7743202056918" type="curve" smooth="yes"/>
      <point x="1242.4453119999998" y="111.75869420569143" type="line" smooth="yes"/>
      <point x="1242.4453119999998" y="63.938382205691596"/>
      <point x="1212.4453119999998" y="20.625882205691596"/>
      <point x="1167.0468760000003" y="5.579008205691935" type="curve" smooth="yes"/>
      <point x="1155.6718760000003" y="1.8055702056917653"/>
      <point x="1144.0" y="-0.014743794308742508"/>
    </contour>
  </outline>
</glyph>
<glyph name="O" format="2">
  <advance width="1469"/>
  <unicode hex="004F"/>
  <outline>
    <contour>
      <point x="734.9765640000005" y="1246.9531239999997" type="curve" smooth="yes"/>
      <point x="586.75" y="1246.9531239999997"/>
      <point x="473.61718800000017" y="1204.2109380000002"/>
      <point x="398.7265640000005" y="1119.90625" type="curve" smooth="yes"/>
      <point x="320.6015640000005" y="1031.9609380000002"/>
      <point x="280.99218800000017" y="898.4218760000003"/>
      <point x="280.99218800000017" y="722.9765619999998" type="curve" smooth="yes"/>
      <point x="280.99218800000017" y="636.03125"/>
      <point x="291.42968800000017" y="557.7734380000002"/>
      <point x="312.01562600000034" y="490.35156199999983" type="curve" smooth="yes"/>
      <point x="331.4453140000005" y="426.69531199999983"/>
      <point x="360.01562600000034" y="372.64062399999966"/>
      <point x="396.92968800000017" y="329.67187600000034" type="curve" smooth="yes"/>
      <point x="472.55468800000017" y="241.63281199999983"/>
      <point x="586.2968760000003" y="196.99218800000017"/>
      <point x="734.9765640000005" y="196.99218800000017" type="curve" smooth="yes"/>
      <point x="883.6562520000007" y="196.99218800000017"/>
      <point x="997.3984380000002" y="241.63281199999983"/>
      <point x="1073.0234380000002" y="329.67187600000034" type="curve" smooth="yes"/>
      <point x="1109.9375" y="372.64062399999966"/>
      <point x="1138.5078140000005" y="426.69531199999983"/>
      <point x="1157.9375" y="490.35156199999983" type="curve" smooth="yes"/>
      <point x="1178.5234380000002" y="557.7734380000002"/>
      <point x="1188.9609380000002" y="636.03125"/>
      <point x="1188.9609380000002" y="722.9765619999998" type="curve" smooth="yes"/>
      <point x="1188.9609380000002" y="898.4218760000003"/>
      <point x="1149.3515640000005" y="1031.9609380000002"/>
      <point x="1071.2265640000005" y="1119.90625" type="curve" smooth="yes"/>
      <point x="996.3359380000002" y="1204.2109380000002"/>
      <point x="883.2031260000003" y="1246.9531239999997"/>
    </contour>
    <contour>
      <point x="734.9765640000005" y="-23.0" type="curve" smooth="yes"/>
      <point x="629.1015640000005" y="-23.0"/>
      <point x="532.5390640000005" y="-5.3125"/>
      <point x="447.98437600000034" y="29.5625" type="curve" smooth="yes"/>
      <point x="362.42187600000034" y="64.85156199999983"/>
      <point x="289.0937520000007" y="117.59375"/>
      <point x="230.05468800000017" y="186.3125" type="curve" smooth="yes"/>
      <point x="173.1953140000005" y="252.50781199999983"/>
      <point x="129.9765640000005" y="333.1875"/>
      <point x="101.60937600000034" y="426.11718800000017" type="curve" smooth="yes"/>
      <point x="74.66406400000051" y="514.3671880000002"/>
      <point x="61.0" y="614.25"/>
      <point x="61.0" y="722.9765619999998" type="curve" smooth="yes"/>
      <point x="61.0" y="953.8984380000002"/>
      <point x="119.29687600000034" y="1136.6015619999998"/>
      <point x="234.2578140000005" y="1266.0078119999998" type="curve" smooth="yes"/>
      <point x="293.57812600000034" y="1332.78125"/>
      <point x="367.1640640000005" y="1383.78125"/>
      <point x="452.9687520000007" y="1417.6015619999998" type="curve" smooth="yes"/>
      <point x="536.0546880000002" y="1450.34375"/>
      <point x="630.9375" y="1466.9453119999998"/>
      <point x="734.9765640000005" y="1466.9453119999998" type="curve" smooth="yes"/>
      <point x="839.0156260000003" y="1466.9453119999998"/>
      <point x="933.8984380000002" y="1450.34375"/>
      <point x="1016.9843760000003" y="1417.6015619999998" type="curve" smooth="yes"/>
      <point x="1102.7890640000005" y="1383.78125"/>
      <point x="1176.375" y="1332.78125"/>
      <point x="1235.6953140000005" y="1266.0078119999998" type="curve" smooth="yes"/>
      <point x="1350.6562520000007" y="1136.6015619999998"/>
      <point x="1408.9531260000003" y="953.8984380000002"/>
      <point x="1408.9531260000003" y="722.9765619999998" type="curve" smooth="yes"/>
      <point x="1408.9531260000003" y="614.25"/>
      <point x="1395.2890640000005" y="514.3671880000002"/>
      <point x="1368.3437520000007" y="426.11718800000017" type="curve" smooth="yes"/>
      <point x="1339.9765640000005" y="333.1875"/>
      <point x="1296.7578140000005" y="252.50781199999983"/>
      <point x="1239.8984380000002" y="186.3125" type="curve" smooth="yes"/>
      <point x="1180.8593760000003" y="117.59375"/>
      <point x="1107.5312520000007" y="64.85156199999983"/>
      <point x="1021.9687520000007" y="29.5625" type="curve" smooth="yes"/>
      <point x="937.4140640000005" y="-5.3125"/>
      <point x="840.8515640000005" y="-23.0"/>
    </contour>
  </outline>
</glyph>
<glyph name="P" format="2">
  <advance width="1220"/>
  <unicode hex="0050"/>
  <outline>
    <contour>
      <point x="333.99218800000017" y="706.8906260000003" type="line"/>
      <point x="658.6406239999997" y="706.8906260000003" type="line" smooth="yes"/>
      <point x="746.875" y="706.8906260000003"/>
      <point x="822.96875" y="729.1015640000005"/>
      <point x="872.8828119999998" y="769.4296880000002" type="curve" smooth="yes"/>
      <point x="919.84375" y="807.3515640000005"/>
      <point x="943.65625" y="861.0"/>
      <point x="943.65625" y="928.8671880000002" type="curve" smooth="yes"/>
      <point x="943.65625" y="973.8359380000002"/>
      <point x="936.4296880000002" y="1058.8984380000002"/>
      <point x="888.0078119999998" y="1123.3359380000002" type="curve" smooth="yes"/>
      <point x="841.5703119999998" y="1185.1328140000005"/>
      <point x="766.5390619999998" y="1215.1718760000003"/>
      <point x="658.6406239999997" y="1215.1718760000003" type="curve" smooth="yes"/>
      <point x="333.99218800000017" y="1215.1718760000003" type="line"/>
    </contour>
    <contour>
      <point x="224.0" y="0.0" type="curve" smooth="yes"/>
      <point x="163.25" y="0.0"/>
      <point x="114.0" y="49.24218800000017"/>
      <point x="114.0" y="109.99218800000017" type="curve" smooth="yes"/>
      <point x="114.0" y="1325.1718760000003" type="line" smooth="yes"/>
      <point x="114.0" y="1385.9218760000003"/>
      <point x="163.25" y="1435.1640640000005"/>
      <point x="224.0" y="1435.1640640000005" type="curve" smooth="yes"/>
      <point x="658.6406239999997" y="1435.1640640000005" type="line" smooth="yes"/>
      <point x="881.9843760000003" y="1435.1640640000005"/>
      <point x="1002.2890619999998" y="1337.4531260000003"/>
      <point x="1063.8828119999998" y="1255.4843760000003" type="curve" smooth="yes"/>
      <point x="1099.6406239999997" y="1207.9062520000007"/>
      <point x="1126.28125" y="1152.0625"/>
      <point x="1143.0859380000002" y="1089.5156260000003" type="curve" smooth="yes"/>
      <point x="1156.7265619999998" y="1038.7187520000007"/>
      <point x="1163.6484380000002" y="984.6718760000003"/>
      <point x="1163.6484380000002" y="928.8671880000002" type="curve" smooth="yes"/>
      <point x="1163.6484380000002" y="861.2109380000002"/>
      <point x="1150.2421880000002" y="798.1875"/>
      <point x="1123.7968760000003" y="741.5546880000002" type="curve" smooth="yes"/>
      <point x="1097.7968760000003" y="685.8828140000005"/>
      <point x="1059.8906239999997" y="637.6796880000002"/>
      <point x="1011.125" y="598.2890640000005" type="curve" smooth="yes"/>
      <point x="920.9140619999998" y="525.4218760000003"/>
      <point x="799.0234380000002" y="486.89843800000017"/>
      <point x="658.6406239999997" y="486.89843800000017" type="curve" smooth="yes"/>
      <point x="333.99218800000017" y="486.89843800000017" type="line"/>
      <point x="333.99218800000017" y="109.99218800000017" type="line" smooth="yes"/>
      <point x="333.99218800000017" y="49.24218800000017"/>
      <point x="284.75" y="0.0"/>
    </contour>
  </outline>
</glyph>
<glyph name="Q" format="2">
  <advance width="1469"/>
  <unicode hex="0051"/>
  <outline>
    <contour>
      <point x="734.9687500000218" y="1269.2265619999998" type="curve" smooth="yes"/>
      <point x="586.7500000000218" y="1269.2265619999998"/>
      <point x="473.617188000022" y="1226.4765619999998"/>
      <point x="398.7187500000218" y="1142.1718760000003" type="curve" smooth="yes"/>
      <point x="320.60156200002166" y="1054.2343760000003"/>
      <point x="280.992188000022" y="920.6875"/>
      <point x="280.992188000022" y="745.2421880000002" type="curve" smooth="yes"/>
      <point x="280.992188000022" y="658.3046880000002"/>
      <point x="291.42187600002217" y="580.0390619999998"/>
      <point x="312.00781200002166" y="512.6171880000002" type="curve" smooth="yes"/>
      <point x="331.44531200002166" y="448.96875"/>
      <point x="360.00781200002166" y="394.90625"/>
      <point x="396.92187600002217" y="351.9375" type="curve" smooth="yes"/>
      <point x="472.554688000022" y="263.89843800000017"/>
      <point x="586.2890620000217" y="219.26562399999966"/>
      <point x="734.9687500000218" y="219.26562399999966" type="curve" smooth="yes"/>
      <point x="769.3593760000222" y="219.26562399999966"/>
      <point x="803.7890620000217" y="225.39843800000017"/>
      <point x="837.3125000000218" y="237.49218800000017" type="curve" smooth="yes"/>
      <point x="860.6640620000217" y="245.92187600000034"/>
      <point x="884.1875000000218" y="252.23437600000034"/>
      <point x="907.6562500000218" y="256.42187600000034" type="curve"/>
      <point x="894.148438000022" y="277.70312399999966"/>
      <point x="879.9765620000217" y="299.85937600000034"/>
      <point x="865.9140620000217" y="321.73437600000034" type="curve"/>
      <point x="860.9765620000217" y="328.14062399999966"/>
      <point x="856.2968760000222" y="334.77343800000017"/>
      <point x="851.8750000000218" y="341.66406199999983" type="curve" smooth="yes"/>
      <point x="753.617188000022" y="494.60937600000034" type="line" smooth="yes"/>
      <point x="720.9062500000218" y="545.5390619999998"/>
      <point x="735.4843760000222" y="613.3281239999997"/>
      <point x="786.2500000000218" y="646.3046880000002" type="curve" smooth="yes"/>
      <point x="837.0078120000217" y="679.28125"/>
      <point x="904.8750000000218" y="665.0390619999998"/>
      <point x="938.1015620000217" y="614.4531239999997" type="curve" smooth="yes"/>
      <point x="941.367188000022" y="609.4765619999998"/>
      <point x="990.804688000022" y="534.1875"/>
      <point x="1044.2812500000218" y="451.10937600000034" type="curve"/>
      <point x="1061.7187500000218" y="432.46093800000017"/>
      <point x="1083.960938000022" y="431.98437600000034"/>
      <point x="1093.585938000022" y="432.82812399999966" type="curve" smooth="yes"/>
      <point x="1104.5000000000218" y="433.78125"/>
      <point x="1131.2578120000217" y="439.25781199999983"/>
      <point x="1143.9062500000218" y="469.46093800000017" type="curve" smooth="yes"/>
      <point x="1183.1015620000217" y="563.0625"/>
      <point x="1188.9531240000215" y="682.4218760000003"/>
      <point x="1188.9531240000215" y="745.2421880000002" type="curve" smooth="yes"/>
      <point x="1188.9531240000215" y="920.6875"/>
      <point x="1149.3437500000218" y="1054.2343760000003"/>
      <point x="1071.2265620000217" y="1142.1718760000003" type="curve" smooth="yes"/>
      <point x="996.3281240000215" y="1226.4765619999998"/>
      <point x="883.1953120000217" y="1269.2265619999998"/>
    </contour>
    <contour>
      <point x="1265.773438000022" y="-224.0" type="curve" smooth="yes"/>
      <point x="1230.7890620000217" y="-224.0"/>
      <point x="1196.4375000000218" y="-207.33593800000017"/>
      <point x="1175.1328120000217" y="-176.44531199999983" type="curve" smooth="yes"/>
      <point x="1137.4687500000218" y="-121.83593800000017"/>
      <point x="1099.429688000022" y="-59.14843800000017"/>
      <point x="1056.5703120000217" y="12.40625" type="curve"/>
      <point x="1031.679688000022" y="37.92187600000034"/>
      <point x="981.835938000022" y="55.76562399999966"/>
      <point x="911.9843760000222" y="30.5625" type="curve" smooth="yes"/>
      <point x="854.4453120000217" y="9.796876000000339"/>
      <point x="794.8906240000215" y="-0.7265619999998307"/>
      <point x="734.9687500000218" y="-0.7265619999998307" type="curve" smooth="yes"/>
      <point x="629.0937500000218" y="-0.7265619999998307"/>
      <point x="532.5312500000218" y="16.95312399999966"/>
      <point x="447.97656200002166" y="51.82812399999966" type="curve" smooth="yes"/>
      <point x="362.41406200002166" y="87.11718800000017"/>
      <point x="289.0937500000218" y="139.85937600000034"/>
      <point x="230.054688000022" y="208.57812399999966" type="curve" smooth="yes"/>
      <point x="173.19531200002166" y="274.77343800000017"/>
      <point x="129.97656200002166" y="355.45312399999966"/>
      <point x="101.60156200002166" y="448.38281199999983" type="curve" smooth="yes"/>
      <point x="74.65625000002183" y="536.6406239999997"/>
      <point x="61.00000000002183" y="636.5156239999997"/>
      <point x="61.00000000002183" y="745.2421880000002" type="curve" smooth="yes"/>
      <point x="61.00000000002183" y="976.1640619999998"/>
      <point x="119.28906200002166" y="1158.8671880000002"/>
      <point x="234.25781200002166" y="1288.28125" type="curve" smooth="yes"/>
      <point x="293.57031200002166" y="1355.0468760000003"/>
      <point x="367.1562500000218" y="1406.0546880000002"/>
      <point x="452.960938000022" y="1439.8671880000002" type="curve" smooth="yes"/>
      <point x="536.0468760000222" y="1472.6171880000002"/>
      <point x="630.929688000022" y="1489.21875"/>
      <point x="734.9687500000218" y="1489.21875" type="curve" smooth="yes"/>
      <point x="839.0156240000215" y="1489.21875"/>
      <point x="933.898438000022" y="1472.6171880000002"/>
      <point x="1016.9843760000222" y="1439.8671880000002" type="curve" smooth="yes"/>
      <point x="1102.7890620000217" y="1406.0546880000002"/>
      <point x="1176.3750000000218" y="1355.0468760000003"/>
      <point x="1235.6875000000218" y="1288.28125" type="curve" smooth="yes"/>
      <point x="1350.6562500000218" y="1158.8671880000002"/>
      <point x="1408.9453120000217" y="976.1640619999998"/>
      <point x="1408.9453120000217" y="745.2421880000002" type="curve" smooth="yes"/>
      <point x="1408.9453120000217" y="648.34375"/>
      <point x="1398.1718760000222" y="507.10156199999983"/>
      <point x="1346.8203120000217" y="384.49218800000017" type="curve" smooth="yes"/>
      <point x="1326.2031240000215" y="335.23437600000034"/>
      <point x="1292.5781240000215" y="293.29687600000034"/>
      <point x="1249.6093760000222" y="263.22656199999983" type="curve" smooth="yes"/>
      <point x="1229.1093760000222" y="248.88281199999983"/>
      <point x="1206.742188000022" y="237.39843800000017"/>
      <point x="1183.1875000000218" y="229.00781199999983" type="curve"/>
      <point x="1199.5078120000217" y="201.98437600000034"/>
      <point x="1214.9453120000217" y="176.17187600000034"/>
      <point x="1229.3828120000217" y="152.03906199999983" type="curve" smooth="yes"/>
      <point x="1231.7187500000218" y="148.13281199999983"/>
      <point x="1234.0390620000217" y="144.25"/>
      <point x="1236.3437500000218" y="140.39843800000017" type="curve"/>
      <point x="1237.7578120000217" y="138.57031199999983"/>
      <point x="1239.148438000022" y="136.72656199999983"/>
      <point x="1240.523438000022" y="134.86718800000017" type="curve" smooth="yes"/>
      <point x="1242.2812500000218" y="132.48437600000034"/>
      <point x="1243.9375000000218" y="130.03125"/>
      <point x="1245.5000000000218" y="127.51562399999966" type="curve" smooth="yes"/>
      <point x="1359.1953120000217" y="-56.07812399999966" type="line" smooth="yes"/>
      <point x="1390.6250000000218" y="-106.82812399999966"/>
      <point x="1375.8437500000218" y="-173.38281199999983"/>
      <point x="1325.8828120000217" y="-206.05468800000017" type="curve" smooth="yes"/>
      <point x="1307.3281240000215" y="-218.1875"/>
      <point x="1286.4453120000217" y="-224.0"/>
    </contour>
  </outline>
</glyph>
<glyph name="R" format="2">
  <advance width="1249"/>
  <unicode hex="0052"/>
  <outline>
    <contour>
      <point x="1092.1250000000002" y="-0.013076411747533712" type="curve" smooth="yes"/>
      <point x="1062.796874" y="-0.013076411747533712"/>
      <point x="1033.539062" y="11.643173588252466"/>
      <point x="1011.8906239999999" y="34.7134855882523" type="curve" smooth="yes"/>
      <point x="942.4531239999999" y="108.70567358825247"/>
      <point x="608.2578120000001" y="506.5884855882523"/>
      <point x="456.78125" y="687.7369235882525" type="curve" smooth="yes"/>
      <point x="415.75781200000006" y="736.7994235882525"/>
      <point x="422.75" y="809.9166115882526"/>
      <point x="472.32031200000006" y="850.3306735882525" type="curve" smooth="yes"/>
      <point x="517.28125" y="886.9869235882525"/>
      <point x="582.6015620000001" y="884.4087975882521"/>
      <point x="624.367186" y="844.1509855882523" type="curve" smooth="yes"/>
      <point x="659.0703120000001" y="810.7056735882525"/>
      <point x="698.367186" y="775.2056735882525"/>
      <point x="722.4843740000001" y="760.9712975882521" type="curve" smooth="yes"/>
      <point x="795.5390620000001" y="717.8384855882523"/>
      <point x="831.9531239999999" y="740.8306735882525"/>
      <point x="847.5000000000002" y="750.6509855882523" type="curve" smooth="yes"/>
      <point x="898.2109379999999" y="782.6666115882526"/>
      <point x="933.6328120000001" y="868.3541115882526"/>
      <point x="933.6328120000001" y="959.0181735882525" type="curve" smooth="yes"/>
      <point x="933.6328120000001" y="981.0650475882521"/>
      <point x="929.3828120000001" y="1057.9712975882521"/>
      <point x="874.7656239999999" y="1122.1119235882525" type="curve" smooth="yes"/>
      <point x="823.5468739999999" y="1182.2681735882525"/>
      <point x="742.4765620000001" y="1212.7681735882525"/>
      <point x="633.8125" y="1212.7681735882525" type="curve" smooth="yes"/>
      <point x="333.99218599999995" y="1212.7681735882525" type="line"/>
      <point x="333.99218599999995" y="111.6197355882523" type="line" smooth="yes"/>
      <point x="333.99218599999995" y="51.166611588252636"/>
      <point x="285.89843800000017" y="0.7837975882521278"/>
      <point x="225.45312400000012" y="-0.0052644117477029795" type="curve" smooth="yes"/>
      <point x="164.03906200000006" y="-0.8021404117480415"/>
      <point x="114.0" y="48.7447355882523"/>
      <point x="114.0" y="109.97911158825264" type="curve" smooth="yes"/>
      <point x="114.0" y="1322.760359588252" type="line" smooth="yes"/>
      <point x="114.0" y="1383.510359588252"/>
      <point x="163.24218599999995" y="1432.760359588252"/>
      <point x="223.99218599999995" y="1432.760359588252" type="curve" smooth="yes"/>
      <point x="633.8125" y="1432.760359588252" type="line" smooth="yes"/>
      <point x="853.1562500000002" y="1432.760359588252"/>
      <point x="977.0000000000002" y="1341.3931735882525"/>
      <point x="1042.265624" y="1264.7369235882525" type="curve" smooth="yes"/>
      <point x="1113.0312500000002" y="1181.6275475882521"/>
      <point x="1153.6250000000002" y="1070.197859588252"/>
      <point x="1153.6250000000002" y="959.0181735882525" type="curve" smooth="yes"/>
      <point x="1153.6171860000002" y="884.885359588252"/>
      <point x="1139.1250000000002" y="811.1431735882525"/>
      <point x="1111.703124" y="745.7681735882525" type="curve" smooth="yes"/>
      <point x="1078.671874" y="667.0337975882521"/>
      <point x="1027.9296860000002" y="604.4009855882523"/>
      <point x="964.9609379999999" y="564.6431735882525" type="curve" smooth="yes"/>
      <point x="939.2343739999999" y="548.3931735882525"/>
      <point x="912.4218739999999" y="536.197859588252"/>
      <point x="884.8437500000002" y="528.0572355882523" type="curve"/>
      <point x="1011.2265620000001" y="373.91661158825264"/>
      <point x="1133.5312500000002" y="226.58067358825247"/>
      <point x="1172.3046860000002" y="185.25254758825213" type="curve" smooth="yes"/>
      <point x="1213.8750000000002" y="140.95567358825247"/>
      <point x="1211.671874" y="71.34629758825213"/>
      <point x="1167.3671860000002" y="29.775985588252297" type="curve" smooth="yes"/>
      <point x="1146.140624" y="9.854111588252636"/>
      <point x="1119.101562" y="-0.013076411747533712"/>
    </contour>
  </outline>
</glyph>
<glyph name="S" format="2">
  <advance width="1240"/>
  <unicode hex="0053"/>
  <outline>
    <contour>
      <point x="581.7290899423533" y="-23.0" type="curve" smooth="yes"/>
      <point x="457.29940194235314" y="-23.0"/>
      <point x="342.62752594235326" y="11.546876000000339"/>
      <point x="250.11971394235297" y="76.91406400000051" type="curve" smooth="yes"/>
      <point x="166.97127794235303" y="135.65625200000068"/>
      <point x="103.40096394235297" y="218.8203140000005"/>
      <point x="71.11971394235297" y="311.08593800000017" type="curve" smooth="yes"/>
      <point x="51.04940194235314" y="368.42968800000017"/>
      <point x="81.26815194235314" y="431.17187600000034"/>
      <point x="138.61190194235314" y="451.24218800000017" type="curve" smooth="yes"/>
      <point x="195.94002594235326" y="471.30468800000017"/>
      <point x="258.6978399423533" y="441.08593800000017"/>
      <point x="278.7603399423533" y="383.75" type="curve" smooth="yes"/>
      <point x="296.06502594235326" y="334.30468800000017"/>
      <point x="330.971277942353" y="289.14843800000017"/>
      <point x="377.057213942353" y="256.58593800000017" type="curve" smooth="yes"/>
      <point x="432.23690194235314" y="217.59375200000068"/>
      <point x="503.01815194235314" y="196.99218800000017"/>
      <point x="581.7290899423533" y="196.99218800000017" type="curve" smooth="yes"/>
      <point x="682.713463942353" y="196.99218800000017"/>
      <point x="763.8775259423533" y="218.5078140000005"/>
      <point x="816.4556519423531" y="259.21093800000017" type="curve" smooth="yes"/>
      <point x="861.713463942353" y="294.2578140000005"/>
      <point x="883.721277942353" y="342.0703140000005"/>
      <point x="883.721277942353" y="405.39843800000017" type="curve" smooth="yes"/>
      <point x="883.721277942353" y="515.1875"/>
      <point x="808.5494019423531" y="564.4296880000002"/>
      <point x="562.0181519423531" y="616.0859380000002" type="curve" smooth="yes"/>
      <point x="431.14315194235314" y="643.0703140000005"/>
      <point x="325.213463942353" y="686.7265640000005"/>
      <point x="247.1978399423533" y="745.8437520000007" type="curve" smooth="yes"/>
      <point x="146.08065194235314" y="822.4609380000002"/>
      <point x="92.63533994235331" y="924.9375"/>
      <point x="92.63533994235331" y="1042.2031260000003" type="curve" smooth="yes"/>
      <point x="92.63533994235331" y="1163.25"/>
      <point x="139.68221394235297" y="1272.25"/>
      <point x="225.09627794235303" y="1349.1093760000003" type="curve" smooth="yes"/>
      <point x="313.4165899423533" y="1428.5937520000007"/>
      <point x="438.5103399423533" y="1470.6015640000005"/>
      <point x="586.8540899423533" y="1470.6015640000005" type="curve" smooth="yes"/>
      <point x="688.6431519423531" y="1470.6015640000005"/>
      <point x="794.6900259423533" y="1435.0468760000003"/>
      <point x="885.471277942353" y="1370.4921880000002" type="curve" smooth="yes"/>
      <point x="973.400963942353" y="1307.9531260000003"/>
      <point x="1038.8540899423533" y="1224.8593760000003"/>
      <point x="1069.7681519423531" y="1136.5156260000003" type="curve" smooth="yes"/>
      <point x="1089.838463942353" y="1079.1718760000003"/>
      <point x="1059.619713942353" y="1016.4296880000002"/>
      <point x="1002.275963942353" y="996.3593760000003" type="curve" smooth="yes"/>
      <point x="990.2603399423533" y="992.1562520000007"/>
      <point x="977.994713942353" y="990.1562520000007"/>
      <point x="965.9478399423533" y="990.1562520000007" type="curve" smooth="yes"/>
      <point x="920.5025259423533" y="990.1562520000007"/>
      <point x="877.9869019423531" y="1018.5312520000007"/>
      <point x="862.1275259423533" y="1063.8515640000005" type="curve" smooth="yes"/>
      <point x="831.213463942353" y="1152.1875"/>
      <point x="710.5650259423533" y="1250.6093760000003"/>
      <point x="586.8540899423533" y="1250.6093760000003" type="curve" smooth="yes"/>
      <point x="493.7290899423533" y="1250.6093760000003"/>
      <point x="419.525963942353" y="1228.125"/>
      <point x="372.25252594235326" y="1185.5859380000002" type="curve" smooth="yes"/>
      <point x="322.971277942353" y="1141.2421880000002"/>
      <point x="312.62752594235326" y="1083.1406260000003"/>
      <point x="312.62752594235326" y="1042.2031260000003" type="curve" smooth="yes"/>
      <point x="312.62752594235326" y="1012.1875"/>
      <point x="319.619713942353" y="966.9843760000003"/>
      <point x="380.057213942353" y="921.1796880000002" type="curve" smooth="yes"/>
      <point x="431.033777942353" y="882.5625"/>
      <point x="509.33065194235314" y="851.5625"/>
      <point x="606.494713942353" y="831.5312520000007" type="curve" smooth="yes"/>
      <point x="606.6119019423531" y="831.5078140000005"/>
      <point x="606.721277942353" y="831.4843760000003"/>
      <point x="606.838463942353" y="831.4609380000002" type="curve" smooth="yes"/>
      <point x="713.775963942353" y="809.0625"/>
      <point x="825.908777942353" y="782.5781260000003"/>
      <point x="918.346277942353" y="727.3281260000003" type="curve" smooth="yes"/>
      <point x="975.057213942353" y="693.4296880000002"/>
      <point x="1019.471277942353" y="651.1796880000002"/>
      <point x="1050.3619019423531" y="601.7421880000002" type="curve" smooth="yes"/>
      <point x="1085.7603399423533" y="545.0937520000007"/>
      <point x="1103.713463942353" y="479.0390640000005"/>
      <point x="1103.713463942353" y="405.39843800000017" type="curve" smooth="yes"/>
      <point x="1103.713463942353" y="340.21093800000017"/>
      <point x="1090.5806519423531" y="279.5703140000005"/>
      <point x="1064.6900259423533" y="225.17187600000034" type="curve" smooth="yes"/>
      <point x="1038.682213942353" y="170.5390640000005"/>
      <point x="1000.4790899423533" y="123.46875200000068"/>
      <point x="951.1275259423533" y="85.26562600000034" type="curve" smooth="yes"/>
      <point x="859.650963942353" y="14.4375"/>
      <point x="731.9165899423533" y="-23.0"/>
    </contour>
  </outline>
</glyph>
<glyph name="T" format="2">
  <advance width="1251"/>
  <unicode hex="0054"/>
  <outline>
    <contour>
      <point x="628.9375" y="0.0" type="curve" smooth="yes"/>
      <point x="568.1875" y="0.0"/>
      <point x="518.9453119999998" y="49.24218800000017"/>
      <point x="518.9453119999998" y="109.99218800000017" type="curve" smooth="yes"/>
      <point x="518.9453119999998" y="979.1093739999997" type="line" smooth="yes"/>
      <point x="518.9453119999998" y="1062.7578119999998"/>
      <point x="541.4296880000002" y="1142.9453119999998"/>
      <point x="583.5390619999998" y="1212.78125" type="curve"/>
      <point x="164.0" y="1212.78125" type="line" smooth="yes"/>
      <point x="103.25" y="1212.78125"/>
      <point x="54.0" y="1262.03125"/>
      <point x="54.0" y="1322.7734359999995" type="curve" smooth="yes"/>
      <point x="54.0" y="1383.5234359999995"/>
      <point x="103.25" y="1432.7734359999995"/>
      <point x="164.0" y="1432.7734359999995" type="curve" smooth="yes"/>
      <point x="1113.6718739999997" y="1432.7734359999995" type="line" smooth="yes"/>
      <point x="1174.4218739999997" y="1432.7734359999995"/>
      <point x="1223.6718739999997" y="1383.5234359999995"/>
      <point x="1223.6718739999997" y="1322.7734359999995" type="curve" smooth="yes"/>
      <point x="1223.6718739999997" y="1262.03125"/>
      <point x="1174.4218739999997" y="1212.78125"/>
      <point x="1113.6718739999997" y="1212.78125" type="curve" smooth="yes"/>
      <point x="972.6093739999997" y="1212.78125" type="line" smooth="yes"/>
      <point x="843.7578119999998" y="1212.78125"/>
      <point x="738.9375" y="1107.9609359999995"/>
      <point x="738.9375" y="979.1093739999997" type="curve" smooth="yes"/>
      <point x="738.9375" y="109.99218800000017" type="line" smooth="yes"/>
      <point x="738.9375" y="49.24218800000017"/>
      <point x="689.6875" y="0.0"/>
    </contour>
  </outline>
</glyph>
<glyph name="U" format="2">
  <advance width="1351"/>
  <unicode hex="0055"/>
  <outline>
    <contour>
      <point x="694.3281239999997" y="-23.0" type="curve" smooth="yes"/>
      <point x="601.0078119999998" y="-23.0"/>
      <point x="516.3203119999998" y="-7.2968739999996615"/>
      <point x="442.59375" y="23.65625" type="curve" smooth="yes"/>
      <point x="366.28125" y="55.71093800000017"/>
      <point x="301.29687600000034" y="104.09375"/>
      <point x="249.46875" y="167.46093800000017" type="curve" smooth="yes"/>
      <point x="152.28125" y="286.28125"/>
      <point x="103.0" y="455.28125"/>
      <point x="103.0" y="669.7656260000003" type="curve" smooth="yes"/>
      <point x="103.0" y="1329.3203119999998" type="line" smooth="yes"/>
      <point x="103.0" y="1390.0703119999998"/>
      <point x="152.25" y="1439.3203119999998"/>
      <point x="213.0" y="1439.3203119999998" type="curve" smooth="yes"/>
      <point x="273.75" y="1439.3203119999998"/>
      <point x="322.99218800000017" y="1390.0703119999998"/>
      <point x="322.99218800000017" y="1329.3203119999998" type="curve" smooth="yes"/>
      <point x="322.99218800000017" y="669.7656260000003" type="line" smooth="yes"/>
      <point x="322.99218800000017" y="507.375"/>
      <point x="355.54687600000034" y="385.23437399999966"/>
      <point x="419.75781199999983" y="306.74218800000017" type="curve" smooth="yes"/>
      <point x="480.15625" y="232.89062600000034"/>
      <point x="569.9765619999998" y="196.99218800000017"/>
      <point x="694.3281239999997" y="196.99218800000017" type="curve" smooth="yes"/>
      <point x="818.6875" y="196.99218800000017"/>
      <point x="908.5" y="232.89062600000034"/>
      <point x="968.90625" y="306.74218800000017" type="curve" smooth="yes"/>
      <point x="1033.1171880000002" y="385.23437399999966"/>
      <point x="1065.6718760000003" y="507.375"/>
      <point x="1065.6718760000003" y="669.7656260000003" type="curve" smooth="yes"/>
      <point x="1065.6718760000003" y="1329.3203119999998" type="line" smooth="yes"/>
      <point x="1065.6718760000003" y="1390.0703119999998"/>
      <point x="1114.9140619999998" y="1439.3203119999998"/>
      <point x="1175.6640619999998" y="1439.3203119999998" type="curve" smooth="yes"/>
      <point x="1236.4140619999998" y="1439.3203119999998"/>
      <point x="1285.6640619999998" y="1390.0703119999998"/>
      <point x="1285.6640619999998" y="1329.3203119999998" type="curve" smooth="yes"/>
      <point x="1285.6640619999998" y="669.7656260000003" type="line" smooth="yes"/>
      <point x="1285.6640619999998" y="455.28125"/>
      <point x="1236.3828119999998" y="286.28125"/>
      <point x="1139.1953119999998" y="167.46093800000017" type="curve" smooth="yes"/>
      <point x="1087.3593760000003" y="104.09375"/>
      <point x="1022.3828119999998" y="55.71093800000017"/>
      <point x="946.0625" y="23.65625" type="curve" smooth="yes"/>
      <point x="872.34375" y="-7.2968739999996615"/>
      <point x="787.6484380000002" y="-23.0"/>
    </contour>
  </outline>
</glyph>
<glyph name="V" format="2">
  <advance width="1294"/>
  <unicode hex="0056"/>
  <outline>
    <contour>
      <point x="646.2549860435875" y="2.000000000007276" type="curve" smooth="yes"/>
      <point x="589.7393620435878" y="2.000000000007276"/>
      <point x="538.3643620435878" y="20.687500000007276"/>
      <point x="497.6846740435876" y="56.054688000007445" type="curve" smooth="yes"/>
      <point x="464.57530004358796" y="84.83593800000745"/>
      <point x="438.8956120435878" y="124.2890620000071"/>
      <point x="421.3487380435881" y="173.32031400000778" type="curve" smooth="yes"/>
      <point x="27.12217404358762" y="1278.351562000007" type="line" smooth="yes"/>
      <point x="6.708112043587789" y="1335.5703140000078"/>
      <point x="36.54405004358796" y="1398.5000000000073"/>
      <point x="93.76280004358796" y="1418.914062000007" type="curve" smooth="yes"/>
      <point x="150.98155004358796" y="1439.3281260000076"/>
      <point x="213.90342404358762" y="1409.4843760000076"/>
      <point x="234.31748604358745" y="1352.2734380000074" type="curve" smooth="yes"/>
      <point x="628.5206120435878" y="247.33593800000745" type="line" smooth="yes"/>
      <point x="634.7081120435878" y="230.02343800000745"/>
      <point x="640.294050043588" y="223.75781400000778"/>
      <point x="641.7549860435875" y="222.32812600000761" type="curve"/>
      <point x="642.450300043588" y="222.19531400000778"/>
      <point x="643.8799860435875" y="221.99218800000745"/>
      <point x="646.2549860435875" y="221.99218800000745" type="curve" smooth="yes"/>
      <point x="648.6768620435878" y="221.99218800000745"/>
      <point x="650.1221740435876" y="222.19531400000778"/>
      <point x="650.8096740435876" y="222.33593800000745" type="curve"/>
      <point x="652.2549860435875" y="223.74218800000745"/>
      <point x="657.8721740435876" y="230.02343800000745"/>
      <point x="664.075300043588" y="247.54687600000761" type="curve" smooth="yes"/>
      <point x="1058.231550043588" y="1361.4687500000073" type="line" smooth="yes"/>
      <point x="1078.4971740435876" y="1418.7421880000074"/>
      <point x="1141.356550043588" y="1448.7421880000074"/>
      <point x="1198.6221740435876" y="1428.476562000007" type="curve" smooth="yes"/>
      <point x="1255.8956120435878" y="1408.2109380000074"/>
      <point x="1285.887800043588" y="1345.351562000007"/>
      <point x="1265.6221740435876" y="1288.0859380000074" type="curve" smooth="yes"/>
      <point x="871.4659240435876" y="174.1640620000071" type="line" smooth="yes"/>
      <point x="854.0362380435881" y="124.92187600000761"/>
      <point x="828.3721740435876" y="85.27343800000745"/>
      <point x="795.1768620435878" y="56.320314000007784" type="curve" smooth="yes"/>
      <point x="754.4268620435878" y="20.781250000007276"/>
      <point x="702.9346740435876" y="2.000000000007276"/>
    </contour>
  </outline>
</glyph>
<glyph name="W" format="2">
  <advance width="1874"/>
  <unicode hex="0057"/>
  <outline>
    <contour>
      <point x="1316.9825686086751" y="0.0" type="curve" smooth="yes"/>
      <point x="1261.2169426086748" y="0.0"/>
      <point x="1210.0919426086748" y="23.94531199999983"/>
      <point x="1173.021630608675" y="67.42187399999966" type="curve" smooth="yes"/>
      <point x="1148.5919426086748" y="96.08593800000017"/>
      <point x="1130.334130608675" y="132.38281199999983"/>
      <point x="1117.3497566086753" y="178.16406199999983" type="curve"/>
      <point x="912.3888186086751" y="655.9296880000002" type="line"/>
      <point x="705.552880608675" y="177.99218800000017" type="line"/>
      <point x="692.5685066086753" y="132.28906199999983"/>
      <point x="674.3263186086751" y="96.04687399999966"/>
      <point x="649.9200686086751" y="67.42187399999966" type="curve" smooth="yes"/>
      <point x="612.8575686086751" y="23.94531199999983"/>
      <point x="561.7325686086751" y="0.0"/>
      <point x="505.9669426086748" y="0.0" type="curve" smooth="yes"/>
      <point x="450.3497566086753" y="0.0"/>
      <point x="399.32631860867514" y="23.84375"/>
      <point x="362.29506860867514" y="67.125" type="curve" smooth="yes"/>
      <point x="336.42788060867497" y="97.36718800000017"/>
      <point x="317.4435066086753" y="136.17187399999966"/>
      <point x="304.2560066086753" y="185.75781199999983" type="curve" smooth="yes"/>
      <point x="304.1231946086755" y="186.23437399999966"/>
      <point x="304.0060066086753" y="186.71093800000017"/>
      <point x="303.8810066086753" y="187.19531199999983" type="curve" smooth="yes"/>
      <point x="26.888818608675138" y="1287.8281260000003" type="line" smooth="yes"/>
      <point x="12.060694608675476" y="1346.7421880000002"/>
      <point x="47.79506860867514" y="1406.5156260000003"/>
      <point x="106.70913060867497" y="1421.34375" type="curve" smooth="yes"/>
      <point x="165.62319460867548" y="1436.1718739999997"/>
      <point x="225.39663060867497" y="1400.4296880000002"/>
      <point x="240.2247566086753" y="1341.5156260000003" type="curve" smooth="yes"/>
      <point x="508.33413060867497" y="276.1875" type="line"/>
      <point x="741.7638186086751" y="815.5703119999998" type="line" smooth="yes"/>
      <point x="785.4825686086751" y="916.5625"/>
      <point x="802.1310066086753" y="955.03125"/>
      <point x="802.115380608675" y="1047.8203119999998" type="curve" smooth="yes"/>
      <point x="801.4825686086751" y="1145.1093739999997" type="line" smooth="yes"/>
      <point x="801.084130608675" y="1205.8515619999998"/>
      <point x="850.0060066086753" y="1255.4140619999998"/>
      <point x="910.7481946086755" y="1255.8203119999998" type="curve" smooth="yes"/>
      <point x="910.9981946086755" y="1255.8203119999998"/>
      <point x="911.2481946086755" y="1255.8203119999998"/>
      <point x="911.490380608675" y="1255.8203119999998" type="curve" smooth="yes"/>
      <point x="971.896630608675" y="1255.8203119999998"/>
      <point x="1021.0685066086753" y="1207.0546880000002"/>
      <point x="1021.4669426086748" y="1146.5546880000002" type="curve" smooth="yes"/>
      <point x="1022.0997566086753" y="1052.0390619999998" type="line" smooth="yes"/>
      <point x="1022.0997566086753" y="1051.9375"/>
      <point x="1022.0997566086753" y="1051.84375"/>
      <point x="1022.0997566086753" y="1051.75" type="curve" smooth="yes"/>
      <point x="1022.0997566086753" y="1050.7031260000003"/>
      <point x="1022.1075686086751" y="1049.6718739999997"/>
      <point x="1022.1075686086751" y="1048.6328119999998" type="curve" smooth="yes"/>
      <point x="1022.115380608675" y="1046.9609380000002" type="line" smooth="yes"/>
      <point x="1022.115380608675" y="1046.8671880000002"/>
      <point x="1022.115380608675" y="1046.7734380000002"/>
      <point x="1022.115380608675" y="1046.6796880000002" type="curve" smooth="yes"/>
      <point x="1022.4747566086753" y="957.0859380000002"/>
      <point x="1037.6856946086755" y="921.6953119999998"/>
      <point x="1078.3263186086751" y="827.1171880000002" type="curve" smooth="yes"/>
      <point x="1083.4513186086751" y="815.1875" type="line"/>
      <point x="1314.6388186086751" y="276.28125" type="line"/>
      <point x="1582.7247566086753" y="1341.5156260000003" type="line" smooth="yes"/>
      <point x="1597.552880608675" y="1400.4296880000002"/>
      <point x="1657.3263186086751" y="1436.1640619999998"/>
      <point x="1716.240380608675" y="1421.34375" type="curve" smooth="yes"/>
      <point x="1775.146630608675" y="1406.5156260000003"/>
      <point x="1810.8888186086751" y="1346.7421880000002"/>
      <point x="1796.0606946086755" y="1287.8281260000003" type="curve" smooth="yes"/>
      <point x="1519.0685066086753" y="187.19531199999983" type="line" smooth="yes"/>
      <point x="1518.9435066086753" y="186.71093800000017"/>
      <point x="1518.8185066086753" y="186.23437399999966"/>
      <point x="1518.6935066086753" y="185.75781199999983" type="curve" smooth="yes"/>
      <point x="1505.5060066086753" y="136.17187399999966"/>
      <point x="1486.5138186086751" y="97.36718800000017"/>
      <point x="1460.6544426086748" y="67.125" type="curve" smooth="yes"/>
      <point x="1423.6231946086755" y="23.84375"/>
      <point x="1372.5997566086753" y="0.0"/>
    </contour>
  </outline>
</glyph>
<glyph name="X" format="2">
  <advance width="1266"/>
  <unicode hex="0058"/>
  <outline>
    <contour>
      <point x="128.4755340705051" y="0.0" type="curve" smooth="yes"/>
      <point x="106.26459607050492" y="0.0"/>
      <point x="83.85834607050492" y="6.7031239999996615"/>
      <point x="64.43647007050458" y="20.63281199999983" type="curve" smooth="yes"/>
      <point x="15.147408070504753" y="56.00781199999983"/>
      <point x="3.8036580705047527" y="124.60156199999983"/>
      <point x="39.07709607050492" y="173.9609359999995" type="curve" smooth="yes"/>
      <point x="314.2802200705046" y="559.0625" type="line" smooth="yes"/>
      <point x="350.1552200705046" y="609.1875"/>
      <point x="369.4833460705049" y="667.7265619999998"/>
      <point x="370.20990807050475" y="728.4218739999997" type="curve" smooth="yes"/>
      <point x="370.9442820705044" y="789.0937479999993"/>
      <point x="353.0458460705049" y="848.0312479999993"/>
      <point x="318.4442820705044" y="898.8593739999997" type="curve" smooth="yes"/>
      <point x="69.81928207050441" y="1264.1406239999997" type="line" smooth="yes"/>
      <point x="35.63959607050492" y="1314.3593739999997"/>
      <point x="48.63959607050492" y="1382.7812479999993"/>
      <point x="98.85834607050492" y="1416.9609359999995" type="curve" smooth="yes"/>
      <point x="149.07709607050492" y="1451.1406239999997"/>
      <point x="217.49897007050458" y="1438.1406239999997"/>
      <point x="251.68647007050458" y="1387.9218739999997" type="curve" smooth="yes"/>
      <point x="500.3114700705046" y="1022.6406239999997" type="line" smooth="yes"/>
      <point x="526.5145960705049" y="984.1484359999995"/>
      <point x="548.9833460705049" y="942.8593739999997"/>
      <point x="553.3192820705044" y="887.7031239999997" type="curve"/>
      <point x="915.4599080705048" y="1390.3281239999997" type="line" smooth="yes"/>
      <point x="950.9755340705051" y="1439.6171859999995"/>
      <point x="1019.7177200705046" y="1450.7890619999998"/>
      <point x="1069.0067820705044" y="1415.2734359999995" type="curve" smooth="yes"/>
      <point x="1118.288034070505" y="1379.7656239999997"/>
      <point x="1129.4599080705048" y="1311.0234359999995"/>
      <point x="1093.952096070505" y="1261.7343739999997" type="curve" smooth="yes"/>
      <point x="839.0302200705046" y="907.9140619999998" type="line" smooth="yes"/>
      <point x="783.1942820705044" y="830.4296859999995"/>
      <point x="781.8895960705049" y="729.4531239999997"/>
      <point x="835.7099080705048" y="650.6718739999997" type="curve" smooth="yes"/>
      <point x="1160.4286580705048" y="175.28906199999983" type="line" smooth="yes"/>
      <point x="1194.6942820705044" y="125.125"/>
      <point x="1181.8036580705048" y="56.6875"/>
      <point x="1131.6474080705048" y="22.42187399999966" type="curve" smooth="yes"/>
      <point x="1081.483346070505" y="-11.843752000000677"/>
      <point x="1013.0380340705051" y="1.0468739999996615"/>
      <point x="978.7724080705048" y="51.20312399999966" type="curve" smooth="yes"/>
      <point x="668.4130340705051" y="505.5546859999995" type="line" smooth="yes"/>
      <point x="653.1317820705044" y="527.9218739999997"/>
      <point x="628.7880340705051" y="577.0781239999997"/>
      <point x="628.2880340705051" y="615.4296859999995" type="curve"/>
      <point x="217.81147007050458" y="45.70312399999966" type="line" smooth="yes"/>
      <point x="196.3192820705044" y="15.875"/>
      <point x="162.63959607050492" y="0.0"/>
    </contour>
  </outline>
</glyph>
<glyph name="Y" format="2">
  <advance width="1283"/>
  <unicode hex="0059"/>
  <outline>
    <contour>
      <point x="545.3930365840843" y="-0.0052644117477029795" type="curve" smooth="yes"/>
      <point x="484.9477245840844" y="0.775985588252297"/>
      <point x="436.8539745840844" y="51.16660958825196"/>
      <point x="436.8539745840844" y="111.6197355882523" type="curve" smooth="yes"/>
      <point x="436.8539745840844" y="404.2056715882518" type="line" smooth="yes"/>
      <point x="436.8539745840844" y="476.8775475882521"/>
      <point x="436.0961605840839" y="566.2681715882518"/>
      <point x="482.6508485840841" y="644.7447355882523" type="curve"/>
      <point x="428.6664745840844" y="648.5884855882523"/>
      <point x="368.79928658408426" y="671.2447355882523"/>
      <point x="338.6820985840841" y="719.7994235882525" type="curve" smooth="yes"/>
      <point x="337.76803658408426" y="721.2759855882523"/>
      <point x="336.8774125840846" y="722.7837975882521"/>
      <point x="336.0336605840839" y="724.2994235882525" type="curve" smooth="yes"/>
      <point x="32.86178658408426" y="1269.291609588252" type="line" smooth="yes"/>
      <point x="3.330536584084257" y="1322.3775475882521"/>
      <point x="22.424286584084257" y="1389.354109588252"/>
      <point x="75.51022458408443" y="1418.885359588252" type="curve" smooth="yes"/>
      <point x="128.60397458408443" y="1448.416609588252"/>
      <point x="195.57272458408443" y="1429.322859588252"/>
      <point x="225.10397458408443" y="1376.2369235882525" type="curve" smooth="yes"/>
      <point x="265.0649125840846" y="1304.416609588252"/>
      <point x="305.0102245840844" y="1232.5962975882521"/>
      <point x="344.9633485840841" y="1160.7759855882523" type="curve" smooth="yes"/>
      <point x="376.70553658408426" y="1103.7212975882521"/>
      <point x="408.4477245840844" y="1046.6587975882521"/>
      <point x="440.1899125840846" y="989.5962975882521" type="curve" smooth="yes"/>
      <point x="453.6977245840844" y="965.322859588252"/>
      <point x="467.20553658408426" y="941.0494235882525"/>
      <point x="480.70553658408426" y="916.7681715882518" type="curve" smooth="yes"/>
      <point x="494.4477245840844" y="892.0650475882521"/>
      <point x="504.0024125840846" y="864.3150475882521"/>
      <point x="535.3539745840844" y="858.6587975882521" type="curve" smooth="yes"/>
      <point x="538.0102245840844" y="858.1822355882523"/>
      <point x="540.7211605840839" y="857.8775475882521"/>
      <point x="543.4242865840843" y="857.7759855882523" type="curve" smooth="yes"/>
      <point x="577.8227245840844" y="856.447859588252"/>
      <point x="589.0336605840839" y="882.0181715882518"/>
      <point x="604.8070985840841" y="906.6822355882523" type="curve" smooth="yes"/>
      <point x="646.1899125840846" y="971.4087975882521" type="line" smooth="yes"/>
      <point x="680.0727245840844" y="1024.4087975882521"/>
      <point x="713.9555365840843" y="1077.4087975882521"/>
      <point x="747.8461605840839" y="1130.4087975882521" type="curve" smooth="yes"/>
      <point x="799.8774125840846" y="1211.7994235882525"/>
      <point x="851.9242865840843" y="1293.197859588252"/>
      <point x="903.9555365840843" y="1374.5884855882523" type="curve" smooth="yes"/>
      <point x="905.5414745840844" y="1377.0650475882521"/>
      <point x="907.1274125840846" y="1379.541609588252"/>
      <point x="908.7055365840843" y="1382.0181715882518" type="curve" smooth="yes"/>
      <point x="941.4086605840839" y="1433.1587975882521"/>
      <point x="1009.3539745840844" y="1448.1431715882518"/>
      <point x="1060.533660584084" y="1415.4947355882523" type="curve" smooth="yes"/>
      <point x="1111.713348584084" y="1382.8462975882521"/>
      <point x="1126.7680365840843" y="1314.9087975882521"/>
      <point x="1094.1742865840843" y="1263.697859588252" type="curve" smooth="yes"/>
      <point x="735.0727245840844" y="699.5181715882518" type="line" smooth="yes"/>
      <point x="683.8930365840843" y="609.6822355882523"/>
      <point x="656.8461605840839" y="507.6197355882523"/>
      <point x="656.8461605840839" y="404.2056715882518" type="curve" smooth="yes"/>
      <point x="656.8461605840839" y="109.97910958825196" type="line" smooth="yes"/>
      <point x="656.8461605840839" y="48.7447355882523"/>
      <point x="606.8070985840841" y="-0.8021404117480415"/>
    </contour>
  </outline>
</glyph>
<glyph name="Z" format="2">
  <advance width="1217"/>
  <unicode hex="005A"/>
  <outline>
    <contour>
      <point x="1102.0744214064016" y="2.000000000007276" type="curve" smooth="yes"/>
      <point x="193.96504540640126" y="2.000000000007276" type="line" smooth="yes"/>
      <point x="156.1603574064011" y="2.000000000007276"/>
      <point x="120.39473340640143" y="20.796876000007614"/>
      <point x="100.33223340640143" y="52.843750000007276" type="curve" smooth="yes"/>
      <point x="76.02754540640126" y="91.6640620000071"/>
      <point x="78.7619214064016" y="140.9453120000071"/>
      <point x="106.17598340640143" y="176.64843800000745" type="curve" smooth="yes"/>
      <point x="890.8166074064011" y="1198.695312000007" type="line" smooth="yes"/>
      <point x="895.8712954064013" y="1205.2734380000074"/>
      <point x="891.1759834064014" y="1214.7812500000073"/>
      <point x="882.8869214064016" y="1214.7812500000073" type="curve" smooth="yes"/>
      <point x="247.0978574064011" y="1214.7812500000073" type="line" smooth="yes"/>
      <point x="187.4416074064011" y="1214.7812500000073"/>
      <point x="137.71504540640126" y="1262.2421880000074"/>
      <point x="136.9416074064011" y="1321.890624000007" type="curve" smooth="yes"/>
      <point x="136.15254540640126" y="1382.5000000000073"/>
      <point x="185.05098340640143" y="1431.882812000007"/>
      <point x="245.48066940640092" y="1431.882812000007" type="curve" smooth="yes"/>
      <point x="1121.6759834064014" y="1431.882812000007" type="line" smooth="yes"/>
      <point x="1159.480669406401" y="1431.882812000007"/>
      <point x="1195.2462954064013" y="1413.0859380000074"/>
      <point x="1215.3009834064014" y="1381.039062000007" type="curve" smooth="yes"/>
      <point x="1239.605669406401" y="1342.2187500000073"/>
      <point x="1236.8712954064013" y="1292.9375000000073"/>
      <point x="1209.4572334064014" y="1257.2343760000076" type="curve" smooth="yes"/>
      <point x="424.8166074064011" y="235.18750000000728" type="line" smooth="yes"/>
      <point x="419.76973340640143" y="228.60937600000761"/>
      <point x="424.45723340640143" y="219.1015620000071"/>
      <point x="432.74629540640126" y="219.1015620000071" type="curve" smooth="yes"/>
      <point x="1100.4572334064014" y="219.1015620000071" type="line" smooth="yes"/>
      <point x="1160.1134834064014" y="219.1015620000071"/>
      <point x="1209.847857406401" y="171.64062400000694"/>
      <point x="1210.6134834064014" y="111.99218800000745" type="curve" smooth="yes"/>
      <point x="1211.4025454064013" y="51.375000000007276"/>
      <point x="1162.504107406401" y="2.000000000007276"/>
    </contour>
  </outline>
</glyph>
<glyph name="f" format="2">
  <advance width="722"/>
  <unicode hex="0066"/>
  <outline>
    <contour>
      <point x="218" y="843" type="line"/>
      <point x="28" y="843" type="line"/>
      <point x="28" y="1014" type="line"/>
      <point x="218" y="1014" type="line"/>
      <point x="218" y="1124" type="line" smooth="yes"/>
      <point x="218" y="1300"/>
      <point x="396" y="1483"/>
      <point x="568" y="1483" type="qcurve" smooth="yes"/>
      <point x="636" y="1483"/>
      <point x="697" y="1472" type="qcurve"/>
      <point x="697" y="1298" type="line"/>
      <point x="670" y="1303"/>
      <point x="619" y="1308"/>
      <point x="596" y="1308" type="qcurve" smooth="yes"/>
      <point x="430" y="1308"/>
      <point x="430" y="1119" type="qcurve" smooth="yes"/>
      <point x="430" y="1014" type="line"/>
      <point x="687" y="1014" type="line"/>
      <point x="687" y="843" type="line"/>
      <point x="430" y="843" type="line"/>
      <point x="430" y="0" type="line"/>
      <point x="218" y="0" type="line"/>
    </contour>
  </outline>
</glyph>
<glyph name="h" format="2">
  <advance width="1094"/>
  <unicode hex="0068"/>
  <outline>
    <contour>
      <point x="99" y="1460" type="line"/>
      <point x="312" y="1460" type="line"/>
      <point x="312" y="876" type="line"/>
      <point x="358" y="945"/>
      <point x="522" y="1037"/>
      <point x="632" y="1037" type="qcurve" smooth="yes"/>
      <point x="999" y="1037"/>
      <point x="999" y="605" type="qcurve" smooth="yes"/>
      <point x="999" y="0" type="line"/>
      <point x="787" y="0" type="line"/>
      <point x="787" y="581" type="line" smooth="yes"/>
      <point x="787" y="722"/>
      <point x="687" y="852"/>
      <point x="462" y="852"/>
      <point x="312" y="700"/>
      <point x="312" y="577" type="qcurve" smooth="yes"/>
      <point x="312" y="0" type="line"/>
      <point x="99" y="0" type="line"/>
    </contour>
  </outline>
</glyph>
<glyph name="k" format="2">
  <advance width="1037"/>
  <unicode hex="006B"/>
  <outline>
    <contour>
      <point x="99" y="1460" type="line"/>
      <point x="312" y="1460" type="line"/>
      <point x="312" y="589" type="line"/>
      <point x="748" y="1014" type="line"/>
      <point x="999" y="1014" type="line"/>
      <point x="578" y="609" type="line"/>
      <point x="1038" y="0" type="line"/>
      <point x="785" y="0" type="line"/>
      <point x="435" y="481" type="line"/>
      <point x="312" y="361" type="line"/>
      <point x="312" y="0" type="line"/>
      <point x="99" y="0" type="line"/>
    </contour>
  </outline>
</glyph>
<glyph name="l" format="2">
  <advance width="411"/>
  <unicode hex="006C"/>
  <outline>
    <contour>
      <point x="99" y="1460" type="line"/>
      <point x="312" y="1460" type="line"/>
      <point x="312" y="0" type="line"/>
      <point x="99" y="0" type="line"/>
    </contour>
  </outline>
</glyph>
<glyph name="s" format="2">
  <advance width="961"/>
  <unicode hex="0073"/>
  <outline>
    <contour>
      <point x="693" y="280" type="qcurve" smooth="yes"/>
      <point x="693" y="336"/>
      <point x="625" y="394"/>
      <point x="536" y="413" type="qcurve" smooth="yes"/>
      <point x="364" y="450" type="line" smooth="yes"/>
      <point x="90" y="511"/>
      <point x="90" y="730" type="qcurve" smooth="yes"/>
      <point x="90" y="869"/>
      <point x="303" y="1037"/>
      <point x="656" y="1037"/>
      <point x="873" y="876"/>
      <point x="889" y="729" type="qcurve"/>
      <point x="693" y="729" type="line"/>
      <point x="668" y="868"/>
      <point x="485" y="868" type="qcurve" smooth="yes"/>
      <point x="394" y="868"/>
      <point x="290" y="802"/>
      <point x="290" y="744" type="qcurve" smooth="yes"/>
      <point x="290" y="695"/>
      <point x="357" y="637"/>
      <point x="439" y="620" type="qcurve" smooth="yes"/>
      <point x="615" y="583" type="line" smooth="yes"/>
      <point x="901" y="521"/>
      <point x="901" y="284" type="qcurve" smooth="yes"/>
      <point x="901" y="141"/>
      <point x="674" y="-23"/>
      <point x="475" y="-23" type="qcurve" smooth="yes"/>
      <point x="300" y="-23"/>
      <point x="80" y="139"/>
      <point x="56" y="287" type="qcurve"/>
      <point x="252" y="287" type="line"/>
      <point x="284" y="149"/>
      <point x="475" y="149" type="qcurve" smooth="yes"/>
      <point x="693" y="149"/>
    </contour>
  </outline>
</glyph>
<glyph name="y" format="2">
  <advance width="1022"/>
  <unicode hex="0079"/>
  <outline>
    <contour>
      <point x="138" y="-205" type="line"/>
      <point x="174" y="-215"/>
      <point x="219" y="-215" type="qcurve" smooth="yes"/>
      <point x="290" y="-215"/>
      <point x="364" y="-150"/>
      <point x="399" y="-53" type="qcurve" smooth="yes"/>
      <point x="415" y="-9" type="line"/>
      <point x="18" y="1014" type="line"/>
      <point x="255" y="1014" type="line"/>
      <point x="528" y="245" type="line"/>
      <point x="783" y="1014" type="line"/>
      <point x="1004" y="1014" type="line"/>
      <point x="613" y="-80" type="line" smooth="yes"/>
      <point x="551" y="-255"/>
      <point x="389" y="-393"/>
      <point x="252" y="-393" type="qcurve" smooth="yes"/>
      <point x="218" y="-393"/>
      <point x="161" y="-385"/>
      <point x="138" y="-381" type="qcurve"/>
    </contour>
  </outline>
</glyph>
<glyph name="braceright" format="2">
  <advance width="700"/>
  <unicode hex="007D"/>
  <outline>
    <contour>
      <point x="46" y="-48" type="line"/>
      <point x="134" y="-48" type="line" smooth="yes"/>
      <point x="279" y="-48"/>
      <point x="279" y="132" type="qcurve" smooth="yes"/>
      <point x="279" y="383" type="line" smooth="yes"/>
      <point x="279" y="490"/>
      <point x="358" y="606"/>
      <point x="446" y="625" type="qcurve"/>
      <point x="358" y="645"/>
      <point x="279" y="760"/>
      <point x="279" y="867" type="qcurve" smooth="yes"/>
      <point x="279" y="1118" type="line" smooth="yes"/>
      <point x="279" y="1298"/>
      <point x="134" y="1298" type="qcurve" smooth="yes"/>
      <point x="46" y="1298" type="line"/>
      <point x="46" y="1470" type="line"/>
      <point x="152" y="1470" type="line" smooth="yes"/>
      <point x="318" y="1470"/>
      <point x="490" y="1299"/>
      <point x="490" y="1132" type="qcurve" smooth="yes"/>
      <point x="490" y="867" type="line" smooth="yes"/>
      <point x="490" y="780"/>
      <point x="553" y="710"/>
      <point x="630" y="710" type="qcurve" smooth="yes"/>
      <point x="673" y="710" type="line"/>
      <point x="673" y="540" type="line"/>
      <point x="630" y="540" type="line" smooth="yes"/>
      <point x="553" y="540"/>
      <point x="490" y="470"/>
      <point x="490" y="383" type="qcurve" smooth="yes"/>
      <point x="490" y="118" type="line" smooth="yes"/>
      <point x="490" y="-48"/>
      <point x="318" y="-220"/>
      <point x="152" y="-220" type="qcurve" smooth="yes"/>
      <point x="46" y="-220" type="line"/>
    </contour>
  </outline>
</glyph>
<glyph name="yen" format="2">
  <advance width="1170"/>
  <unicode hex="00A5"/>
  <outline>
    <contour>
      <point x="475" y="213" type="line"/>
      <point x="147" y="213" type="line"/>
      <point x="147" y="368" type="line"/>
      <point x="475" y="368" type="line"/>
      <point x="475" y="524" type="line"/>
      <point x="147" y="524" type="line"/>
      <point x="147" y="680" type="line"/>
      <point x="397" y="680" type="line"/>
      <point x="-4" y="1400" type="line"/>
      <point x="241" y="1400" type="line"/>
      <point x="589" y="738" type="line"/>
      <point x="937" y="1400" type="line"/>
      <point x="1175" y="1400" type="line"/>
      <point x="773" y="680" type="line"/>
      <point x="1024" y="680" type="line"/>
      <point x="1024" y="524" type="line"/>
      <point x="695" y="524" type="line"/>
      <point x="695" y="368" type="line"/>
      <point x="1024" y="368" type="line"/>
      <point x="1024" y="213" type="line"/>
      <point x="695" y="213" type="line"/>
      <point x="695" y="0" type="line"/>
      <point x="475" y="0" type="line"/>
    </contour>
  </outline>
</glyph>
<glyph name="registered" format="2">
  <advance width="1049"/>
  <unicode hex="00AE"/>
  <outline>
    <contour>
      <point x="56" y="1164"/>
      <point x="174" y="1369"/>
      <point x="385" y="1483"/>
      <point x="665" y="1483"/>
      <point x="876" y="1369"/>
      <point x="993" y="1164"/>
      <point x="993" y="892"/>
      <point x="876" y="688"/>
      <point x="665" y="574"/>
      <point x="385" y="574"/>
      <point x="174" y="688"/>
      <point x="56" y="892"/>
    </contour>
    <contour>
      <point x="186" y="1186"/>
      <point x="186" y="871"/>
      <point x="368" y="690"/>
      <point x="682" y="690"/>
      <point x="863" y="871"/>
      <point x="863" y="1186"/>
      <point x="682" y="1367"/>
      <point x="368" y="1367"/>
    </contour>
    <contour>
      <point x="449" y="796" type="line"/>
      <point x="345" y="796" type="line"/>
      <point x="345" y="1264" type="line"/>
      <point x="546" y="1264" type="line" smooth="yes"/>
      <point x="630" y="1264"/>
      <point x="723" y="1185"/>
      <point x="723" y="1114" type="qcurve" smooth="yes"/>
      <point x="723" y="1005"/>
      <point x="630" y="970" type="qcurve"/>
      <point x="736" y="796" type="line"/>
      <point x="623" y="796" type="line"/>
      <point x="528" y="956" type="line"/>
      <point x="449" y="956" type="line"/>
    </contour>
    <contour>
      <point x="610" y="1169"/>
      <point x="532" y="1169" type="qcurve" smooth="yes"/>
      <point x="449" y="1169" type="line"/>
      <point x="449" y="1052" type="line"/>
      <point x="532" y="1052" type="line" smooth="yes"/>
      <point x="610" y="1052"/>
    </contour>
  </outline>
</glyph>
<glyph name="Thorn" format="2">
  <advance width="1220"/>
  <unicode hex="00DE"/>
  <outline>
    <contour>
      <point x="114" y="1400" type="line"/>
      <point x="336" y="1400" type="line"/>
      <point x="336" y="1164" type="line"/>
      <point x="660" y="1164" type="line" smooth="yes"/>
      <point x="902" y="1164"/>
      <point x="1162" y="924"/>
      <point x="1162" y="484"/>
      <point x="902" y="245"/>
      <point x="660" y="245" type="qcurve" smooth="yes"/>
      <point x="336" y="245" type="line"/>
      <point x="336" y="0" type="line"/>
      <point x="114" y="0" type="line"/>
    </contour>
    <contour>
      <point x="935" y="969"/>
      <point x="637" y="969" type="qcurve" smooth="yes"/>
      <point x="336" y="969" type="line"/>
      <point x="336" y="439" type="line"/>
      <point x="637" y="439" type="line" smooth="yes"/>
      <point x="935" y="439"/>
    </contour>
  </outline>
</glyph>
<glyph name="eth" format="2">
  <advance width="1118"/>
  <unicode hex="00F0"/>
  <outline>
    <contour>
      <point x="54" y="506" type="qcurve" smooth="yes"/>
      <point x="54" y="661"/>
      <point x="167" y="897"/>
      <point x="369" y="1030"/>
      <point x="501" y="1030" type="qcurve" smooth="yes"/>
      <point x="674" y="1030"/>
      <point x="790" y="917" type="qcurve"/>
      <point x="740" y="1045"/>
      <point x="644" y="1164" type="qcurve"/>
      <point x="323" y="1099" type="line"/>
      <point x="289" y="1252" type="line"/>
      <point x="519" y="1298" type="line"/>
      <point x="431" y="1380"/>
      <point x="318" y="1460" type="qcurve"/>
      <point x="592" y="1460" type="line"/>
      <point x="663" y="1406"/>
      <point x="727" y="1339" type="qcurve"/>
      <point x="999" y="1393" type="line"/>
      <point x="1033" y="1242" type="line"/>
      <point x="838" y="1203" type="line"/>
      <point x="941" y="1054"/>
      <point x="1058" y="703"/>
      <point x="1058" y="527" type="qcurve" smooth="yes"/>
      <point x="1058" y="358"/>
      <point x="936" y="111"/>
      <point x="710" y="-23"/>
      <point x="401" y="-23"/>
      <point x="176" y="106"/>
      <point x="54" y="344"/>
    </contour>
    <contour>
      <point x="272" y="503" type="qcurve" smooth="yes"/>
      <point x="272" y="342"/>
      <point x="422" y="162"/>
      <point x="690" y="162"/>
      <point x="840" y="342"/>
      <point x="840" y="503" type="qcurve" smooth="yes"/>
      <point x="840" y="666"/>
      <point x="690" y="846"/>
      <point x="422" y="846"/>
      <point x="272" y="666"/>
    </contour>
  </outline>
</glyph>
<glyph name="divide" format="2">
  <advance width="1170"/>
  <unicode hex="00F7"/>
  <outline>
    <contour>
      <point x="86" y="793" type="line"/>
      <point x="1084" y="793" type="line"/>
      <point x="1084" y="607" type="line"/>
      <point x="86" y="607" type="line"/>
    </contour>
    <contour>
      <point x="441" y="348"/>
      <point x="524" y="430"/>
      <point x="647" y="430"/>
      <point x="730" y="348"/>
      <point x="730" y="226"/>
      <point x="647" y="145"/>
      <point x="524" y="145"/>
      <point x="441" y="226"/>
    </contour>
    <contour>
      <point x="441" y="1174"/>
      <point x="524" y="1255"/>
      <point x="647" y="1255"/>
      <point x="730" y="1174"/>
      <point x="730" y="1052"/>
      <point x="647" y="970"/>
      <point x="524" y="970"/>
      <point x="441" y="1052"/>
    </contour>
  </outline>
</glyph>
<glyph name="oslash" format="2">
  <advance width="1114"/>
  <unicode hex="00F8"/>
  <outline>
    <contour>
      <point x="55" y="507" type="qcurve" smooth="yes"/>
      <point x="55" y="668"/>
      <point x="179" y="906"/>
      <point x="405" y="1037"/>
      <point x="709" y="1037"/>
      <point x="824" y="971" type="qcurve"/>
      <point x="919" y="1092" type="line"/>
      <point x="1058" y="985" type="line"/>
      <point x="955" y="854" type="line"/>
      <point x="1059" y="716"/>
      <point x="1059" y="507" type="qcurve" smooth="yes"/>
      <point x="1059" y="347"/>
      <point x="936" y="108"/>
      <point x="710" y="-23"/>
      <point x="557" y="-23" type="qcurve" smooth="yes"/>
      <point x="406" y="-23"/>
      <point x="291" y="43" type="qcurve"/>
      <point x="196" y="-78" type="line"/>
      <point x="57" y="29" type="line"/>
      <point x="160" y="159" type="line"/>
      <point x="55" y="298"/>
    </contour>
    <contour>
      <point x="271" y="507" type="qcurve" smooth="yes"/>
      <point x="271" y="404"/>
      <point x="301" y="328" type="qcurve"/>
      <point x="705" y="817" type="line"/>
      <point x="642" y="854"/>
      <point x="557" y="854" type="qcurve" smooth="yes"/>
      <point x="421" y="854"/>
      <point x="271" y="671"/>
    </contour>
    <contour>
      <point x="410" y="196" type="line"/>
      <point x="472" y="160"/>
      <point x="557" y="160" type="qcurve" smooth="yes"/>
      <point x="693" y="160"/>
      <point x="844" y="342"/>
      <point x="844" y="507" type="qcurve" smooth="yes"/>
      <point x="844" y="610"/>
      <point x="814" y="685" type="qcurve"/>
    </contour>
  </outline>
</glyph>
<glyph name="dcroat" format="2">
  <advance width="1226"/>
  <unicode hex="0111"/>
  <outline>
    <contour>
      <point x="55" y="662"/>
      <point x="165" y="899"/>
      <point x="367" y="1030"/>
      <point x="505" y="1030" type="qcurve" smooth="yes"/>
      <point x="619" y="1030"/>
      <point x="790" y="934"/>
      <point x="837" y="857" type="qcurve"/>
      <point x="837" y="1152" type="line"/>
      <point x="577" y="1152" type="line"/>
      <point x="577" y="1313" type="line"/>
      <point x="837" y="1313" type="line"/>
      <point x="837" y="1460" type="line"/>
      <point x="1049" y="1460" type="line"/>
      <point x="1049" y="1313" type="line"/>
      <point x="1199" y="1313" type="line"/>
      <point x="1199" y="1152" type="line"/>
      <point x="1049" y="1152" type="line"/>
      <point x="1049" y="0" type="line"/>
      <point x="843" y="0" type="line"/>
      <point x="843" y="161" type="line"/>
      <point x="799" y="81"/>
      <point x="621" y="-23"/>
      <point x="505" y="-23" type="qcurve" smooth="yes"/>
      <point x="367" y="-23"/>
      <point x="165" y="108"/>
      <point x="55" y="345"/>
    </contour>
    <contour>
      <point x="841" y="664"/>
      <point x="691" y="845"/>
      <point x="424" y="845"/>
      <point x="273" y="663"/>
      <point x="273" y="344"/>
      <point x="424" y="162"/>
      <point x="691" y="162"/>
      <point x="841" y="346"/>
      <point x="841" y="503" type="qcurve" smooth="yes"/>
    </contour>
  </outline>
</glyph>
<glyph name="Hbar" format="2">
  <advance width="1589"/>
  <unicode hex="0126"/>
  <outline>
    <contour>
      <point x="28" y="1187" type="line"/>
      <point x="218" y="1187" type="line"/>
      <point x="218" y="1400" type="line"/>
      <point x="441" y="1400" type="line"/>
      <point x="441" y="1187" type="line"/>
      <point x="1148" y="1187" type="line"/>
      <point x="1148" y="1400" type="line"/>
      <point x="1371" y="1400" type="line"/>
      <point x="1371" y="1187" type="line"/>
      <point x="1561" y="1187" type="line"/>
      <point x="1561" y="1003" type="line"/>
      <point x="1371" y="1003" type="line"/>
      <point x="1371" y="0" type="line"/>
      <point x="1148" y="0" type="line"/>
      <point x="1148" y="602" type="line"/>
      <point x="441" y="602" type="line"/>
      <point x="441" y="0" type="line"/>
      <point x="218" y="0" type="line"/>
      <point x="218" y="1003" type="line"/>
      <point x="28" y="1003" type="line"/>
    </contour>
    <contour>
      <point x="1148" y="1003" type="line"/>
      <point x="441" y="1003" type="line"/>
      <point x="441" y="802" type="line"/>
      <point x="1148" y="802" type="line"/>
    </contour>
  </outline>
</glyph>
<glyph name="IJ" format="2">
  <advance width="1142"/>
  <unicode hex="0132"/>
  <outline>
    <contour>
      <point x="816" y="466" type="qcurve" smooth="yes"/>
      <point x="816" y="1400" type="line"/>
      <point x="1039" y="1400" type="line"/>
      <point x="1039" y="469" type="line" smooth="yes"/>
      <point x="1039" y="232"/>
      <point x="797" y="-23"/>
      <point x="568" y="-23" type="qcurve" smooth="yes"/>
      <point x="366" y="-23"/>
      <point x="133" y="183"/>
      <point x="102" y="408" type="qcurve"/>
      <point x="330" y="408" type="line"/>
      <point x="349" y="277"/>
      <point x="464" y="170"/>
      <point x="567" y="170" type="qcurve" smooth="yes"/>
      <point x="689" y="170"/>
      <point x="816" y="321"/>
    </contour>
    <contour>
      <point x="102" y="1400" type="line"/>
      <point x="326" y="1400" type="line"/>
      <point x="326" y="563" type="line"/>
      <point x="102" y="563" type="line"/>
    </contour>
  </outline>
</glyph>
<glyph name="acutecomb" format="2">
  <unicode hex="0301"/>
  <outline>
    <contour>
      <point x="28" y="1518" type="line"/>
      <point x="265" y="1518" type="line"/>
      <point x="51" y="1160" type="line"/>
      <point x="-138" y="1160" type="line"/>
    </contour>
  </outline>
</glyph>
<glyph name="tildecomb" format="2">
  <unicode hex="0303"/>
  <outline>
    <contour>
      <point x="-221" y="1176" type="qcurve"/>
      <point x="-381" y="1176" type="line"/>
      <point x="-381" y="1323"/>
      <point x="-259" y="1491"/>
      <point x="-153" y="1491" type="qcurve" smooth="yes"/>
      <point x="-94" y="1491"/>
      <point x="-1" y="1437"/>
      <point x="51" y="1370" type="qcurve" smooth="yes"/>
      <point x="83" y="1328"/>
      <point x="119" y="1298"/>
      <point x="139" y="1298" type="qcurve" smooth="yes"/>
      <point x="221" y="1298"/>
      <point x="221" y="1467" type="qcurve"/>
      <point x="381" y="1467" type="line"/>
      <point x="381" y="1321"/>
      <point x="259" y="1152"/>
      <point x="153" y="1152" type="qcurve" smooth="yes"/>
      <point x="95" y="1152"/>
      <point x="1" y="1207"/>
      <point x="-51" y="1274" type="qcurve" smooth="yes"/>
      <point x="-82" y="1315"/>
      <point x="-119" y="1345"/>
      <point x="-139" y="1345" type="qcurve" smooth="yes"/>
      <point x="-221" y="1345"/>
    </contour>
  </outline>
</glyph>
<glyph name="uni0306" format="2">
  <unicode hex="0306"/>
  <outline>
    <contour>
      <point x="-339" y="1470" type="qcurve"/>
      <point x="-166" y="1470" type="line"/>
      <point x="-166" y="1307"/>
      <point x="166" y="1307"/>
      <point x="166" y="1470" type="qcurve"/>
      <point x="339" y="1470" type="line"/>
      <point x="339" y="1310"/>
      <point x="160" y="1152"/>
      <point x="-160" y="1152"/>
      <point x="-339" y="1310"/>
    </contour>
  </outline>
</glyph>
<glyph name="uni0307" format="2">
  <unicode hex="0307"/>
  <outline>
    <contour>
      <point x="-131" y="1337"/>
      <point x="-55" y="1410"/>
      <point x="56" y="1410"/>
      <point x="131" y="1337"/>
      <point x="131" y="1228"/>
      <point x="56" y="1154"/>
      <point x="-55" y="1154"/>
      <point x="-131" y="1228"/>
    </contour>
  </outline>
</glyph>
<glyph name="uni0308" format="2">
  <unicode hex="0308"/>
  <outline>
    <contour>
      <point x="82" y="1333"/>
      <point x="153" y="1406"/>
      <point x="261" y="1406"/>
      <point x="333" y="1333"/>
      <point x="333" y="1227"/>
      <point x="261" y="1154"/>
      <point x="153" y="1154"/>
      <point x="82" y="1227"/>
    </contour>
    <contour>
      <point x="-333" y="1333"/>
      <point x="-261" y="1406"/>
      <point x="-153" y="1406"/>
      <point x="-82" y="1333"/>
      <point x="-82" y="1227"/>
      <point x="-153" y="1154"/>
      <point x="-261" y="1154"/>
      <point x="-333" y="1227"/>
    </contour>
  </outline>
</glyph>
<glyph name="uni030C" format="2">
  <unicode hex="030C"/>
  <outline>
    <contour>
      <point x="-361" y="1518" type="line"/>
      <point x="-164" y="1518" type="line"/>
      <point x="3" y="1297" type="line"/>
      <point x="169" y="1518" type="line"/>
      <point x="361" y="1518" type="line"/>
      <point x="98" y="1160" type="line"/>
      <point x="-98" y="1160" type="line"/>
    </contour>
  </outline>
</glyph>
<glyph name="uni0312" format="2">
  <unicode hex="0312"/>
  <outline>
    <contour>
      <point x="58" y="1160" type="line"/>
      <point x="-164" y="1160" type="line"/>
      <point x="11" y="1518" type="line"/>
      <point x="182" y="1518" type="line"/>
    </contour>
  </outline>
</glyph>
<glyph name="uni0327" format="2">
  <unicode hex="0327"/>
  <outline>
    <contour>
      <point x="-180" y="-345" type="line"/>
      <point x="-125" y="-368"/>
      <point x="-64" y="-368" type="qcurve" smooth="yes"/>
      <point x="-8" y="-368"/>
      <point x="54" y="-325"/>
      <point x="54" y="-288" type="qcurve" smooth="yes"/>
      <point x="54" y="-205"/>
      <point x="-68" y="-205" type="qcurve" smooth="yes"/>
      <point x="-158" y="-205" type="line"/>
      <point x="-158" y="-127" type="line"/>
      <point x="-24" y="58" type="line"/>
      <point x="93" y="7" type="line"/>
      <point x="10" y="-101" type="line"/>
      <point x="107" y="-109"/>
      <point x="217" y="-211"/>
      <point x="217" y="-295" type="qcurve" smooth="yes"/>
      <point x="217" y="-386"/>
      <point x="81" y="-495"/>
      <point x="-41" y="-495" type="qcurve" smooth="yes"/>
      <point x="-121" y="-495"/>
      <point x="-180" y="-472" type="qcurve"/>
    </contour>
  </outline>
</glyph>
<glyph name="endash" format="2">
  <advance width="1000"/>
  <unicode hex="2013"/>
  <outline>
    <contour>
      <point x="65" y="635" type="line"/>
      <point x="935" y="635" type="line"/>
      <point x="935" y="457" type="line"/>
      <point x="65" y="457" type="line"/>
    </contour>
  </outline>
</glyph>
<glyph name="daggerdbl" format="2">
  <advance width="843"/>
  <unicode hex="2021"/>
  <outline>
    <contour>
      <point x="44" y="728" type="line"/>
      <point x="332" y="728" type="line"/>
      <point x="332" y="1002" type="line"/>
      <point x="44" y="1002" type="line"/>
      <point x="44" y="1161" type="line"/>
      <point x="332" y="1161" type="line"/>
      <point x="332" y="1460" type="line"/>
      <point x="512" y="1460" type="line"/>
      <point x="512" y="1161" type="line"/>
      <point x="800" y="1161" type="line"/>
      <point x="800" y="1002" type="line"/>
      <point x="512" y="1002" type="line"/>
      <point x="512" y="728" type="line"/>
      <point x="800" y="728" type="line"/>
      <point x="800" y="570" type="line"/>
      <point x="512" y="570" type="line"/>
      <point x="512" y="271" type="line"/>
      <point x="332" y="271" type="line"/>
      <point x="332" y="570" type="line"/>
      <point x="44" y="570" type="line"/>
    </contour>
  </outline>
</glyph>
<glyph name="trademark" format="2">
  <advance width="1659"/>
  <unicode hex="2122"/>
  <outline>
    <contour>
      <point x="763" y="1400" type="line"/>
      <point x="957" y="1400" type="line"/>
      <point x="1162" y="966" type="line"/>
      <point x="1365" y="1400" type="line"/>
      <point x="1559" y="1400" type="line"/>
      <point x="1559" y="672" type="line"/>
      <point x="1406" y="672" type="line"/>
      <point x="1406" y="1155" type="line"/>
      <point x="1222" y="772" type="line"/>
      <point x="1099" y="772" type="line"/>
      <point x="917" y="1153" type="line"/>
      <point x="917" y="672" type="line"/>
      <point x="763" y="672" type="line"/>
    </contour>
    <contour>
      <point x="252" y="1261" type="line"/>
      <point x="25" y="1261" type="line"/>
      <point x="25" y="1400" type="line"/>
      <point x="641" y="1400" type="line"/>
      <point x="641" y="1261" type="line"/>
      <point x="415" y="1261" type="line"/>
      <point x="415" y="672" type="line"/>
      <point x="252" y="672" type="line"/>
    </contour>
  </outline>
</glyph>
<glyph name="minus" format="2">
  <advance width="1170"/>
  <unicode hex="2212"/>
  <outline>
    <contour>
      <point x="86" y="793" type="line"/>
      <point x="1084" y="793" type="line"/>
      <point x="1084" y="608" type="line"/>
      <point x="86" y="608" type="line"/>
    </contour>
  </outline>
</glyph>
<glyph name="A.alt" format="2">
  <advance width="1320"/>
  <outline>
    <contour>
      <point x="571.0044613945518" y="604.9846651459338" type="curve"/>
      <point x="570.9888373945516" y="604.9846651459338"/>
      <point x="570.9732113945518" y="604.9768511459333"/>
      <point x="570.9575873945516" y="604.9768511459333" type="curve"/>
      <point x="570.9732113945518" y="604.9768511459333"/>
      <point x="570.9888373945516" y="604.9846651459338"/>
    </contour>
    <contour>
      <point x="109.82477339455158" y="0.00028914593349327333" type="curve" smooth="yes"/>
      <point x="97.73883739455164" y="0.00028914593349327333"/>
      <point x="85.44196139455175" y="2.008103145934001"/>
      <point x="73.38727339455158" y="6.2424771459336625" type="curve" smooth="yes"/>
      <point x="16.066961394551754" y="26.367477145933663"/>
      <point x="-14.081474605448193" y="89.14872714593366"/>
      <point x="6.043525394551807" y="146.46122714593366" type="curve" smooth="yes"/>
      <point x="395.1372733945516" y="1254.6877891459335" type="line" smooth="yes"/>
      <point x="432.5435253945518" y="1361.2268511459333"/>
      <point x="533.5357113945518" y="1432.8049771459337"/>
      <point x="646.4419613945518" y="1432.8049771459337" type="curve" smooth="yes"/>
      <point x="758.9419613945515" y="1432.8049771459337"/>
      <point x="859.8091493945517" y="1361.5784151459338"/>
      <point x="897.4419613945515" y="1255.5627891459335" type="curve" smooth="yes"/>
      <point x="897.5591493945517" y="1255.2424771459337"/>
      <point x="897.6685253945516" y="1254.9221651459338"/>
      <point x="897.7778993945517" y="1254.6018511459333" type="curve" smooth="yes"/>
      <point x="916.2857113945515" y="1200.8987271459337"/>
      <point x="937.1997733945518" y="1138.2502891459335"/>
      <point x="959.3482113945515" y="1071.9221651459338" type="curve" smooth="yes"/>
      <point x="990.3091493945517" y="979.1877891459335"/>
      <point x="1022.3247733945518" y="883.3049771459337"/>
      <point x="1048.9107113945515" y="808.570603145934" type="curve" smooth="yes"/>
      <point x="1071.5044613945515" y="745.0627891459335"/>
      <point x="1082.7622733945518" y="689.2424771459337"/>
      <point x="1083.3325873945519" y="637.9143511459333" type="curve" smooth="yes"/>
      <point x="1083.6997733945518" y="605.2112271459337"/>
      <point x="1075.8872733945518" y="560.2268511459333"/>
      <point x="1055.4966493945517" y="538.9377891459335" type="curve"/>
      <point x="1095.4028993945517" y="527.4143511459333"/>
      <point x="1143.7310253945516" y="489.70341514593383"/>
      <point x="1160.3794613945515" y="452.8440391459335" type="curve" smooth="yes"/>
      <point x="1224.0435253945516" y="311.86747714593366"/>
      <point x="1289.2388373945519" y="151.6252891459335"/>
      <point x="1289.7388373945519" y="150.36747714593366" type="curve" smooth="yes"/>
      <point x="1312.0122733945518" y="93.8440391459335"/>
      <point x="1284.2622733945518" y="29.969039145933493"/>
      <point x="1227.7466493945517" y="7.695603145934001" type="curve" smooth="yes"/>
      <point x="1171.3169613945515" y="-14.554396854065999"/>
      <point x="1107.5513373945519" y="13.086227145933663"/>
      <point x="1085.1763373945519" y="69.42997714593366" type="curve" smooth="yes"/>
      <point x="1067.1841493945517" y="114.3127891459335"/>
      <point x="1048.2232113945515" y="158.82841514593383"/>
      <point x="1029.2935253945516" y="203.32841514593383" type="curve" smooth="yes"/>
      <point x="1013.7153993945517" y="239.9690391459335"/>
      <point x="997.9419613945515" y="276.5393511459333"/>
      <point x="981.8794613945515" y="312.9690391459335" type="curve" smooth="yes"/>
      <point x="967.6216493945517" y="345.30497714593366"/>
      <point x="961.1919613945515" y="374.945603145934"/>
      <point x="919.8872733945518" y="377.5002891459335" type="curve" smooth="yes"/>
      <point x="889.9575873945519" y="379.3518511459333"/>
      <point x="775.5435253945516" y="348.46122714593366"/>
      <point x="731.3950873945519" y="340.3127891459335" type="curve"/>
      <point x="698.2232113945518" y="336.5315391459335"/>
      <point x="665.4888373945516" y="334.445603145934"/>
      <point x="632.8013373945516" y="337.7502891459335" type="curve" smooth="yes"/>
      <point x="584.3325873945516" y="342.14872714593366"/>
      <point x="534.5200873945516" y="350.4065391459335"/>
      <point x="496.53571139455175" y="382.92997714593366" type="curve" smooth="yes"/>
      <point x="451.1997733945516" y="419.36747714593366"/>
      <point x="438.05133739455164" y="487.445603145934"/>
      <point x="467.5747733945516" y="537.5549771459337" type="curve" smooth="yes"/>
      <point x="488.27008739455164" y="575.695603145934"/>
      <point x="530.8091493945517" y="595.3518511459333"/>
      <point x="571.4263373945516" y="605.070603145934" type="curve" smooth="yes"/>
      <point x="640.2857113945518" y="619.1799771459337"/>
      <point x="689.1607113945518" y="624.1096651459338"/>
      <point x="861.0200873945519" y="611.945603145934" type="curve"/>
      <point x="866.3716493945517" y="632.4299771459337"/>
      <point x="863.6450873945519" y="673.0002891459335"/>
      <point x="841.6450873945519" y="734.8362271459337" type="curve" smooth="yes"/>
      <point x="814.3403993945517" y="811.5940391459335"/>
      <point x="781.9810253945516" y="908.5159151459338"/>
      <point x="750.6841493945517" y="1002.258103145934" type="curve" smooth="yes"/>
      <point x="728.7935253945516" y="1067.8049771459337"/>
      <point x="708.1138373945516" y="1129.7346651459338"/>
      <point x="690.0044613945518" y="1182.3049771459337" type="curve" smooth="yes"/>
      <point x="683.3638373945516" y="1200.570603145934"/>
      <point x="665.9028993945517" y="1212.8127891459335"/>
      <point x="646.4419613945518" y="1212.8127891459335" type="curve" smooth="yes"/>
      <point x="626.7935253945518" y="1212.8127891459335"/>
      <point x="609.2153993945517" y="1200.3518511459333"/>
      <point x="602.7075873945516" y="1181.8127891459335" type="curve" smooth="yes"/>
      <point x="213.61383739455164" y="73.58622714593366" type="line" smooth="yes"/>
      <point x="197.72321139455175" y="28.320603145934"/>
      <point x="155.22321139455175" y="0.00028914593349327333"/>
    </contour>
  </outline>
</glyph>
<glyph name="B.alt" format="2">
  <advance width="1257"/>
  <outline>
    <contour>
      <point x="814.1093760000003" y="274.0625" type="curve" smooth="yes"/>
      <point x="792.3515620000003" y="249.39062399999966"/>
      <point x="754.09375" y="219.99218800000017"/>
      <point x="695.3906260000003" y="219.99218800000017" type="curve" smooth="yes"/>
      <point x="229.99218800000017" y="219.99218800000017" type="line" smooth="yes"/>
      <point x="224.46875" y="219.99218800000017"/>
      <point x="219.99218800000017" y="224.46875"/>
      <point x="219.99218800000017" y="229.99218800000017" type="curve" smooth="yes"/>
      <point x="219.99218800000017" y="1202.78125" type="line" smooth="yes"/>
      <point x="219.99218800000017" y="1208.3046880000002"/>
      <point x="224.46875" y="1212.78125"/>
      <point x="229.99218800000017" y="1212.78125" type="curve" smooth="yes"/>
      <point x="555.195314" y="1212.78125" type="line" smooth="yes"/>
      <point x="627.9921880000002" y="1212.78125"/>
      <point x="691.7343760000003" y="1193.1093739999997"/>
      <point x="734.695314" y="1157.3984359999995" type="curve" smooth="yes"/>
      <point x="768.84375" y="1129.0078119999998"/>
      <point x="787.6484380000002" y="1092.0"/>
      <point x="787.6484380000002" y="1053.2031239999997" type="curve" smooth="yes"/>
      <point x="787.6484380000002" y="1009.6484359999995"/>
      <point x="784.4921880000002" y="946.3046880000002"/>
      <point x="757.15625" y="899.3203119999998" type="curve" smooth="yes"/>
      <point x="748.71875" y="884.8125"/>
      <point x="738.3359380000002" y="873.1484359999995"/>
      <point x="726.6718760000003" y="863.7890619999998" type="curve"/>
      <point x="680.71875" y="877.1718739999997"/>
      <point x="633.3359380000002" y="884.21875"/>
      <point x="586.4140620000003" y="884.21875" type="curve" smooth="yes"/>
      <point x="543.382814" y="884.21875"/>
      <point x="510.6875" y="879.9453119999998"/>
      <point x="483.5390620000003" y="870.78125" type="curve" smooth="yes"/>
      <point x="412.53125" y="846.8046880000002"/>
      <point x="387.23437600000034" y="790.4531239999997"/>
      <point x="387.23437600000034" y="745.7109359999995" type="curve" smooth="yes"/>
      <point x="387.23437600000034" y="703.9140619999998"/>
      <point x="410.14843800000017" y="649.9375"/>
      <point x="474.4375" y="623.7968739999997" type="curve" smooth="yes"/>
      <point x="503.65625" y="611.9218739999997"/>
      <point x="539.2343760000003" y="606.3906239999997"/>
      <point x="586.4140620000003" y="606.3906239999997" type="curve" smooth="yes"/>
      <point x="642.4843760000003" y="606.3906239999997"/>
      <point x="690.8515620000003" y="613.4218739999997"/>
      <point x="732.5468760000003" y="625.2968739999997" type="curve"/>
      <point x="813.8125" y="578.625"/>
      <point x="865.78125" y="497.24218800000017"/>
      <point x="865.78125" y="421.74218800000017" type="curve" smooth="yes"/>
      <point x="865.78125" y="364.28906199999983"/>
      <point x="847.4296880000002" y="311.84375"/>
    </contour>
    <contour>
      <point x="925.8515619999998" y="756.0234359999995" type="curve"/>
      <point x="933.9765619999998" y="767.0156239999997"/>
      <point x="941.09375" y="777.9921880000002"/>
      <point x="947.3203140000005" y="788.7031239999997" type="curve" smooth="yes"/>
      <point x="1001.3906260000003" y="881.65625"/>
      <point x="1007.6406260000003" y="984.1796880000002"/>
      <point x="1007.6406260000003" y="1053.2031239999997" type="curve" smooth="yes"/>
      <point x="1007.6406260000003" y="1105.9531239999997"/>
      <point x="995.7656260000003" y="1156.875"/>
      <point x="972.3359380000002" y="1204.5625" type="curve" smooth="yes"/>
      <point x="949.5468760000003" y="1250.9453119999998"/>
      <point x="916.9140619999998" y="1291.9921880000002"/>
      <point x="875.3359380000002" y="1326.5625" type="curve" smooth="yes"/>
      <point x="791.757814" y="1396.0468739999997"/>
      <point x="681.0546880000002" y="1432.7734359999995"/>
      <point x="555.195314" y="1432.7734359999995" type="curve" smooth="yes"/>
      <point x="111.17968800000017" y="1432.7734359999995" type="line" smooth="yes"/>
      <point x="110.97656200000029" y="1432.7734359999995"/>
      <point x="110.78125" y="1432.7578119999998"/>
      <point x="110.58593800000017" y="1432.7578119999998" type="curve" smooth="yes"/>
      <point x="110.39062600000034" y="1432.7578119999998"/>
      <point x="110.19531400000005" y="1432.7734359999995"/>
      <point x="110.0" y="1432.7734359999995" type="curve" smooth="yes"/>
      <point x="49.25" y="1432.7734359999995"/>
      <point x="0.0" y="1383.5234359999995"/>
      <point x="0.0" y="1322.78125" type="curve" smooth="yes"/>
      <point x="0.0" y="109.99218800000017" type="line" smooth="yes"/>
      <point x="0.0" y="49.24218800000017"/>
      <point x="49.25" y="0.0"/>
      <point x="110.0" y="0.0" type="curve" smooth="yes"/>
      <point x="113.16406200000029" y="0.0"/>
      <point x="116.29687600000034" y="0.16406199999983073"/>
      <point x="119.39843800000017" y="0.42968800000016927" type="curve"/>
      <point x="122.5" y="0.16406199999983073"/>
      <point x="125.63281400000005" y="0.0"/>
      <point x="128.80468800000017" y="0.0" type="curve" smooth="yes"/>
      <point x="695.3906260000003" y="0.0" type="line" smooth="yes"/>
      <point x="805.2343760000003" y="0.0"/>
      <point x="905.9921880000002" y="45.64843599999949"/>
      <point x="979.1015619999998" y="128.54687399999966" type="curve" smooth="yes"/>
      <point x="1047.8906260000003" y="206.53906199999983"/>
      <point x="1085.7734380000002" y="310.67187399999966"/>
      <point x="1085.7734380000002" y="421.74218800000017" type="curve" smooth="yes"/>
      <point x="1085.7734380000002" y="548.6796880000002"/>
      <point x="1029.0078140000005" y="667.25"/>
    </contour>
  </outline>
</glyph>
<glyph name="E.alt" format="2">
  <advance width="1138"/>
  <outline>
    <contour>
      <point x="831.9453119999998" y="0.0" type="curve" smooth="yes"/>
      <point x="110.0" y="0.0" type="line" smooth="yes"/>
      <point x="49.25" y="0.0"/>
      <point x="0.0" y="49.24218800000017"/>
      <point x="0.0" y="109.99218800000017" type="curve" smooth="yes"/>
      <point x="0.0" y="555.0390619999998" type="line" smooth="yes"/>
      <point x="0.0" y="597.3828119999998"/>
      <point x="14.328123999999661" y="660.34375"/>
      <point x="82.26562399999966" y="720.7031260000003" type="curve"/>
      <point x="78.32812399999966" y="724.5468739999997"/>
      <point x="74.53125" y="728.4609380000002"/>
      <point x="70.875" y="732.4453119999998" type="curve" smooth="yes"/>
      <point x="24.50781199999983" y="782.96875"/>
      <point x="0.0" y="846.1328119999998"/>
      <point x="0.0" y="915.1171880000002" type="curve" smooth="yes"/>
      <point x="0.0" y="1322.7734380000002" type="line" smooth="yes"/>
      <point x="0.0" y="1383.5234380000002"/>
      <point x="49.25" y="1432.7734380000002"/>
      <point x="110.0" y="1432.7734380000002" type="curve" smooth="yes"/>
      <point x="807.5" y="1432.7734380000002" type="line" smooth="yes"/>
      <point x="867.9531239999997" y="1432.7734380000002"/>
      <point x="918.34375" y="1384.6875"/>
      <point x="919.125" y="1324.2343739999997" type="curve" smooth="yes"/>
      <point x="919.9218760000003" y="1262.8203119999998"/>
      <point x="870.3671880000002" y="1212.78125"/>
      <point x="809.1406239999997" y="1212.78125" type="curve" smooth="yes"/>
      <point x="229.99218800000017" y="1212.78125" type="line" smooth="yes"/>
      <point x="224.46875" y="1212.78125"/>
      <point x="219.99218800000017" y="1208.3046880000002"/>
      <point x="219.99218800000017" y="1202.78125" type="curve" smooth="yes"/>
      <point x="219.99218800000017" y="915.1171880000002" type="line" smooth="yes"/>
      <point x="219.99218800000017" y="901.5078119999998"/>
      <point x="219.99218800000017" y="873.1875"/>
      <point x="296.25" y="842.6640619999998" type="curve" smooth="yes"/>
      <point x="300.61718800000017" y="840.9218739999997"/>
      <point x="305.08593800000017" y="839.2343739999997"/>
      <point x="309.64843800000017" y="837.6015619999998" type="curve"/>
      <point x="385.71093800000017" y="861.9140619999998"/>
      <point x="458.83593800000017" y="876.0234380000002"/>
      <point x="506.66406199999983" y="881.1953119999998" type="curve" smooth="yes"/>
      <point x="569.3984380000002" y="887.9921880000002"/>
      <point x="634.7890619999998" y="890.8984380000002"/>
      <point x="684.2734380000002" y="846.4843739999997" type="curve" smooth="yes"/>
      <point x="730.7578119999998" y="804.7578119999998"/>
      <point x="730.7578119999998" y="749.1406260000003"/>
      <point x="730.7578119999998" y="730.8593739999997" type="curve" smooth="yes"/>
      <point x="730.7578119999998" y="685.6015619999998"/>
      <point x="713.1015619999998" y="645.0"/>
      <point x="681.03125" y="616.5156260000003" type="curve" smooth="yes"/>
      <point x="626.4453119999998" y="568.0390619999998"/>
      <point x="551.6718760000003" y="570.5781260000003"/>
      <point x="500.17968800000017" y="576.7109380000002" type="curve" smooth="yes"/>
      <point x="442.51562399999966" y="583.5703119999998"/>
      <point x="379.30468800000017" y="591.9609380000002"/>
      <point x="317.5" y="606.5546880000002" type="curve"/>
      <point x="299.03125" y="598.9296880000002"/>
      <point x="283.64062399999966" y="591.5468739999997"/>
      <point x="270.91406199999983" y="584.6718739999997" type="curve" smooth="yes"/>
      <point x="239.57812399999966" y="567.7343739999997"/>
      <point x="219.99218800000017" y="535.0625"/>
      <point x="219.99218800000017" y="499.44531199999983" type="curve" smooth="yes"/>
      <point x="219.99218800000017" y="229.99218800000017" type="line" smooth="yes"/>
      <point x="219.99218800000017" y="224.46093800000017"/>
      <point x="224.46875" y="219.99218800000017"/>
      <point x="229.99218800000017" y="219.99218800000017" type="curve" smooth="yes"/>
      <point x="830.3046880000002" y="219.99218800000017" type="line" smooth="yes"/>
      <point x="890.7656239999997" y="219.99218800000017"/>
      <point x="941.1484380000002" y="171.89843800000017"/>
      <point x="941.9375" y="111.45312600000034" type="curve" smooth="yes"/>
      <point x="942.7265619999998" y="50.03125"/>
      <point x="893.1796880000002" y="0.0"/>
    </contour>
  </outline>
</glyph>
<glyph name="F.alt" format="2">
  <advance width="1098"/>
  <outline>
    <contour>
      <point x="110.53125200000795" y="-0.005264458626697888" type="curve" smooth="yes"/>
      <point x="50.085938000007445" y="0.7759855413733021"/>
      <point x="2.000000000007276" y="51.16661154137364"/>
      <point x="2.000000000007276" y="111.6197355413733" type="curve" smooth="yes"/>
      <point x="2.000000000007276" y="555.0259855413733" type="line" smooth="yes"/>
      <point x="2.000000000007276" y="597.3697355413733"/>
      <point x="16.328126000007614" y="660.3306735413735"/>
      <point x="84.26562600000761" y="720.6900495413738" type="curve"/>
      <point x="80.32812600000761" y="724.5337975413731"/>
      <point x="76.52343800000745" y="728.4478615413736"/>
      <point x="72.86718800000745" y="732.4322355413733" type="curve" smooth="yes"/>
      <point x="26.500000000007276" y="782.9556735413735"/>
      <point x="2.000000000007276" y="846.1197355413733"/>
      <point x="2.000000000007276" y="915.1041115413736" type="curve" smooth="yes"/>
      <point x="2.000000000007276" y="1322.7603615413736" type="line" smooth="yes"/>
      <point x="2.000000000007276" y="1383.5103615413736"/>
      <point x="51.242188000007445" y="1432.7603615413736"/>
      <point x="111.99218800000745" y="1432.7603615413736" type="curve" smooth="yes"/>
      <point x="809.4921880000074" y="1432.7603615413736" type="line" smooth="yes"/>
      <point x="869.9453140000078" y="1432.7603615413736"/>
      <point x="920.3359380000074" y="1384.6744235413735"/>
      <point x="921.1171880000074" y="1324.2212975413731" type="curve" smooth="yes"/>
      <point x="921.9140640000078" y="1262.8072355413733"/>
      <point x="872.3671880000074" y="1212.7681735413735"/>
      <point x="811.1328140000078" y="1212.7681735413735" type="curve" smooth="yes"/>
      <point x="231.99218800000745" y="1212.7681735413735" type="line" smooth="yes"/>
      <point x="226.46875200000795" y="1212.7681735413735"/>
      <point x="221.99218800000745" y="1208.2916115413736"/>
      <point x="221.99218800000745" y="1202.7681735413735" type="curve" smooth="yes"/>
      <point x="221.99218800000745" y="915.1041115413736" type="line" smooth="yes"/>
      <point x="221.99218800000745" y="901.4947355413733"/>
      <point x="221.99218800000745" y="873.1744235413735"/>
      <point x="298.24218800000745" y="842.6509855413733" type="curve" smooth="yes"/>
      <point x="302.6093760000076" y="840.9087975413731"/>
      <point x="307.08593800000745" y="839.2212975413731"/>
      <point x="311.6406260000076" y="837.5884855413733" type="curve"/>
      <point x="387.7031260000076" y="861.9009855413733"/>
      <point x="460.8281260000076" y="876.0103615413736"/>
      <point x="508.6640640000078" y="881.1822355413733" type="curve" smooth="yes"/>
      <point x="571.3906260000076" y="887.9791115413736"/>
      <point x="636.781252000008" y="890.8853615413736"/>
      <point x="686.2656260000076" y="846.4712975413731" type="curve" smooth="yes"/>
      <point x="732.7578140000078" y="804.7447355413733"/>
      <point x="732.7578140000078" y="749.1275495413738"/>
      <point x="732.7578140000078" y="730.8462975413731" type="curve" smooth="yes"/>
      <point x="732.7578140000078" y="685.5884855413733"/>
      <point x="715.093752000008" y="644.9869235413735"/>
      <point x="683.0234380000074" y="616.5025495413738" type="curve" smooth="yes"/>
      <point x="628.4375000000073" y="568.0259855413733"/>
      <point x="553.6718760000076" y="570.5650495413738"/>
      <point x="502.1718760000076" y="576.6978615413736" type="curve" smooth="yes"/>
      <point x="444.5156260000076" y="583.5572355413733"/>
      <point x="381.2968760000076" y="591.9478615413736"/>
      <point x="319.5000000000073" y="606.5416115413736" type="curve"/>
      <point x="301.64843800000745" y="599.1744235413735"/>
      <point x="286.67968800000745" y="592.0337975413731"/>
      <point x="274.21093800000745" y="585.3541115413736" type="curve" smooth="yes"/>
      <point x="242.00781400000778" y="568.1197355413733"/>
      <point x="221.98437600000761" y="534.4869235413735"/>
      <point x="221.98437600000761" y="497.95567354137347" type="curve" smooth="yes"/>
      <point x="221.99218800000745" y="109.97911154137364" type="line" smooth="yes"/>
      <point x="221.99218800000745" y="48.7447355413733"/>
      <point x="171.95312600000761" y="-0.8021384586263594"/>
    </contour>
  </outline>
</glyph>
<glyph name="K.alt" format="2">
  <advance width="1219"/>
  <outline>
    <contour>
      <point x="965.5625000000073" y="0.0" type="curve"/>
      <point x="929.4843740000069" y="0.0"/>
      <point x="894.1484360000068" y="17.72656199999983"/>
      <point x="873.0937480000066" y="50.28124799999932" type="curve" smooth="yes"/>
      <point x="871.7500000000073" y="52.35156199999983"/>
      <point x="737.2578120000071" y="260.32031199999983"/>
      <point x="593.5937480000066" y="484.44531199999983" type="curve" smooth="yes"/>
      <point x="575.1093740000069" y="513.2812479999993"/>
      <point x="577.3281240000069" y="543.5156239999997"/>
      <point x="565.7812480000066" y="605.5468739999997" type="curve"/>
      <point x="465.32812400000694" y="457.79687399999966"/>
      <point x="331.0937480000066" y="257.7187479999993"/>
      <point x="203.23437400000694" y="67.84374799999932" type="curve" smooth="yes"/>
      <point x="175.3828120000071" y="26.492185999999492"/>
      <point x="123.05468600000677" y="8.890623999999661"/>
      <point x="75.6328120000071" y="25.468747999999323" type="curve" smooth="yes"/>
      <point x="31.132812000007107" y="41.03124799999932"/>
      <point x="2.000000000007276" y="83.89062399999966"/>
      <point x="2.000000000007276" y="131.03124799999932" type="curve" smooth="yes"/>
      <point x="2.000000000007276" y="1340.4296859999995" type="line" smooth="yes"/>
      <point x="2.000000000007276" y="1400.875"/>
      <point x="50.08593600000677" y="1451.2656239999997"/>
      <point x="110.5312480000066" y="1452.0546859999995" type="curve" smooth="yes"/>
      <point x="171.95312400000694" y="1452.8515619999998"/>
      <point x="221.98437400000694" y="1403.3046859999995"/>
      <point x="221.98437400000694" y="1342.0703119999998" type="curve" smooth="yes"/>
      <point x="221.98437400000694" y="508.39062399999966" type="line" smooth="yes"/>
      <point x="221.98437400000694" y="502.47656199999983"/>
      <point x="229.6328120000071" y="500.1171859999995"/>
      <point x="232.95312400000694" y="505.01562399999966" type="curve" smooth="yes"/>
      <point x="327.08593600000677" y="644.0781239999997"/>
      <point x="433.64062400000694" y="800.9531239999997"/>
      <point x="527.4765620000071" y="937.7890619999998" type="curve"/>
      <point x="529.0625000000073" y="946.125"/>
      <point x="530.7734360000068" y="954.5234359999995"/>
      <point x="532.6015620000071" y="962.9453119999998" type="curve" smooth="yes"/>
      <point x="564.3281240000069" y="1108.9453119999998"/>
      <point x="634.0546860000068" y="1261.1718739999997"/>
      <point x="719.1328120000071" y="1370.1484359999995" type="curve" smooth="yes"/>
      <point x="730.3515620000071" y="1384.5234359999995"/>
      <point x="790.5000000000073" y="1456.5546859999995"/>
      <point x="872.6953120000071" y="1462.8437479999993" type="curve" smooth="yes"/>
      <point x="913.2578120000071" y="1465.9531239999997"/>
      <point x="951.6093740000069" y="1452.5937479999993"/>
      <point x="980.6796860000068" y="1425.2343739999997" type="curve" smooth="yes"/>
      <point x="981.4140620000071" y="1424.5468739999997"/>
      <point x="982.1406240000069" y="1423.8359359999995"/>
      <point x="982.8593740000069" y="1423.125" type="curve" smooth="yes"/>
      <point x="1001.9218740000069" y="1404.1640619999998"/>
      <point x="1031.453124000007" y="1361.9609359999995"/>
      <point x="1015.0703120000071" y="1292.2968739999997" type="curve" smooth="yes"/>
      <point x="1010.4843740000069" y="1272.7812479999993"/>
      <point x="1002.4843740000069" y="1251.5546859999995"/>
      <point x="990.6093740000069" y="1227.3984359999995" type="curve" smooth="yes"/>
      <point x="972.7812480000066" y="1191.1093739999997"/>
      <point x="950.0390620000071" y="1156.2343739999997"/>
      <point x="939.1093740000069" y="1141.6406239999997" type="curve" smooth="yes"/>
      <point x="938.7578120000071" y="1141.1718739999997"/>
      <point x="938.3984360000068" y="1140.6953119999998"/>
      <point x="938.0312480000066" y="1140.2343739999997" type="curve" smooth="yes"/>
      <point x="915.4531240000069" y="1111.0937479999993"/>
      <point x="861.1484360000068" y="1034.2109359999995"/>
      <point x="781.0625000000073" y="918.2578119999998" type="curve" smooth="yes"/>
      <point x="745.5859360000068" y="866.8984359999995"/>
      <point x="728.6875000000073" y="804.7421859999995"/>
      <point x="734.4062480000066" y="742.5859359999995" type="curve" smooth="yes"/>
      <point x="734.4453120000071" y="742.2343739999997"/>
      <point x="734.4765620000071" y="741.8828119999998"/>
      <point x="734.5078120000071" y="741.5312479999993" type="curve" smooth="yes"/>
      <point x="739.6015620000071" y="687.6171859999995"/>
      <point x="754.5078120000071" y="641.0625"/>
      <point x="778.7968740000069" y="603.1718739999997" type="curve" smooth="yes"/>
      <point x="922.2187480000066" y="379.4296859999995"/>
      <point x="1056.476562000007" y="171.82031199999983"/>
      <point x="1057.820312000007" y="169.75" type="curve" smooth="yes"/>
      <point x="1090.8125000000073" y="118.74218599999949"/>
      <point x="1076.203124000007" y="50.64062399999966"/>
      <point x="1025.195312000007" y="17.648435999999492" type="curve" smooth="yes"/>
      <point x="1006.7343740000069" y="5.710935999999492"/>
      <point x="986.0234360000068" y="0.007811999999830732"/>
    </contour>
  </outline>
</glyph>
<glyph name="M.alt" format="2">
  <advance width="1655"/>
  <outline>
    <contour>
      <point x="1285.0390640000005" y="1428.1355455514404" type="curve" smooth="yes"/>
      <point x="1238.4843760000003" y="1442.0730455514404"/>
      <point x="1188.2968760000003" y="1423.80741955144"/>
      <point x="1161.5859380000002" y="1383.2058575514402" type="curve" smooth="yes"/>
      <point x="1144.9375" y="1357.8933575514402"/>
      <point x="854.5" y="948.3464815514399"/>
      <point x="681.7421880000002" y="709.8152315514399" type="curve"/>
      <point x="508.98437600000034" y="948.3464815514399"/>
      <point x="218.54687600000034" y="1357.8933575514402"/>
      <point x="201.89843800000017" y="1383.2058575514402" type="curve" smooth="yes"/>
      <point x="175.1953140000005" y="1423.80741955144"/>
      <point x="125.00781400000051" y="1442.0730455514404"/>
      <point x="78.45312600000034" y="1428.1355455514404" type="curve" smooth="yes"/>
      <point x="31.89062600000034" y="1414.1980455514404"/>
      <point x="0.0" y="1371.3621075514402"/>
      <point x="0.0" y="1322.7605455514404" type="curve" smooth="yes"/>
      <point x="0.0" y="111.61991955144003" type="line" smooth="yes"/>
      <point x="0.0" y="51.166793551439696"/>
      <point x="48.09375200000068" y="0.7761695514400344"/>
      <point x="108.53906400000051" y="-0.005080448559965589" type="curve" smooth="yes"/>
      <point x="169.95312600000034" y="-0.8097684485601349"/>
      <point x="219.99218800000017" y="48.744919551440034"/>
      <point x="219.99218800000017" y="109.9792935514397" type="curve" smooth="yes"/>
      <point x="219.99218800000017" y="957.55741955144" type="line" smooth="yes"/>
      <point x="219.99218800000017" y="963.40116955144"/>
      <point x="227.48437600000034" y="965.80741955144"/>
      <point x="230.875" y="961.0496075514402" type="curve" smooth="yes"/>
      <point x="338.17187600000034" y="810.43241955144"/>
      <point x="462.42187600000034" y="637.0964815514399"/>
      <point x="544.7890640000005" y="524.2371075514402" type="curve" smooth="yes"/>
      <point x="548.5937520000007" y="519.0183575514402"/>
      <point x="549.5312520000007" y="512.2527315514399"/>
      <point x="547.2812520000007" y="506.1980455514404" type="curve" smooth="yes"/>
      <point x="547.25" y="506.1121075514402" type="line" smooth="yes"/>
      <point x="531.4062520000007" y="463.2917935514397"/>
      <point x="514.2187520000007" y="398.84648155143987"/>
      <point x="533.6640640000005" y="329.6667935514397" type="curve" smooth="yes"/>
      <point x="549.1953140000005" y="274.4246075514402"/>
      <point x="595.0859380000002" y="198.7058575514402"/>
      <point x="681.7421880000002" y="198.7058575514402" type="curve" smooth="yes"/>
      <point x="766.6718760000003" y="198.7058575514402"/>
      <point x="816.5468760000003" y="276.4167935514397"/>
      <point x="829.8203140000005" y="329.6667935514397" type="curve" smooth="yes"/>
      <point x="847.2031260000003" y="399.3933575514402"/>
      <point x="832.0859380000002" y="463.2917935514397"/>
      <point x="816.2343760000003" y="506.1121075514402" type="curve" smooth="yes"/>
      <point x="816.2031260000003" y="506.1980455514404" type="line" smooth="yes"/>
      <point x="813.9609380000002" y="512.2527315514399"/>
      <point x="814.8906260000003" y="519.0183575514402"/>
      <point x="818.6953140000005" y="524.2371075514402" type="curve" smooth="yes"/>
      <point x="901.0703140000005" y="637.0964815514399"/>
      <point x="1025.3125" y="810.43241955144"/>
      <point x="1132.6171880000002" y="961.0496075514402" type="curve" smooth="yes"/>
      <point x="1136.0" y="965.80741955144"/>
      <point x="1143.4921880000002" y="963.40116955144"/>
      <point x="1143.4921880000002" y="957.55741955144" type="curve" smooth="yes"/>
      <point x="1143.4921880000002" y="111.61991955144003" type="line" smooth="yes"/>
      <point x="1143.4921880000002" y="51.166793551439696"/>
      <point x="1191.5781260000003" y="0.7761695514400344"/>
      <point x="1252.0312520000007" y="-0.005080448559965589" type="curve" smooth="yes"/>
      <point x="1313.4453140000005" y="-0.801954448559627"/>
      <point x="1363.4843760000003" y="48.744919551440034"/>
      <point x="1363.4843760000003" y="109.9792935514397" type="curve" smooth="yes"/>
      <point x="1363.4843760000003" y="1322.7605455514404" type="line" smooth="yes"/>
      <point x="1363.4843760000003" y="1371.3621075514402"/>
      <point x="1331.5937520000007" y="1414.1980455514404"/>
    </contour>
  </outline>
</glyph>
<glyph name="M.alt2" format="2">
  <advance width="1655"/>
  <outline>
    <contour>
      <point x="1392.9531240000215" y="596.1484359999995" type="curve" smooth="yes"/>
      <point x="1270.7578120000217" y="798.8437479999993" type="line" smooth="yes"/>
      <point x="1237.6875000000218" y="852.3359359999995"/>
      <point x="1205.9140620000217" y="901.5781239999997"/>
      <point x="1175.4140620000217" y="946.5546859999995" type="curve"/>
      <point x="1285.5468760000222" y="1115.6328119999998"/>
      <point x="1376.398438000022" y="1199.875"/>
      <point x="1484.4453120000217" y="1199.875" type="curve" smooth="yes"/>
      <point x="1708.898438000022" y="1199.875"/>
      <point x="1888.4687500000218" y="871.1718739999997"/>
      <point x="1888.4687500000218" y="467.4062479999993" type="curve" smooth="yes"/>
      <point x="1888.4687500000218" y="313.50781199999983"/>
      <point x="1837.7890620000217" y="224.20312399999966"/>
      <point x="1732.7812500000218" y="224.20312399999966" type="curve" smooth="yes"/>
      <point x="1632.1328120000217" y="224.20312399999966"/>
      <point x="1584.054688000022" y="290.32031199999983"/>
    </contour>
    <contour>
      <point x="726.0468760000222" y="561.4609359999995" type="curve"/>
      <point x="549.3437500000218" y="285.95312399999966"/>
      <point x="488.2187500000218" y="224.20312399999966"/>
      <point x="389.835938000022" y="224.20312399999966" type="curve" smooth="yes"/>
      <point x="288.5937500000218" y="224.20312399999966"/>
      <point x="228.41406200002166" y="312.6171859999995"/>
      <point x="228.41406200002166" y="470.26562399999966" type="curve" smooth="yes"/>
      <point x="228.41406200002166" y="807.5156239999997"/>
      <point x="397.47656200002166" y="1152.375"/>
      <point x="599.0156240000215" y="1152.375" type="curve" smooth="yes"/>
      <point x="708.1562500000218" y="1152.375"/>
      <point x="799.3515620000217" y="1089.6796859999995"/>
      <point x="939.054688000022" y="890.7656239999997" type="curve"/>
      <point x="806.4062500000218" y="688.3906239999997"/>
      <point x="726.0468760000222" y="561.4609359999995"/>
    </contour>
    <contour>
      <point x="1498.773438000022" y="1377.5234359999995" type="curve" smooth="yes"/>
      <point x="1327.8750000000218" y="1377.5234359999995"/>
      <point x="1194.2890620000217" y="1249.5078119999998"/>
      <point x="1073.3593760000222" y="1086.875" type="curve"/>
      <point x="907.179688000022" y="1297.3359359999995"/>
      <point x="768.1953120000217" y="1377.5234359999995"/>
      <point x="601.8828120000217" y="1377.5234359999995" type="curve" smooth="yes"/>
      <point x="262.79687600002217" y="1377.5234359999995"/>
      <point x="3.000000000021828" y="938.6171859999995"/>
      <point x="3.000000000021828" y="474.0625" type="curve" smooth="yes"/>
      <point x="3.000000000021828" y="183.35937399999966"/>
      <point x="144.398438000022" y="0.0"/>
      <point x="381.242188000022" y="0.0" type="curve" smooth="yes"/>
      <point x="551.7031240000215" y="0.0"/>
      <point x="674.304688000022" y="79.9375"/>
      <point x="892.2500000000218" y="458.85937399999966" type="curve"/>
      <point x="892.2500000000218" y="458.85937399999966"/>
      <point x="983.1015620000217" y="618.4375"/>
      <point x="1045.5937500000218" y="728.3593739999997" type="curve"/>
      <point x="1067.5000000000218" y="693.1875"/>
      <point x="1090.5703120000217" y="655.2890619999998"/>
      <point x="1114.7968760000222" y="614.6640619999998" type="curve" smooth="yes"/>
      <point x="1217.0000000000218" y="443.6562479999993" type="line" smooth="yes"/>
      <point x="1416.085938000022" y="112.30468599999949"/>
      <point x="1527.0078120000217" y="0.0"/>
      <point x="1728.0078120000217" y="0.0" type="curve" smooth="yes"/>
      <point x="1958.7343760000222" y="0.0"/>
      <point x="2087.1406240000215" y="185.85937399999966"/>
      <point x="2087.1406240000215" y="482.6171859999995" type="curve" smooth="yes"/>
      <point x="2087.1406240000215" y="969.0234359999995"/>
      <point x="1821.4843760000222" y="1377.5234359999995"/>
    </contour>
  </outline>
</glyph>
<glyph name="O.alt" format="2">
  <advance width="1469"/>
  <outline>
    <contour>
      <point x="786.3359380000002" y="182.53906199999983" type="curve" smooth="yes"/>
      <point x="499.2578140000005" y="182.53906199999983"/>
      <point x="266.5390640000005" y="415.26562399999966"/>
      <point x="266.5390640000005" y="702.3437479999993" type="curve" smooth="yes"/>
      <point x="266.5390640000005" y="989.4218739999997"/>
      <point x="499.2578140000005" y="1222.1406239999997"/>
      <point x="786.3359380000002" y="1222.1406239999997" type="curve" smooth="yes"/>
      <point x="1073.4140640000005" y="1222.1406239999997"/>
      <point x="1306.1406260000003" y="989.4218739999997"/>
      <point x="1306.1406260000003" y="702.3437479999993" type="curve" smooth="yes"/>
      <point x="1306.1406260000003" y="415.26562399999966"/>
      <point x="1073.4140640000005" y="182.53906199999983"/>
    </contour>
    <contour>
      <point x="786.3359380000002" y="1427.6875" type="curve" smooth="yes"/>
      <point x="385.74218800000017" y="1427.6875"/>
      <point x="61.0" y="1102.9375"/>
      <point x="61.0" y="702.3437479999993" type="curve" smooth="yes"/>
      <point x="61.0" y="301.75"/>
      <point x="385.74218800000017" y="-23.0"/>
      <point x="786.3359380000002" y="-23.0" type="curve" smooth="yes"/>
      <point x="1186.9375" y="-23.0"/>
      <point x="1511.6796880000002" y="301.75"/>
      <point x="1511.6796880000002" y="702.3437479999993" type="curve" smooth="yes"/>
      <point x="1511.6796880000002" y="1102.9375"/>
      <point x="1186.9375" y="1427.6875"/>
    </contour>
  </outline>
</glyph>
<glyph name="P.alt" format="2">
  <advance width="1220"/>
  <outline>
    <contour>
      <point x="219.99218800000017" y="1069.8593739999997" type="line" smooth="yes"/>
      <point x="219.99218800000017" y="969.375"/>
      <point x="233.14062600000034" y="884.8515619999998"/>
      <point x="259.08593800000017" y="818.6406239999997" type="curve" smooth="yes"/>
      <point x="279.1953140000005" y="767.2968739999997"/>
      <point x="307.32812600000034" y="726.7109359999995"/>
      <point x="342.6953140000005" y="698.0078119999998" type="curve" smooth="yes"/>
      <point x="367.55468800000017" y="677.8281239999997"/>
      <point x="428.7578140000005" y="639.0312479999993"/>
      <point x="531.2031260000003" y="639.0234359999995" type="curve" smooth="yes"/>
      <point x="560.1953140000005" y="639.0234359999995"/>
      <point x="592.46875" y="642.1328119999998"/>
      <point x="628.1718760000003" y="649.6406239999997" type="curve" smooth="yes"/>
      <point x="684.46875" y="661.4765619999998"/>
      <point x="736.46875" y="693.2578119999998"/>
      <point x="774.5859380000002" y="739.1171859999995" type="curve" smooth="yes"/>
      <point x="817.15625" y="790.3359359999995"/>
      <point x="839.6640619999998" y="855.9453119999998"/>
      <point x="839.6640619999998" y="928.8671859999995" type="curve" smooth="yes"/>
      <point x="839.6640619999998" y="973.5781239999997"/>
      <point x="832.3359380000002" y="1058.25"/>
      <point x="783.28125" y="1122.9843739999997" type="curve" smooth="yes"/>
      <point x="736.2656260000003" y="1185.0234359999995"/>
      <point x="660.8203140000005" y="1215.1796859999995"/>
      <point x="552.6406260000003" y="1215.1796859999995" type="curve" smooth="yes"/>
      <point x="229.99218800000017" y="1215.1796859999995" type="line" smooth="yes"/>
      <point x="224.46875" y="1215.1796859999995"/>
      <point x="219.99218800000017" y="1210.7031239999997"/>
      <point x="219.99218800000017" y="1205.1796859999995" type="curve" smooth="yes"/>
    </contour>
    <contour>
      <point x="110.0" y="0.0" type="curve" smooth="yes"/>
      <point x="49.25" y="0.0"/>
      <point x="0.0" y="49.25"/>
      <point x="0.0" y="110.0" type="curve" smooth="yes"/>
      <point x="0.0" y="1325.1718739999997" type="line" smooth="yes"/>
      <point x="0.0" y="1385.9218739999997"/>
      <point x="49.25" y="1435.1718739999997"/>
      <point x="110.0" y="1435.1718739999997" type="curve" smooth="yes"/>
      <point x="552.6406260000003" y="1435.1718739999997" type="line" smooth="yes"/>
      <point x="775.8671880000002" y="1435.1718739999997"/>
      <point x="896.625" y="1337.6562479999993"/>
      <point x="958.6171880000002" y="1255.8515619999998" type="curve" smooth="yes"/>
      <point x="1023.7734380000002" y="1169.875"/>
      <point x="1059.65625" y="1053.75"/>
      <point x="1059.65625" y="928.8671859999995" type="curve" smooth="yes"/>
      <point x="1059.65625" y="803.9453119999998"/>
      <point x="1019.5781260000003" y="689.7031239999997"/>
      <point x="943.7656260000003" y="598.5" type="curve" smooth="yes"/>
      <point x="874.0781260000003" y="514.6562479999993"/>
      <point x="778.0781260000003" y="456.3671859999995"/>
      <point x="673.4453140000005" y="434.35937399999966" type="curve" smooth="yes"/>
      <point x="622.96875" y="423.7421859999995"/>
      <point x="544.46875" y="413.2812479999993"/>
      <point x="457.16406199999983" y="423.75781199999983" type="curve" smooth="yes"/>
      <point x="366.60937600000034" y="434.625"/>
      <point x="286.9375" y="465.2421859999995"/>
      <point x="219.99218800000017" y="514.8359359999995" type="curve"/>
      <point x="219.99218800000017" y="110.0" type="line" smooth="yes"/>
      <point x="219.99218800000017" y="49.25"/>
      <point x="170.75" y="0.0"/>
    </contour>
  </outline>
</glyph>
<glyph name="Q.alt" format="2">
  <advance width="1469"/>
  <outline>
    <contour>
      <point x="673.9765619999998" y="1437.5" type="curve" smooth="yes"/>
      <point x="525.75" y="1437.5"/>
      <point x="412.61718800000017" y="1394.7578140000005"/>
      <point x="337.71875" y="1310.4531260000003" type="curve" smooth="yes"/>
      <point x="259.60156199999983" y="1222.5156260000003"/>
      <point x="219.99218800000017" y="1088.9687520000007"/>
      <point x="219.99218800000017" y="913.5234380000002" type="curve" smooth="yes"/>
      <point x="219.99218800000017" y="826.5781260000003"/>
      <point x="230.42968800000017" y="748.3203140000005"/>
      <point x="251.00781199999983" y="680.8984380000002" type="curve" smooth="yes"/>
      <point x="270.4375" y="617.2421880000002"/>
      <point x="299.00781199999983" y="563.1875"/>
      <point x="335.92187399999966" y="520.2187520000007" type="curve" smooth="yes"/>
      <point x="411.55468800000017" y="432.17968800000017"/>
      <point x="525.2890619999998" y="387.5390640000005"/>
      <point x="673.9765619999998" y="387.5390640000005" type="curve" smooth="yes"/>
      <point x="727.3281239999997" y="387.5390640000005"/>
      <point x="893.6015619999998" y="422.2890640000005"/>
      <point x="969.4218739999997" y="406.32812600000034" type="curve"/>
      <point x="963.8359359999995" y="414.5390640000005"/>
      <point x="929.9531239999997" y="445.7812520000007"/>
      <point x="924.4453119999998" y="453.8828140000005" type="curve" smooth="yes"/>
      <point x="914.2656239999997" y="468.8437520000007"/>
      <point x="898.8906239999997" y="479.36718800000017"/>
      <point x="881.3515619999998" y="483.8437520000007" type="curve" smooth="yes"/>
      <point x="881.2656239999997" y="483.86718800000017"/>
      <point x="881.1718739999997" y="483.89062600000034"/>
      <point x="881.0859359999995" y="483.9140640000005" type="curve" smooth="yes"/>
      <point x="801.2265619999998" y="504.3828140000005"/>
      <point x="725.1328119999998" y="550.0234380000002"/>
      <point x="654.9218739999997" y="619.5781260000003" type="curve" smooth="yes"/>
      <point x="595.7578119999998" y="678.1953140000005"/>
      <point x="563.78125" y="749.6875"/>
      <point x="567.1953119999998" y="815.7343760000003" type="curve" smooth="yes"/>
      <point x="569.7578119999998" y="865.2968760000003"/>
      <point x="591.8906239999997" y="909.25"/>
      <point x="629.5078119999998" y="939.5" type="curve" smooth="yes"/>
      <point x="680.3125" y="980.3671880000002"/>
      <point x="729.8828119999998" y="981.6093760000003"/>
      <point x="762.7421880000002" y="976.7265640000005" type="curve" smooth="yes"/>
      <point x="904.25" y="955.6640640000005"/>
      <point x="970.65625" y="783.2734380000002"/>
      <point x="986.7109359999995" y="689.6484380000002" type="curve"/>
      <point x="987.9453119999998" y="690.1171880000002"/>
      <point x="1025.1875" y="701.875"/>
      <point x="1026.40625" y="702.3828140000005" type="curve" smooth="yes"/>
      <point x="1098.2031239999997" y="732.3203140000005"/>
      <point x="1146.4375" y="821.8515640000005"/>
      <point x="1146.4375" y="925.1718760000003" type="curve" smooth="yes"/>
      <point x="1146.4375" y="1096.6015640000005"/>
      <point x="1104.65625" y="1227.1796880000002"/>
      <point x="1022.2421880000002" y="1313.2656260000003" type="curve" smooth="yes"/>
      <point x="943.3281239999997" y="1395.7031260000003"/>
      <point x="826.1484359999995" y="1437.5"/>
    </contour>
    <contour>
      <point x="1292.9296880000002" y="0.0" type="curve" smooth="yes"/>
      <point x="1257.90625" y="0.0"/>
      <point x="1223.4843739999997" y="16.6875"/>
      <point x="1202.15625" y="47.74218800000017" type="curve"/>
      <point x="1202.1406239999997" y="47.75781400000051"/>
      <point x="1202.1328119999998" y="47.77343800000017"/>
      <point x="1202.1171880000002" y="47.79687600000034" type="curve" smooth="yes"/>
      <point x="1202.0" y="47.96875200000068" type="line" smooth="yes"/>
      <point x="1196.4296880000002" y="56.07812600000034"/>
      <point x="1171.5078119999998" y="89.24218800000017"/>
      <point x="1118.5781239999997" y="166.5390640000005" type="curve"/>
      <point x="1102.9765619999998" y="184.0703140000005"/>
      <point x="1074.9218739999997" y="200.4765640000005"/>
      <point x="1054.5546880000002" y="202.8203140000005" type="curve" smooth="yes"/>
      <point x="1012.1328119999998" y="207.6953140000005"/>
      <point x="950.7109359999995" y="208.625"/>
      <point x="888.25" y="195.86718800000017" type="curve" smooth="yes"/>
      <point x="823.2421880000002" y="182.59375200000068"/>
      <point x="749.5546880000002" y="167.54687600000034"/>
      <point x="673.9765619999998" y="167.54687600000034" type="curve" smooth="yes"/>
      <point x="568.09375" y="167.54687600000034"/>
      <point x="471.53125" y="185.23437600000034"/>
      <point x="386.97656199999983" y="220.10937600000034" type="curve" smooth="yes"/>
      <point x="301.41406199999983" y="255.39843800000017"/>
      <point x="228.09375" y="308.14062600000034"/>
      <point x="169.05468800000017" y="376.85937600000034" type="curve" smooth="yes"/>
      <point x="112.19531199999983" y="443.05468800000017"/>
      <point x="68.97656199999983" y="523.7343760000003"/>
      <point x="40.60156199999983" y="616.6640640000005" type="curve" smooth="yes"/>
      <point x="13.66406199999983" y="704.9218760000003"/>
      <point x="0.0" y="804.7968760000003"/>
      <point x="0.0" y="913.5234380000002" type="curve" smooth="yes"/>
      <point x="0.0" y="1144.4453140000005"/>
      <point x="58.28906199999983" y="1327.1484380000002"/>
      <point x="173.25781199999983" y="1456.5546880000002" type="curve" smooth="yes"/>
      <point x="232.57031199999983" y="1523.3281260000003"/>
      <point x="306.15625" y="1574.3281260000003"/>
      <point x="391.9609359999995" y="1608.1484380000002" type="curve" smooth="yes"/>
      <point x="475.04687399999966" y="1640.8906260000003"/>
      <point x="569.9296880000002" y="1657.4921880000002"/>
      <point x="673.9765619999998" y="1657.4921880000002" type="curve" smooth="yes"/>
      <point x="777.6796880000002" y="1657.4921880000002"/>
      <point x="872.7890619999998" y="1641.7890640000005"/>
      <point x="956.6484359999995" y="1610.8125" type="curve" smooth="yes"/>
      <point x="1044.2031239999997" y="1578.4765640000005"/>
      <point x="1119.7343739999997" y="1529.5546880000002"/>
      <point x="1181.15625" y="1465.3906260000003" type="curve" smooth="yes"/>
      <point x="1242.7343739999997" y="1401.0625"/>
      <point x="1289.7265619999998" y="1321.7734380000002"/>
      <point x="1320.8203119999998" y="1229.7265640000005" type="curve" smooth="yes"/>
      <point x="1351.0859359999995" y="1140.1406260000003"/>
      <point x="1366.4296880000002" y="1037.6718760000003"/>
      <point x="1366.4296880000002" y="925.1718760000003" type="curve" smooth="yes"/>
      <point x="1366.4296880000002" y="746.8593760000003"/>
      <point x="1281.75" y="591.2265640000005"/>
      <point x="1147.6015619999998" y="517.0" type="curve"/>
      <point x="1191.3906239999997" y="452.77343800000017"/>
      <point x="1237.4375" y="385.4062520000007"/>
      <point x="1280.3671880000002" y="322.71093800000017" type="curve"/>
      <point x="1290.5234359999995" y="309.92187600000034"/>
      <point x="1300.0156239999997" y="296.0703140000005"/>
      <point x="1308.84375" y="281.1640640000005" type="curve"/>
      <point x="1383.34375" y="172.5078140000005" type="line"/>
      <point x="1383.40625" y="172.42968800000017"/>
      <point x="1383.4531239999997" y="172.3515640000005"/>
      <point x="1383.5078119999998" y="172.26562600000034" type="curve"/>
      <point x="1383.5468739999997" y="172.21093800000017" type="line" smooth="yes"/>
      <point x="1417.8984359999995" y="122.11718800000017"/>
      <point x="1405.1484359999995" y="53.67187600000034"/>
      <point x="1355.0703119999998" y="19.30468800000017" type="curve" smooth="yes"/>
      <point x="1336.0468739999997" y="6.257814000000508"/>
      <point x="1314.375" y="0.0"/>
    </contour>
  </outline>
</glyph>
<glyph name="R.alt" format="2">
  <advance width="1249"/>
  <outline>
    <contour>
      <point x="978.2031239999999" y="-0.014743794308742508" type="curve" smooth="yes"/>
      <point x="942.0781239999999" y="-0.014743794308742508"/>
      <point x="906.6953120000001" y="17.758694205691427"/>
      <point x="885.6640620000001" y="50.37588020569092" type="curve" smooth="yes"/>
      <point x="883.7968739999999" y="53.27431820569109"/>
      <point x="698.0546860000002" y="341.2508802056909"/>
      <point x="612.5859380000002" y="472.9383802056909" type="curve" smooth="yes"/>
      <point x="612.5390620000001" y="473.0086942056914"/>
      <point x="651.4296860000002" y="413.0086942056914"/>
      <point x="651.3828120000001" y="413.07900620569126" type="curve" smooth="yes"/>
      <point x="642.5468739999999" y="426.6961942056914"/>
      <point x="612.5859380000002" y="472.9383802056909"/>
      <point x="544.0468740000001" y="505.2743182056911" type="curve" smooth="yes"/>
      <point x="488.13281200000006" y="531.6493182056911"/>
      <point x="455.4218740000001" y="534.3524422056907"/>
      <point x="407.85156200000006" y="571.4696302056909" type="curve" smooth="yes"/>
      <point x="349.78125" y="616.7821302056909"/>
      <point x="318.2968740000001" y="693.7743182056911"/>
      <point x="329.50781200000006" y="763.0555682056911" type="curve" smooth="yes"/>
      <point x="338.52343800000017" y="818.7586942056914"/>
      <point x="374.5625" y="862.9305682056911"/>
      <point x="425.90625" y="881.1961942056914" type="curve" smooth="yes"/>
      <point x="470.50781200000006" y="897.0555682056911"/>
      <point x="517.7109380000002" y="894.0477562056913"/>
      <point x="562.4453120000001" y="872.4930682056911" type="curve" smooth="yes"/>
      <point x="591.6640620000001" y="858.4149422056907"/>
      <point x="619.7343740000001" y="836.4383802056909"/>
      <point x="648.2421860000002" y="805.3133802056909" type="curve" smooth="yes"/>
      <point x="668.3203120000001" y="783.4071302056909"/>
      <point x="687.8046860000002" y="757.8836942056914"/>
      <point x="707.2421860000002" y="730.0868182056911" type="curve"/>
      <point x="710.5546860000002" y="732.2586942056914"/>
      <point x="713.5468739999999" y="734.6102562056913"/>
      <point x="716.1796860000002" y="737.1336942056914" type="curve" smooth="yes"/>
      <point x="779.9921860000002" y="798.1961942056914"/>
      <point x="819.6328120000001" y="883.2274422056907"/>
      <point x="819.6328120000001" y="959.0399422056907" type="curve" smooth="yes"/>
      <point x="819.6328120000001" y="981.0790062056913"/>
      <point x="815.3828120000001" y="1057.993068205691"/>
      <point x="760.7656239999999" y="1122.1336942056914" type="curve" smooth="yes"/>
      <point x="709.5468739999999" y="1182.282130205691"/>
      <point x="628.4765620000001" y="1212.782130205691"/>
      <point x="519.8125" y="1212.782130205691" type="curve" smooth="yes"/>
      <point x="219.99218599999995" y="1212.782130205691" type="line"/>
      <point x="219.99218599999995" y="111.63369420569143" type="line" smooth="yes"/>
      <point x="219.99218599999995" y="51.18056820569109"/>
      <point x="171.89843800000017" y="0.7977562056912575"/>
      <point x="111.45312400000012" y="0.00869420569142676" type="curve" smooth="yes"/>
      <point x="50.03906200000006" y="-0.7881817943089118"/>
      <point x="0.0" y="48.75869420569143"/>
      <point x="0.0" y="110.00088020569092" type="curve" smooth="yes"/>
      <point x="0.0" y="1322.782130205691" type="line" smooth="yes"/>
      <point x="0.0" y="1383.532130205691"/>
      <point x="49.24218599999995" y="1432.774318205691"/>
      <point x="109.99218599999995" y="1432.774318205691" type="curve" smooth="yes"/>
      <point x="519.8125" y="1432.774318205691" type="line" smooth="yes"/>
      <point x="739.1562500000002" y="1432.774318205691"/>
      <point x="863.0000000000002" y="1341.399318205691"/>
      <point x="928.2656239999999" y="1264.750880205691" type="curve" smooth="yes"/>
      <point x="999.0312500000002" y="1181.6415062056913"/>
      <point x="1039.6250000000002" y="1070.211818205691"/>
      <point x="1039.6250000000002" y="959.0399422056907" type="curve" smooth="yes"/>
      <point x="1039.6171860000002" y="889.1102562056913"/>
      <point x="1022.6875000000002" y="816.1649422056907"/>
      <point x="990.6562500000002" y="748.0868182056911" type="curve" smooth="yes"/>
      <point x="961.0859379999999" y="685.2586942056914"/>
      <point x="918.7734379999999" y="626.5086942056914"/>
      <point x="868.2812500000002" y="578.1883802056909" type="curve" smooth="yes"/>
      <point x="855.7656239999999" y="566.2118182056911"/>
      <point x="842.1171860000002" y="555.4149422056907"/>
      <point x="827.5000000000002" y="545.8446302056909" type="curve"/>
      <point x="920.2109379999999" y="402.6805682056911"/>
      <point x="1068.8671860000002" y="172.20400620569126"/>
      <point x="1070.539062" y="169.6180682056911" type="curve" smooth="yes"/>
      <point x="1103.460938" y="118.56338020569092"/>
      <point x="1088.765624" y="50.48525620569126"/>
      <point x="1037.7187500000002" y="17.55556820569109" type="curve" smooth="yes"/>
      <point x="1019.2812500000002" y="5.6727562056912575"/>
      <point x="998.6171860000002" y="-0.014743794308742508"/>
    </contour>
  </outline>
</glyph>
<glyph name="V.alt" format="2">
  <advance width="1294"/>
  <outline>
    <contour>
      <point x="742.237253855551" y="593.6171880000002" type="curve" smooth="yes"/>
      <point x="344.643503855551" y="593.6171880000002"/>
      <point x="65.87787985555133" y="962.0"/>
      <point x="21.07319185555116" y="1343.4375" type="curve" smooth="yes"/>
      <point x="16.59662785555065" y="1381.5468739999997"/>
      <point x="50.95600385555099" y="1434.7734359999995"/>
      <point x="108.86225385555099" y="1434.7734359999995" type="curve" smooth="yes"/>
      <point x="141.69819185555116" y="1434.7734359999995"/>
      <point x="187.01069185555116" y="1420.1796880000002"/>
      <point x="198.87006585555082" y="1373.8828119999998" type="curve" smooth="yes"/>
      <point x="294.4403798555513" y="1000.7578119999998"/>
      <point x="496.8778798555513" y="779.8828119999998"/>
      <point x="742.237253855551" y="779.8828119999998" type="curve" smooth="yes"/>
      <point x="987.5966278555507" y="779.8828119999998"/>
      <point x="1189.5028798555513" y="1000.8984359999995"/>
      <point x="1285.6044418555512" y="1373.8828119999998" type="curve" smooth="yes"/>
      <point x="1297.3778798555513" y="1419.6015619999998"/>
      <point x="1342.768503855551" y="1434.7734359999995"/>
      <point x="1375.6044418555512" y="1434.7734359999995" type="curve" smooth="yes"/>
      <point x="1433.518503855551" y="1434.7734359999995"/>
      <point x="1467.8778798555513" y="1381.5468739999997"/>
      <point x="1463.4013158555508" y="1343.4375" type="curve" smooth="yes"/>
      <point x="1418.5966278555507" y="962.0"/>
      <point x="1139.831003855551" y="593.6171880000002"/>
    </contour>
    <contour>
      <point x="742.237253855551" y="2.0" type="curve" smooth="yes"/>
      <point x="308.22162785555065" y="2.0"/>
      <point x="65.87787985555133" y="962.0"/>
      <point x="21.07319185555116" y="1343.4375" type="curve" smooth="yes"/>
      <point x="16.59662785555065" y="1381.5468739999997"/>
      <point x="49.16694185555116" y="1434.7734359999995"/>
      <point x="108.86225385555099" y="1434.7734359999995" type="curve" smooth="yes"/>
      <point x="141.69819185555116" y="1434.7734359999995"/>
      <point x="187.01069185555116" y="1420.1796880000002"/>
      <point x="198.87006585555082" y="1373.8828119999998" type="curve" smooth="yes"/>
      <point x="294.4403798555513" y="1000.7578119999998"/>
      <point x="557.768503855551" y="242.0"/>
      <point x="742.237253855551" y="242.0" type="curve" smooth="yes"/>
      <point x="926.706003855551" y="242.0"/>
      <point x="1189.5028798555513" y="1000.8906239999997"/>
      <point x="1285.6044418555512" y="1373.8828119999998" type="curve" smooth="yes"/>
      <point x="1297.3778798555513" y="1419.6015619999998"/>
      <point x="1342.768503855551" y="1434.78125"/>
      <point x="1375.6044418555512" y="1434.78125" type="curve" smooth="yes"/>
      <point x="1435.3075658555508" y="1434.78125"/>
      <point x="1467.8778798555513" y="1381.5468739999997"/>
      <point x="1463.4013158555508" y="1343.4375" type="curve" smooth="yes"/>
      <point x="1418.5966278555507" y="962.0"/>
      <point x="1176.2450658555508" y="2.0"/>
    </contour>
  </outline>
</glyph>
<glyph name="W.alt" format="2">
  <advance width="1874"/>
  <outline>
    <contour>
      <point x="461.1743285587145" y="0.0" type="curve" smooth="yes"/>
      <point x="456.8930785587145" y="0.0"/>
      <point x="452.5883905587143" y="0.1484359999994922"/>
      <point x="448.2680785587145" y="0.44531199999983073" type="curve" smooth="yes"/>
      <point x="372.6899545587148" y="5.7031239999996615"/>
      <point x="308.0883905587143" y="56.23437399999966"/>
      <point x="283.682142558715" y="129.1875" type="curve" smooth="yes"/>
      <point x="283.2055785587145" y="130.625"/>
      <point x="282.7368285587145" y="132.04687399999966"/>
      <point x="282.2758905587143" y="133.47656199999983" type="curve" smooth="yes"/>
      <point x="281.4243285587145" y="136.10156199999983"/>
      <point x="280.682142558715" y="138.75781199999983"/>
      <point x="280.0337045587148" y="141.4375" type="curve" smooth="yes"/>
      <point x="3.033704558714817" y="1286.7968739999997" type="line" smooth="yes"/>
      <point x="-11.247545441285183" y="1345.8437479999993"/>
      <point x="25.04932855871448" y="1405.2890619999998"/>
      <point x="84.08839055871431" y="1419.5703119999998" type="curve" smooth="yes"/>
      <point x="143.14307855871448" y="1433.8359359999995"/>
      <point x="202.58057855871448" y="1397.5625"/>
      <point x="216.86182855871448" y="1338.5078119999998" type="curve" smooth="yes"/>
      <point x="471.76026655871465" y="284.51562399999966" type="line"/>
      <point x="524.1274545587148" y="390.45312399999966"/>
      <point x="596.0649545587148" y="537.3125"/>
      <point x="660.7524545587148" y="673.9531239999997" type="curve" smooth="yes"/>
      <point x="708.3149545587148" y="774.4140619999998"/>
      <point x="779.9008905587143" y="879.6171859999995"/>
      <point x="760.6352665587146" y="994.8046859999995" type="curve" smooth="yes"/>
      <point x="755.4790165587146" y="1025.6093739999997"/>
      <point x="740.6665165587146" y="1053.9843739999997"/>
      <point x="736.9555785587145" y="1085.8593739999997" type="curve" smooth="yes"/>
      <point x="728.0337045587148" y="1162.4609359999995"/>
      <point x="751.8149545587148" y="1256.7265619999998"/>
      <point x="825.0493285587145" y="1294.6093739999997" type="curve" smooth="yes"/>
      <point x="863.1587045587148" y="1314.3203119999998"/>
      <point x="907.3618285587145" y="1314.7031239999997"/>
      <point x="946.307142558715" y="1295.6562479999993" type="curve" smooth="yes"/>
      <point x="994.6508905587143" y="1272.0156239999997"/>
      <point x="1030.5883905587143" y="1219.8203119999998"/>
      <point x="1042.4555785587145" y="1156.0" type="curve" smooth="yes"/>
      <point x="1051.5493285587145" y="1107.0390619999998"/>
      <point x="1044.0180785587145" y="1061.9531239999997"/>
      <point x="1038.682142558715" y="1013.4218739999997" type="curve" smooth="yes"/>
      <point x="1025.0883905587143" y="889.9062479999993"/>
      <point x="1101.9399545587148" y="780.7187479999993"/>
      <point x="1150.8540165587146" y="671.7031239999997" type="curve" smooth="yes"/>
      <point x="1204.869642558715" y="551.3281239999997"/>
      <point x="1258.3930785587145" y="430.70312399999966"/>
      <point x="1309.9555785587145" y="309.25781199999983" type="curve"/>
      <point x="1558.8774545587148" y="1338.5078119999998" type="line" smooth="yes"/>
      <point x="1573.1508905587143" y="1397.5546859999995"/>
      <point x="1632.5962045587148" y="1433.8359359999995"/>
      <point x="1691.6430785587145" y="1419.5703119999998" type="curve" smooth="yes"/>
      <point x="1750.6899545587148" y="1405.2890619999998"/>
      <point x="1786.9790165587146" y="1345.8437479999993"/>
      <point x="1772.6977665587146" y="1286.7968739999997" type="curve" smooth="yes"/>
      <point x="1495.7055785587145" y="141.4375" type="line" smooth="yes"/>
      <point x="1495.5883905587143" y="140.94531199999983"/>
      <point x="1495.4633905587143" y="140.44531199999983"/>
      <point x="1495.3305785587145" y="139.95312399999966" type="curve" smooth="yes"/>
      <point x="1494.7055785587145" y="137.5234359999995" type="line" smooth="yes"/>
      <point x="1484.4555785587145" y="98.29687399999966"/>
      <point x="1462.7602665587146" y="64.625"/>
      <point x="1431.9712045587148" y="40.09374799999932" type="curve" smooth="yes"/>
      <point x="1403.0805785587145" y="17.07812399999966"/>
      <point x="1368.2055785587145" y="3.6718739999996615"/>
      <point x="1331.1274545587148" y="1.3281239999996615" type="curve" smooth="yes"/>
      <point x="1294.1508905587143" y="-1.0156260000003385"/>
      <point x="1257.994642558715" y="7.843747999999323"/>
      <point x="1226.557142558715" y="26.9375" type="curve" smooth="yes"/>
      <point x="1193.0024545587148" y="47.30468599999949"/>
      <point x="1167.307142558715" y="77.88281199999983"/>
      <point x="1152.244642558715" y="115.36718599999949" type="curve" smooth="yes"/>
      <point x="1096.4790165587146" y="254.2109359999995"/>
      <point x="991.1665165587146" y="491.60937399999966"/>
      <point x="906.2055785587145" y="679.2578119999998" type="curve"/>
      <point x="892.2680785587145" y="649.1875"/>
      <point x="876.7837045587148" y="616.1328119999998"/>
      <point x="859.5883905587143" y="579.8125" type="curve" smooth="yes"/>
      <point x="774.9087045587148" y="400.9609359999995"/>
      <point x="678.1352665587146" y="205.16406199999983"/>
      <point x="627.9868285587145" y="104.375" type="curve" smooth="yes"/>
      <point x="595.932142558715" y="39.94531199999983"/>
      <point x="531.4165165587146" y="0.0"/>
    </contour>
  </outline>
</glyph>
<glyph name="acutecomb.cap" format="2">
  <outline>
    <contour>
      <point x="50" y="1838" type="line"/>
      <point x="303" y="1838" type="line"/>
      <point x="57" y="1520" type="line"/>
      <point x="-146" y="1520" type="line"/>
    </contour>
  </outline>
</glyph>
